<svg xmlns="http://www.w3.org/2000/svg" width="10.391" height="9.939" viewBox="0 0 10.391 9.939"><g transform="translate(0 -0.332)"><path d="M156.222,219.678h-6.551a.339.339,0,1,1,0-.678h6.551a.339.339,0,1,1,0,.678Zm0,0" transform="translate(-146.17 -214.037)" fill="#fff"/><path d="M151.486,137.945a.336.336,0,0,1-.239-.1l-1.807-1.807a.339.339,0,0,1,0-.479l1.807-1.807a.339.339,0,0,1,.479.479l-1.568,1.568,1.568,1.568a.339.339,0,0,1-.24.578Zm0,0" transform="translate(-146.177 -130.497)" fill="#fff"/><path d="M4.97,10.271A4.97,4.97,0,1,1,9.595,3.484a.339.339,0,1,1-.631.248,4.292,4.292,0,1,0,0,3.14.339.339,0,1,1,.631.248A4.944,4.944,0,0,1,4.97,10.271Zm0,0" fill="#fff"/></g></svg>