<svg xmlns="http://www.w3.org/2000/svg" width="11.356" height="14.019" viewBox="0 0 11.356 14.019"><g transform="translate(-103.2 -10)"><path d="M114.547,15.731A5.7,5.7,0,0,0,108.881,10h-.009a5.7,5.7,0,0,0-5.666,5.731H103.2a6,6,0,0,0,.827,2.7,36.111,36.111,0,0,0,4.839,5.583v0h.006v0l.006,0,.006,0v0h.006v0a36.189,36.189,0,0,0,4.839-5.583,6,6,0,0,0,.827-2.7h-.009Zm-1.594,2.31a29.765,29.765,0,0,1-4.068,4.656v0h0v0l0,0,0,0v0h0v0a29.765,29.765,0,0,1-4.068-4.656,5.041,5.041,0,0,1-.7-2.272h0a4.793,4.793,0,0,1,4.764-4.818h.009a4.794,4.794,0,0,1,4.764,4.818h0A5.118,5.118,0,0,1,112.953,18.041Z" transform="translate(0 0)"/><path d="M295.468,194.2a2.968,2.968,0,1,0,2.968,2.968A2.968,2.968,0,0,0,295.468,194.2Zm0,5.339a2.37,2.37,0,1,1,2.37-2.37A2.371,2.371,0,0,1,295.468,199.539Z" transform="translate(-186.592 -181.565)"/></g></svg>