<svg xmlns="http://www.w3.org/2000/svg" width="7.031" height="10.034" viewBox="0 0 7.031 10.034"><g transform="translate(-156.674 -10.006)"><g transform="translate(156.674 10.006)"><path d="M280.162-501.959a.463.463,0,0,0-.212.25c-.031.122-.263,1.617-.251,1.629a.485.485,0,0,0,.134-.077,3.766,3.766,0,0,1,1.373-.581,3.77,3.77,0,0,1,2.88.589c.122.083.138.088.132.051s-.065-.4-.134-.835c-.139-.868-.149-.9-.291-1l-.079-.055-1.741,0A8.589,8.589,0,0,0,280.162-501.959Z" transform="translate(-278.438 501.994)" fill="#fff"/><path d="M159.765-355.838a3.6,3.6,0,0,0-1.513.568,3.421,3.421,0,0,0-.984.982,3.556,3.556,0,0,0,.4,4.436,3.631,3.631,0,0,0,.945.692,3.5,3.5,0,0,0,3.98-.585,3.548,3.548,0,0,0,.509-4.552,3.559,3.559,0,0,0-2.22-1.493,2.743,2.743,0,0,0-.629-.049C160.018-355.844,159.8-355.842,159.765-355.838Zm.9.825a2.837,2.837,0,0,1,1.051.43,3.7,3.7,0,0,1,.7.7,2.731,2.731,0,0,1-.289,3.463,2.689,2.689,0,0,1-1.411.782,3.089,3.089,0,0,1-1.059,0,2.694,2.694,0,0,1-1.338-.7,2.724,2.724,0,0,1-.782-1.355,3.257,3.257,0,0,1-.039-1.053,2.74,2.74,0,0,1,1.189-1.856,2.781,2.781,0,0,1,1.279-.45A3.7,3.7,0,0,1,160.668-355.013Z" transform="translate(-156.674 357.339)" fill="#fff"/><path d="M470.555-175.468a.392.392,0,0,0-.106.086c-.035.049-.037.094-.039.923a3.47,3.47,0,0,0,.031.935c.065.122.075.124.858.124a2.657,2.657,0,0,0,.766-.031.263.263,0,0,0,.088-.342c-.059-.112-.09-.118-.7-.118h-.55v-.7a2.83,2.83,0,0,0-.031-.764A.235.235,0,0,0,470.555-175.468Z" transform="translate(-467.197 178.837)" fill="#fff"/><path d="M283.868,288.924a4.485,4.485,0,0,1-.422.242,3.735,3.735,0,0,1-3.34.01,4.36,4.36,0,0,1-.413-.232.573.573,0,0,0-.183-.1c-.012.03.234,1.554.263,1.64a.442.442,0,0,0,.218.236,16.855,16.855,0,0,0,1.778.028,7.543,7.543,0,0,0,1.8-.041.428.428,0,0,0,.21-.261c.136-.851.261-1.633.259-1.634S283.96,288.859,283.868,288.924Z" transform="translate(-278.252 -280.713)" fill="#fff"/></g></g></svg>