<svg xmlns="http://www.w3.org/2000/svg" width="7.63" height="10.156" viewBox="0 0 7.63 10.156"><g transform="translate(94.684 126.036)"><g transform="translate(-94.684 -126.036)"><path d="M38.831,1.95l-1.8-1.8A.51.51,0,0,0,36.669,0h-4.8a.514.514,0,0,0-.513.513V9.642a.514.514,0,0,0,.513.513h6.6a.514.514,0,0,0,.513-.513V2.313A.51.51,0,0,0,38.831,1.95ZM36.981.578,38.4,2H37.125a.144.144,0,0,1-.144-.144V.578Zm1.488,9.239h-6.6a.175.175,0,0,1-.175-.175V.513a.175.175,0,0,1,.175-.175h4.777V1.857a.483.483,0,0,0,.483.483h1.518v7.3A.175.175,0,0,1,38.468,9.817Z" transform="translate(-31.352)" fill="#878787"/><path d="M73.87,84.972a1.232,1.232,0,0,0-1.7.347.169.169,0,1,0,.282.187.891.891,0,1,1,1.486.982l-2.066,3.125a.891.891,0,0,1-1.486-.982h0L71.8,86.48a.349.349,0,0,1,.483-.1.35.35,0,0,1,.1.483L70.977,89a.169.169,0,0,0,.282.187l1.409-2.131a.687.687,0,0,0-1.146-.757L70.1,88.444h0A1.229,1.229,0,0,0,72.151,89.8l2.066-3.125A1.23,1.23,0,0,0,73.87,84.972Z" transform="translate(-68.344 -81.353)" fill="#878787"/></g></g></svg>