<svg xmlns="http://www.w3.org/2000/svg" width="9.661" height="8.604" viewBox="0 0 9.661 8.604"><g transform="translate(126.036 112.241)"><g transform="translate(-126.036 -112.241)"><path d="M4.287,60.775a.11.11,0,0,1-.037-.007L.07,59.238a.108.108,0,0,1-.07-.1v-5.3a.107.107,0,0,1,.144-.1l4.18,1.531a.107.107,0,0,1,.07.1v5.3a.108.108,0,0,1-.107.107ZM.215,59.062,4.18,60.514V55.445L.215,53.992Z" transform="translate(0 -52.201)"/><path d="M109.159,99.18a.107.107,0,0,1-.107-.107v-5.3a.107.107,0,1,1,.215,0v5.144l.957-.351a.107.107,0,1,1,.074.2l-1.1.4A.11.11,0,0,1,109.159,99.18Z" transform="translate(-104.872 -90.606)"/><path d="M113.338,56.31a.107.107,0,0,1-.107-.107V53.992L109.2,55.47a.107.107,0,0,1-.074-.2l4.18-1.531a.107.107,0,0,1,.144.1V56.2A.107.107,0,0,1,113.338,56.31Z" transform="translate(-104.872 -52.2)"/><path d="M4.287,17.071a.109.109,0,0,1-.037-.007L.07,15.533a.107.107,0,0,1,0-.2L4.25,13.8a.108.108,0,0,1,.074,0L8.5,15.332a.107.107,0,0,1,0,.2l-4.18,1.531A.107.107,0,0,1,4.287,17.071ZM.42,15.433l3.868,1.416,3.868-1.416L4.287,14.016Z" transform="translate(0 -13.795)"/><path d="M51.877,36.245a.107.107,0,0,1-.107-.107V34.7a.107.107,0,0,1,.071-.1l4.213-1.518a.107.107,0,0,1,.073.2l-4.142,1.493v1.362A.107.107,0,0,1,51.877,36.245Z" transform="translate(-49.786 -32.336)"/><path d="M168.081,164.016a.107.107,0,0,1-.076-.031l-.685-.685a.107.107,0,1,1,.152-.152l.609.609,1.294-1.294a.107.107,0,0,1,.152.152l-1.37,1.37A.107.107,0,0,1,168.081,164.016Z" transform="translate(-160.876 -156.735)"/><path d="M143.843,132.161a2.115,2.115,0,1,1,2.115-2.115A2.117,2.117,0,0,1,143.843,132.161Zm0-4.015a1.9,1.9,0,1,0,1.9,1.9A1.9,1.9,0,0,0,143.843,128.147Z" transform="translate(-136.297 -123.558)"/></g></g></svg>