<svg xmlns="http://www.w3.org/2000/svg" width="6.246" height="6.327" viewBox="0 0 6.246 6.327"><g transform="translate(-74.566 -68.904)"><path d="M75.03,70.885h1.055a.356.356,0,0,1,.144,0,.958.958,0,0,1,.163.128c-.05.05-.1.142-.151.143-.5.011-1.01.012-1.515,0-.054,0-.149-.115-.151-.178-.013-.487-.012-.974,0-1.461a.227.227,0,0,1,.133-.172c.116-.021.144.078.144.18,0,.321,0,.643,0,1.006.047-.06.073-.087.093-.118A3.165,3.165,0,1,1,77.5,75.227a3.1,3.1,0,0,1-2.433-1.312c-.015-.02-.028-.04-.042-.06-.062-.084-.088-.182.02-.228a.227.227,0,0,1,.205.066,3.158,3.158,0,0,0,.837.805,2.879,2.879,0,1,0,1.3-5.292,2.764,2.764,0,0,0-2.3,1.529C75.07,70.776,75.056,70.821,75.03,70.885Z"/><path d="M271.414,318.348l1.12-1.259q.472-.532.944-1.064c.073-.083.154-.162.259-.064s.025.174-.043.25q-1.059,1.193-2.117,2.387c-.142.159-.186.156-.332-.008q-.411-.464-.82-.93c-.071-.081-.145-.171-.033-.265s.178,0,.244.072Z" transform="translate(-194.371 -245.248)"/></g></svg>