<svg xmlns="http://www.w3.org/2000/svg" width="13.145" height="15" viewBox="0 0 13.145 15"><g transform="translate(-70.6 -10)"><path d="M545.4,597.5l.107-1.276,4.024-4.825,1.13.941-4.047,4.854Z" transform="translate(-467.533 -572.501)"/><path d="M826.849,547.4l1.128.941-.448.539-1.128-.941Z" transform="translate(-744.231 -529.174)"/><path d="M77.027,68.7H70.6V54.4h3.017v.935H71.535V67.769h5.493V68.7Z" transform="translate(0 -43.72)"/><path d="M627.711,62.061h-.935V55.335H624.7V54.4h3.011Z" transform="translate(-545.619 -43.72)"/><path d="M363.6,54.4h2.766v.935H363.6Z" transform="translate(-288.515 -43.72)"/><path d="M284.1,10h.935v2.16H284.1Z" transform="translate(-210.232 0)"/><path d="M555.1,10h.935v2.16H555.1Z" transform="translate(-477.084 0)"/><path d="M209.9,267.162a.562.562,0,1,0,.562-.562.561.561,0,0,0-.562.562Z" transform="translate(-137.168 -252.672)"/><path d="M209.9,473.362a.562.562,0,1,0,1.124,0h0a.562.562,0,0,0-1.124,0Z" transform="translate(-137.168 -455.716)"/><path d="M209.9,679.561a.562.562,0,0,0,1.124,0h0a.562.562,0,1,0-1.124,0Z" transform="translate(-137.168 -658.76)"/><path d="M355,288h4.938v.467H355Z" transform="translate(-280.047 -273.745)"/><path d="M355,494.2h4.938v.467H355V494.2Z" transform="translate(-280.047 -476.789)"/><path d="M355,700.3h4.128v.467H355Z" transform="translate(-280.047 -679.734)"/><path d="M502,968.5" transform="translate(-424.797 -943.829)"/></g></svg>