<svg xmlns="http://www.w3.org/2000/svg" width="8.491" height="9.69" viewBox="0 0 8.491 9.69"><g transform="translate(-70.6 -10)"><path d="M545.4,595.341l.069-.825,2.6-3.116.73.608-2.614,3.135Z" transform="translate(-470.105 -575.651)"/><path d="M826.69,547.4l.729.608-.29.348-.729-.608Z" transform="translate(-748.327 -532.087)"/><path d="M74.752,63.64H70.6V54.4h1.949V55H71.2v8.031h3.549v.6Z" transform="translate(0 -43.961)"/><path d="M626.645,59.349h-.6V55H624.7v-.6h1.945Z" transform="translate(-548.621 -43.961)"/><path d="M363.6,54.4h1.787V55H363.6Z" transform="translate(-290.103 -43.961)"/><path d="M284.1,10h.6v1.4h-.6Z" transform="translate(-211.389)"/><path d="M555.1,10h.6v1.4h-.6Z" transform="translate(-479.71)"/><path d="M209.9,266.963a.363.363,0,1,0,.363-.363.362.362,0,0,0-.363.363Z" transform="translate(-137.923 -254.063)"/><path d="M209.9,473.163a.363.363,0,1,0,.726,0h0a.363.363,0,0,0-.726,0Z" transform="translate(-137.923 -458.224)"/><path d="M209.9,679.362a.363.363,0,0,0,.726,0h0a.363.363,0,0,0-.726,0Z" transform="translate(-137.923 -662.385)"/><path d="M355,288h3.19v.3H355Z" transform="translate(-281.588 -275.251)"/><path d="M355,494.2h3.19v.3H355v-.3Z" transform="translate(-281.588 -479.413)"/><path d="M355,700.3h2.667v.3H355Z" transform="translate(-281.588 -683.475)"/><path d="M502,968.5" transform="translate(-427.135 -949.023)"/></g></svg>