<svg xmlns="http://www.w3.org/2000/svg" width="9.685" height="10.331" viewBox="0 0 9.685 10.331"><g transform="translate(118.157 126.036)"><g transform="translate(-118.157 -126.036)"><path d="M17.334,20.823H8.108a.23.23,0,0,1-.23-.23v-1.21A1.118,1.118,0,0,1,9,18.267h7.45a1.118,1.118,0,0,1,1.117,1.117v1.21A.229.229,0,0,1,17.334,20.823Zm-9-.459H17.1v-.98a.659.659,0,0,0-.658-.658H9a.659.659,0,0,0-.658.658Z" transform="translate(-7.879 -17.518)"/><path d="M12.506,76.925H9a1.118,1.118,0,0,1-1.117-1.117V69.67a.23.23,0,0,1,.23-.23h9.226a.23.23,0,0,1,.23.23v2.2a.23.23,0,0,1-.459,0V69.9H8.338v5.908A.659.659,0,0,0,9,76.466h3.511a.23.23,0,0,1,0,.459Z" transform="translate(-7.879 -66.594)"/><path d="M53.039,1.957a.23.23,0,0,1-.23-.23V.23a.23.23,0,1,1,.459,0v1.5A.23.23,0,0,1,53.039,1.957Z" transform="translate(-50.968)"/><path d="M188.289,1.957a.23.23,0,0,1-.23-.23V.23a.23.23,0,1,1,.459,0v1.5A.23.23,0,0,1,188.289,1.957Z" transform="translate(-180.675)"/><path d="M120.664,1.957a.23.23,0,0,1-.23-.23V.23a.23.23,0,1,1,.459,0v1.5A.23.23,0,0,1,120.664,1.957Z" transform="translate(-115.822)"/><path d="M50.882,106.842h-.174a.142.142,0,0,1-.142-.142v-.174a.142.142,0,0,1,.142-.142h.174a.142.142,0,0,1,.142.142v.174A.142.142,0,0,1,50.882,106.842Z" transform="translate(-48.816 -102.023)"/><path d="M97.46,106.842h-.174a.142.142,0,0,1-.142-.142v-.174a.142.142,0,0,1,.142-.142h.174a.142.142,0,0,1,.142.142v.174A.142.142,0,0,1,97.46,106.842Z" transform="translate(-93.485 -102.023)"/><path d="M144.037,106.842h-.174a.142.142,0,0,1-.142-.142v-.174a.142.142,0,0,1,.142-.142h.174a.142.142,0,0,1,.142.142v.174A.142.142,0,0,1,144.037,106.842Z" transform="translate(-138.153 -102.023)"/><path d="M190.617,106.842h-.174a.142.142,0,0,1-.142-.142v-.174a.142.142,0,0,1,.142-.142h.174a.142.142,0,0,1,.142.142v.174A.143.143,0,0,1,190.617,106.842Z" transform="translate(-182.824 -102.023)"/><path d="M50.882,153.419h-.174a.142.142,0,0,1-.142-.142V153.1a.142.142,0,0,1,.142-.142h.174a.142.142,0,0,1,.142.142v.174A.142.142,0,0,1,50.882,153.419Z" transform="translate(-48.816 -146.691)"/><path d="M97.46,153.419h-.174a.142.142,0,0,1-.142-.142V153.1a.142.142,0,0,1,.142-.142h.174a.142.142,0,0,1,.142.142v.174A.142.142,0,0,1,97.46,153.419Z" transform="translate(-93.485 -146.691)"/><path d="M50.882,200h-.174a.142.142,0,0,1-.142-.142v-.174a.142.142,0,0,1,.142-.142h.174a.142.142,0,0,1,.142.142v.174A.142.142,0,0,1,50.882,200Z" transform="translate(-48.816 -191.36)"/><path d="M97.46,200h-.174a.142.142,0,0,1-.142-.142v-.174a.142.142,0,0,1,.142-.142h.174a.142.142,0,0,1,.142.142v.174A.142.142,0,0,1,97.46,200Z" transform="translate(-93.485 -191.36)"/><path d="M132.169,142.389a2.344,2.344,0,1,1,2.344-2.344A2.346,2.346,0,0,1,132.169,142.389Zm0-4.228a1.884,1.884,0,1,0,1.884,1.885A1.887,1.887,0,0,0,132.169,138.16Z" transform="translate(-124.828 -132.058)"/><path d="M164.392,178.43h-.006a.23.23,0,0,1-.168-.079l-.487-.562a.23.23,0,1,1,.347-.3l.322.371.913-.956a.23.23,0,0,1,.332.317l-1.087,1.138A.229.229,0,0,1,164.392,178.43Z" transform="translate(-157.29 -169.586)"/></g></g></svg>