<svg xmlns="http://www.w3.org/2000/svg" width="18.489" height="16.881" viewBox="0 0 18.489 16.881"><path d="M1.608,5.019H4.18L5.627,3.412H10.45V5.019H6.35L4.823,6.627H1.608v9.646H14.469V9.039h1.608v7.235a1.612,1.612,0,0,1-1.608,1.608H1.608A1.612,1.612,0,0,1,0,16.273V6.627A1.612,1.612,0,0,1,1.608,5.019m10.45,6.431A4.021,4.021,0,1,1,8.039,7.431a4.024,4.024,0,0,1,4.019,4.019M8.039,9.039A2.484,2.484,0,0,0,5.627,11.45a2.484,2.484,0,0,0,2.412,2.412A2.484,2.484,0,0,0,10.45,11.45,2.484,2.484,0,0,0,8.039,9.039m6.431-4.019H12.058V3.412h2.412V1h1.608V3.412h2.412V5.019H16.077V7.431H14.469" transform="translate(0 -1)" fill="#919191"/></svg>