<svg xmlns="http://www.w3.org/2000/svg" width="7.689" height="6.243" viewBox="0 0 7.689 6.243"><g transform="translate(0 0)"><path d="M6.786,29.946H.9a.906.906,0,0,1-.9-.908V25.654a.906.906,0,0,1,.9-.908h.4a.5.5,0,0,0,.173-.031.509.509,0,0,0,.275-.24l.12-.227a1.02,1.02,0,0,1,.9-.545H4.918a1.019,1.019,0,0,1,.9.545l.12.227a.507.507,0,0,0,.448.271h.4a.906.906,0,0,1,.9.908v3.384a.909.909,0,0,1-.4.756A.893.893,0,0,1,6.786,29.946ZM.9,25.087a.564.564,0,0,0-.561.567v3.384A.564.564,0,0,0,.9,29.6H6.786a.553.553,0,0,0,.31-.094.568.568,0,0,0,.251-.472V25.654a.564.564,0,0,0-.561-.567h-.4a.847.847,0,0,1-.75-.453l-.12-.227a.679.679,0,0,0-.6-.363H2.77a.678.678,0,0,0-.6.363l-.12.227a.848.848,0,0,1-.75.453Z" transform="translate(0 -23.703)"/><path d="M68.066,81.968a1.839,1.839,0,0,1-.678-3.544,1.8,1.8,0,0,1,.678-.131,1.84,1.84,0,0,1,1.29,3.136A1.805,1.805,0,0,1,68.066,81.968Zm0-3.333a1.47,1.47,0,0,0-1.048.438,1.5,1.5,0,0,0,1.048,2.554,1.466,1.466,0,0,0,1.048-.438,1.5,1.5,0,0,0-1.048-2.554Z" transform="translate(-64.221 -76.628)"/><ellipse cx="0.276" cy="0.279" rx="0.276" ry="0.279" transform="translate(6.147 1.889)"/></g></svg>