<svg xmlns="http://www.w3.org/2000/svg" width="5.586" height="4.536" viewBox="0 0 5.586 4.536"><g transform="translate(126.036 102.333)"><g transform="translate(-126.036 -102.333)"><path d="M4.931,28.239H.656A.659.659,0,0,1,0,27.579V25.12a.659.659,0,0,1,.656-.66H.945a.366.366,0,0,0,.126-.022.37.37,0,0,0,.2-.175l.087-.165a.741.741,0,0,1,.655-.4H3.574a.741.741,0,0,1,.655.4l.087.165a.368.368,0,0,0,.325.2h.289a.659.659,0,0,1,.656.66v2.459a.66.66,0,0,1-.292.549A.649.649,0,0,1,4.931,28.239ZM.656,24.709a.41.41,0,0,0-.407.412v2.459a.41.41,0,0,0,.407.412H4.931a.4.4,0,0,0,.225-.069.412.412,0,0,0,.182-.343V25.12a.41.41,0,0,0-.407-.412H4.642A.616.616,0,0,1,4.1,24.38l-.087-.165a.493.493,0,0,0-.436-.264H2.013a.493.493,0,0,0-.436.264l-.087.165a.616.616,0,0,1-.545.329Z" transform="translate(0 -23.703)"/><path d="M67.567,80.964a1.337,1.337,0,0,1-.493-2.575,1.31,1.31,0,0,1,.493-.1,1.337,1.337,0,0,1,.937,2.279A1.312,1.312,0,0,1,67.567,80.964Zm0-2.422a1.068,1.068,0,0,0-.761.318,1.089,1.089,0,0,0,.761,1.855,1.065,1.065,0,0,0,.761-.318,1.089,1.089,0,0,0-.761-1.855Z" transform="translate(-64.774 -77.084)"/><ellipse cx="0.201" cy="0.202" rx="0.201" ry="0.202" transform="translate(4.466 1.372)"/></g></g></svg>