<svg xmlns="http://www.w3.org/2000/svg" width="15" height="13.696" viewBox="0 0 15 13.696"><path d="M1.3,4.261H3.391l1.174-1.3H8.478v1.3H5.152l-1.239,1.3H1.3v7.826H11.739V7.522h1.3v5.87a1.308,1.308,0,0,1-1.3,1.3H1.3a1.308,1.308,0,0,1-1.3-1.3V5.565a1.308,1.308,0,0,1,1.3-1.3M9.783,9.478A3.263,3.263,0,1,1,6.522,6.217,3.264,3.264,0,0,1,9.783,9.478M6.522,7.522A2.015,2.015,0,0,0,4.565,9.478a2.015,2.015,0,0,0,1.957,1.957A2.015,2.015,0,0,0,8.478,9.478,2.015,2.015,0,0,0,6.522,7.522m5.217-3.261H9.783v-1.3h1.957V1h1.3V2.957H15v1.3H13.043V6.217h-1.3" transform="translate(0 -1)" fill="#919191"/></svg>