<svg xmlns="http://www.w3.org/2000/svg" width="9.987" height="14.468" viewBox="0 0 9.987 14.468"><g transform="translate(-9.881 0.042)"><path d="M19.866,3.29a.223.223,0,0,0-.013-.063c0-.006,0-.013-.007-.019a.222.222,0,0,0-.044-.065L18.256,1.591,17.191.524C16.975.31,16.834.168,16.734.08l0-.006h0c-.14-.122-.2-.136-.259-.1H10.581a.7.7,0,0,0-.7.7V12.093a.729.729,0,0,0,.215.519.739.739,0,0,0,.518.214h2.969a.226.226,0,1,0,0-.452H10.614a.281.281,0,0,1-.281-.281V.677a.248.248,0,0,1,.248-.248h5.749c.009.515,0,1.943-.011,2.871a.226.226,0,0,0,.226.228h2.873v8.6a.246.246,0,0,1-.072.173.242.242,0,0,1-.173.071h-.1a.226.226,0,1,0,0,.452h.1a.691.691,0,0,0,.492-.2.7.7,0,0,0,.2-.492V3.3S19.866,3.294,19.866,3.29Zm-3.094-.213c.012-1.188.016-1.895.012-2.319.528.527,1.5,1.5,2.315,2.319H16.772Z" transform="translate(0 0)" fill="#878787"/><path d="M31.95,36.471a.226.226,0,0,0-.04-.076,2.259,2.259,0,1,0-3.411.063l-.762,2.612a.226.226,0,0,0,.314.267l.768-.365.483.7a.226.226,0,0,0,.4-.07l.518-1.933.518,1.933a.226.226,0,0,0,.179.164.232.232,0,0,0,.039,0,.226.226,0,0,0,.185-.1l.484-.7.767.361a.226.226,0,0,0,.313-.268Zm-1.774-3.348a1.828,1.828,0,1,1-1.828,1.828A1.83,1.83,0,0,1,30.176,33.123Zm-.78,5.891-.314-.456a.225.225,0,0,0-.283-.076l-.487.231.561-1.922a2.242,2.242,0,0,0,1.013.4Zm2.253-.527a.226.226,0,0,0-.282.076l-.315.454-.494-1.843a2.244,2.244,0,0,0,1-.439l.578,1.983Z" transform="translate(-13.817 -25.344)" fill="#878787"/><path d="M34.7,39.95a1.129,1.129,0,1,0-1.129-1.129A1.129,1.129,0,0,0,34.7,39.95Zm0-1.806a.677.677,0,1,1-.677.677A.678.678,0,0,1,34.7,38.144Z" transform="translate(-18.341 -29.216)" fill="#878787"/></g></svg>