<svg xmlns="http://www.w3.org/2000/svg" width="13.562" height="13.563" viewBox="0 0 13.562 13.563"><g transform="translate(-0.019)"><g transform="translate(0.019)"><path d="M11.591,1.987A6.78,6.78,0,0,0,1.575,11.106a2.594,2.594,0,0,1-1.087,1.2.636.636,0,0,0,.184,1.2,3.5,3.5,0,0,0,.536.04,4.048,4.048,0,0,0,2.386-.791,6.779,6.779,0,0,0,8-10.77Zm-.548,9.041a6.006,6.006,0,0,1-7.289.935.385.385,0,0,0-.47.06.127.127,0,0,0-.032.023,3.311,3.311,0,0,1-2.045.728h0a3.8,3.8,0,0,0,1.164-1.546.4.4,0,0,0,.02-.249.4.4,0,0,0-.095-.218,6.006,6.006,0,1,1,8.749.267Z" transform="translate(-0.019 0)" fill="#878787"/><circle cx="0.476" cy="0.476" r="0.476" transform="translate(6.302 6.306)" fill="#878787"/><circle cx="0.476" cy="0.476" r="0.476" transform="translate(8.756 6.306)" fill="#878787"/><circle cx="0.476" cy="0.476" r="0.476" transform="translate(3.847 6.306)" fill="#878787"/></g></g></svg>