<svg xmlns="http://www.w3.org/2000/svg" width="15.001" height="15" viewBox="0 0 15.001 15"><g transform="translate(126.04 126.036)"><g transform="translate(-126.04 -126.036)"><path d="M113.085,51.028a.333.333,0,0,1-.333-.333V49.9a.333.333,0,0,1,.1-.242l1.275-1.2a1.431,1.431,0,0,0,.4-1v-.047a1.445,1.445,0,0,0-1.483-1.444,1.475,1.475,0,0,0-1.407,1.484.333.333,0,0,1-.667,0,2.146,2.146,0,0,1,2.056-2.151,2.111,2.111,0,0,1,2.167,2.111v.047a2.1,2.1,0,0,1-.6,1.473l-1.18,1.115v.651A.334.334,0,0,1,113.085,51.028Z" transform="translate(-104.369 -42.602)" fill="#fff"/><path d="M137.232,151.7a.642.642,0,0,1-.113-.012.773.773,0,0,1-.11-.033.58.58,0,0,1-.1-.055.524.524,0,0,1-.09-.072.586.586,0,0,1-.17-.412.55.55,0,0,1,.012-.115.508.508,0,0,1,.033-.108.53.53,0,0,1,.053-.1.614.614,0,0,1,.072-.088.628.628,0,0,1,.09-.073.716.716,0,0,1,.1-.053.769.769,0,0,1,.11-.033.588.588,0,0,1,.525.16.529.529,0,0,1,.073.088.535.535,0,0,1,.053.1.509.509,0,0,1,.033.108.539.539,0,0,1,.012.115.586.586,0,0,1-.583.583Z" transform="translate(-128.516 -141.574)" fill="#fff"/><path d="M53.078,12.57a.332.332,0,0,1-.129-.026l-2.381-1a6.288,6.288,0,1,1,1.817-1.817l1,2.381a.334.334,0,0,1-.307.463ZM47.126.667a5.618,5.618,0,1,0,3.213,10.226.332.332,0,0,1,.32-.034l1.8.754-.754-1.8a.334.334,0,0,1,.034-.32A5.617,5.617,0,0,0,47.126.667Z" transform="translate(-38.411)" fill="#fff"/><path d="M.33,91.6a.333.333,0,0,1-.308-.462l1-2.382a6.284,6.284,0,0,1,.2-7.175.333.333,0,1,1,.536.4,5.617,5.617,0,0,0-.088,6.55.333.333,0,0,1,.034.32l-.754,1.8,1.8-.754a.333.333,0,0,1,.32.034,5.618,5.618,0,0,0,6.036.251.333.333,0,0,1,.336.576,6.286,6.286,0,0,1-6.6-.176l-2.381,1A.334.334,0,0,1,.33,91.6Z" transform="translate(0.004 -76.595)" fill="#fff"/></g></g></svg>