<svg xmlns="http://www.w3.org/2000/svg" width="5.803" height="5.803" viewBox="0 0 5.803 5.803"><g transform="translate(126.036 126.036)"><g transform="translate(-126.036 -126.036)"><path d="M4.062,5.8H.575A.576.576,0,0,1,0,5.228V.575A.576.576,0,0,1,.575,0H5.228A.576.576,0,0,1,5.8.575v3.62a.129.129,0,0,1-.258,0V.575A.318.318,0,0,0,5.228.258H.575A.318.318,0,0,0,.258.575V5.228a.318.318,0,0,0,.317.317H4.062a.129.129,0,1,1,0,.258Z" fill="#272626"/><path d="M129.447,130.2a.465.465,0,0,1-.33-.136l-1.368-1.368a.792.792,0,0,1-.2-.327l-.219-.717a.25.25,0,0,1,.312-.312l.717.219h0a.792.792,0,0,1,.327.2l1.368,1.368a.467.467,0,0,1,0,.659l-.282.282A.465.465,0,0,1,129.447,130.2Zm-1.862-2.61.215.7a.534.534,0,0,0,.132.22l1.368,1.368a.208.208,0,0,0,.294,0l.282-.282a.208.208,0,0,0,0-.294l-1.368-1.368a.534.534,0,0,0-.22-.132Z" transform="translate(-124.391 -124.392)" fill="#272626"/><path d="M191.419,192.306a.129.129,0,0,1-.091-.22l.758-.758a.129.129,0,0,1,.182.182l-.758.758A.129.129,0,0,1,191.419,192.306Z" transform="translate(-186.886 -186.886)" fill="#272626"/><path d="M48.186,55H44.692a.129.129,0,0,1,0-.258h3.493a.129.129,0,0,1,0,.258Z" transform="translate(-43.538 -53.481)" fill="#272626"/><path d="M48.186,98.8H44.692a.129.129,0,0,1,0-.258h3.493a.129.129,0,0,1,0,.258Z" transform="translate(-43.538 -96.269)" fill="#272626"/><path d="M45.665,142.589h-.973a.129.129,0,0,1,0-.258h.973a.129.129,0,1,1,0,.258Z" transform="translate(-43.538 -139.054)" fill="#272626"/><path d="M46.3,186.382h-1.6a.129.129,0,1,1,0-.258h1.6a.129.129,0,1,1,0,.258Z" transform="translate(-43.538 -181.84)" fill="#272626"/></g></g></svg>