<svg xmlns="http://www.w3.org/2000/svg" width="9.007" height="9.007" viewBox="0 0 9.007 9.007"><g transform="translate(126.036 126.036)"><g transform="translate(-126.036 -126.036)"><path d="M6.346,9.007H.809A.81.81,0,0,1,0,8.2V.809A.81.81,0,0,1,.809,0H8.2a.81.81,0,0,1,.809.809V6.557a.1.1,0,1,1-.2,0V.809A.609.609,0,0,0,8.2.2H.809A.609.609,0,0,0,.2.809V8.2a.609.609,0,0,0,.608.608H6.346a.1.1,0,1,1,0,.2Z" fill="#878787"/><path d="M133.553,134.633a.633.633,0,0,1-.449-.186l-2.173-2.173a1.153,1.153,0,0,1-.286-.476l-.348-1.139a.292.292,0,0,1,.365-.365l1.139.348a1.153,1.153,0,0,1,.476.286l2.173,2.173a.636.636,0,0,1,0,.9l-.447.447A.633.633,0,0,1,133.553,134.633Zm-2.978-4.151a.092.092,0,0,0-.064.027.09.09,0,0,0-.023.092l.348,1.139a.954.954,0,0,0,.236.393l2.173,2.173a.436.436,0,0,0,.615,0l.447-.447a.436.436,0,0,0,0-.615l-2.173-2.173a.952.952,0,0,0-.393-.236h0l-1.139-.348A.1.1,0,0,0,130.575,130.482Z" transform="translate(-125.629 -125.627)" fill="#878787"/><path d="M195.836,197.141a.1.1,0,0,1-.071-.171l1.2-1.2a.1.1,0,0,1,.142.142l-1.2,1.2A.1.1,0,0,1,195.836,197.141Z" transform="translate(-188.742 -188.742)" fill="#878787"/><path d="M51.248,56.216H45.7a.1.1,0,0,1,0-.2h5.548a.1.1,0,0,1,0,.2Z" transform="translate(-43.97 -54.014)" fill="#878787"/><path d="M51.248,101.029H45.7a.1.1,0,0,1,0-.2h5.548a.1.1,0,0,1,0,.2Z" transform="translate(-43.97 -97.226)" fill="#878787"/><path d="M47.245,145.842H45.7a.1.1,0,1,1,0-.2h1.545a.1.1,0,1,1,0,.2Z" transform="translate(-43.97 -140.438)" fill="#878787"/><path d="M48.246,190.655H45.7a.1.1,0,1,1,0-.2h2.546a.1.1,0,0,1,0,.2Z" transform="translate(-43.97 -183.649)" fill="#878787"/></g></g></svg>