<svg xmlns="http://www.w3.org/2000/svg" width="6.05" height="6.05" viewBox="0 0 6.05 6.05"><g transform="translate(0 0)"><path d="M4.234,6.05H.6a.6.6,0,0,1-.6-.6V.6A.6.6,0,0,1,.6,0H5.451a.6.6,0,0,1,.6.6V4.373a.134.134,0,0,1-.269,0V.6A.331.331,0,0,0,5.451.269H.6A.331.331,0,0,0,.269.6V5.451A.331.331,0,0,0,.6,5.781H4.234a.134.134,0,1,1,0,.269Z" fill="#272626"/><path d="M129.537,130.318a.484.484,0,0,1-.344-.142l-1.426-1.426a.825.825,0,0,1-.2-.341l-.229-.748a.26.26,0,0,1,.325-.325l.748.229h0a.826.826,0,0,1,.341.2l1.426,1.426a.487.487,0,0,1,0,.687l-.294.294A.485.485,0,0,1,129.537,130.318ZM127.6,127.6l.224.733a.557.557,0,0,0,.138.23l1.426,1.426a.217.217,0,0,0,.307,0l.294-.294a.217.217,0,0,0,0-.307l-1.426-1.426a.557.557,0,0,0-.23-.138Z" transform="translate(-124.267 -124.268)" fill="#272626"/><path d="M191.424,192.349a.134.134,0,0,1-.1-.229l.791-.791a.134.134,0,0,1,.19.19l-.791.791A.134.134,0,0,1,191.424,192.349Z" transform="translate(-186.699 -186.699)" fill="#272626"/><path d="M48.34,55.011H44.7a.134.134,0,0,1,0-.269H48.34a.134.134,0,0,1,0,.269Z" transform="translate(-43.494 -53.428)" fill="#272626"/><path d="M48.34,98.807H44.7a.134.134,0,1,1,0-.269H48.34a.134.134,0,1,1,0,.269Z" transform="translate(-43.494 -96.173)" fill="#272626"/><path d="M45.712,142.6H44.7a.134.134,0,1,1,0-.269h1.014a.134.134,0,1,1,0,.269Z" transform="translate(-43.494 -138.915)" fill="#272626"/><path d="M46.369,186.393H44.7a.134.134,0,1,1,0-.269h1.671a.134.134,0,1,1,0,.269Z" transform="translate(-43.494 -181.657)" fill="#272626"/></g></svg>