<svg xmlns="http://www.w3.org/2000/svg" width="8.895" height="8.895" viewBox="0 0 8.895 8.895"><g transform="translate(126.036 126.036)"><g transform="translate(-126.036 -126.036)"><path d="M6.226,8.9H.882A.883.883,0,0,1,0,8.014V.882A.883.883,0,0,1,.882,0H8.014A.883.883,0,0,1,8.9.882V6.43a.2.2,0,0,1-.4,0V.882A.487.487,0,0,0,8.014.4H.882A.487.487,0,0,0,.4.882V8.014A.487.487,0,0,0,.882,8.5H6.226a.2.2,0,1,1,0,.4Z" fill="#fff"/><path d="M130.579,131.725a.712.712,0,0,1-.505-.209l-2.1-2.1a1.214,1.214,0,0,1-.3-.5l-.336-1.1a.383.383,0,0,1,.478-.478l1.1.336h0a1.214,1.214,0,0,1,.5.3l2.1,2.1a.715.715,0,0,1,0,1.01l-.432.432A.712.712,0,0,1,130.579,131.725Zm-2.854-4,.329,1.077a.818.818,0,0,0,.2.338l2.1,2.1a.32.32,0,0,0,.451,0l.432-.432a.319.319,0,0,0,0-.451l-2.1-2.1a.818.818,0,0,0-.338-.2Z" transform="translate(-122.829 -122.831)" fill="#fff"/><path d="M191.487,192.848a.2.2,0,0,1-.14-.337l1.163-1.163a.2.2,0,0,1,.28.28l-1.163,1.163A.2.2,0,0,1,191.487,192.848Z" transform="translate(-184.539 -184.539)" fill="#fff"/><path d="M50.116,55.137H44.761a.2.2,0,0,1,0-.4h5.355a.2.2,0,0,1,0,.4Z" transform="translate(-42.991 -52.81)" fill="#fff"/><path d="M50.116,98.933H44.761a.2.2,0,0,1,0-.4h5.355a.2.2,0,0,1,0,.4Z" transform="translate(-42.991 -95.061)" fill="#fff"/><path d="M46.252,142.726H44.761a.2.2,0,1,1,0-.4h1.491a.2.2,0,1,1,0,.4Z" transform="translate(-42.991 -137.308)" fill="#fff"/><path d="M47.218,186.52H44.761a.2.2,0,1,1,0-.4h2.457a.2.2,0,1,1,0,.4Z" transform="translate(-42.991 -179.556)" fill="#fff"/></g></g></svg>