<svg xmlns="http://www.w3.org/2000/svg" width="10.895" height="10.895" viewBox="0 0 10.895 10.895"><g transform="translate(126.036 126.036)"><g transform="translate(-126.036 -126.036)"><path d="M7.625,10.9H1.08A1.081,1.081,0,0,1,0,9.816V1.08A1.081,1.081,0,0,1,1.08,0H9.816A1.081,1.081,0,0,1,10.9,1.08v6.8a.242.242,0,1,1-.484,0V1.08a.6.6,0,0,0-.6-.6H1.08a.6.6,0,0,0-.6.6V9.816a.6.6,0,0,0,.6.6H7.625a.242.242,0,1,1,0,.484Z" fill="#878787"/><path d="M131.311,132.715a.872.872,0,0,1-.619-.256l-2.568-2.568a1.487,1.487,0,0,1-.369-.614l-.412-1.347a.469.469,0,0,1,.586-.586l1.347.411h0a1.487,1.487,0,0,1,.614.369l2.568,2.568a.876.876,0,0,1,0,1.237l-.529.529A.873.873,0,0,1,131.311,132.715Zm-3.5-4.9.4,1.32a1,1,0,0,0,.248.413l2.568,2.568a.391.391,0,0,0,.553,0l.529-.529a.391.391,0,0,0,0-.553l-2.568-2.568a1,1,0,0,0-.413-.248Z" transform="translate(-121.819 -121.82)" fill="#878787"/><path d="M191.532,193.2a.242.242,0,0,1-.171-.413l1.424-1.424a.242.242,0,0,1,.342.342l-1.424,1.424A.242.242,0,0,1,191.532,193.2Z" transform="translate(-183.022 -183.022)" fill="#878787"/><path d="M51.364,55.226H44.806a.242.242,0,0,1,0-.484h6.559a.242.242,0,0,1,0,.484Z" transform="translate(-42.637 -52.376)" fill="#878787"/><path d="M51.364,99.022H44.806a.242.242,0,0,1,0-.484h6.559a.242.242,0,0,1,0,.484Z" transform="translate(-42.637 -94.279)" fill="#878787"/><path d="M46.632,142.815H44.806a.242.242,0,0,1,0-.484h1.826a.242.242,0,0,1,0,.484Z" transform="translate(-42.637 -136.179)" fill="#878787"/><path d="M47.815,186.609h-3.01a.242.242,0,0,1,0-.484h3.01a.242.242,0,1,1,0,.484Z" transform="translate(-42.637 -178.08)" fill="#878787"/></g></g></svg>