<svg xmlns="http://www.w3.org/2000/svg" width="12.356" height="10.786" viewBox="0 0 12.356 10.786"><g transform="translate(126.032 110.013)"><g transform="translate(-126.032 -110.013)"><path d="M1.155,21.675l.017-.005a.267.267,0,0,0,.035-.019l.012-.007a.277.277,0,0,0,.042-.034L2.34,20.532a.275.275,0,0,0-.388-.388L1.4,20.7a4.845,4.845,0,0,1,9.191-1.311.275.275,0,1,0,.5-.23A5.393,5.393,0,0,0,.863,20.552l-.35-.575a.275.275,0,1,0-.469.285l.789,1.3,0,0a.266.266,0,0,0,.029.037l.007.009a.284.284,0,0,0,.044.036l.013.007a.274.274,0,0,0,.038.019l.019.006a.264.264,0,0,0,.037.009l.009,0,.033,0a.274.274,0,0,0,.054-.005A.251.251,0,0,0,1.155,21.675Z" transform="translate(-0.004 -16.023)" fill="#fff"/><path d="M35.282,121.863l-.789-1.3,0,0a.265.265,0,0,0-.028-.036l-.008-.009a.277.277,0,0,0-.044-.036l-.014-.007a.27.27,0,0,0-.038-.019l-.02-.006a.272.272,0,0,0-.037-.009l-.01,0h-.014l-.018,0-.016,0-.025,0-.033.008-.023.007a.274.274,0,0,0-.034.016l-.017.009a.275.275,0,0,0-.045.036l-1.079,1.079a.275.275,0,0,0,.388.388l.557-.557a4.845,4.845,0,0,1-9.253,1.169.275.275,0,1,0-.506.214,5.393,5.393,0,0,0,10.292-1.235l.35.576a.275.275,0,1,0,.469-.286Z" transform="translate(-22.965 -115.316)" fill="#fff"/></g></g></svg>