<svg xmlns="http://www.w3.org/2000/svg" width="5.308" height="6.629" viewBox="0 0 5.308 6.629"><g transform="translate(-48.65)"><g transform="translate(48.65)"><path d="M52.256,85.4H49.174a.524.524,0,0,0-.524.524v4.422a.524.524,0,0,0,.524.524h3.082a.524.524,0,0,0,.524-.524V85.924A.526.526,0,0,0,52.256,85.4Zm.156,4.945a.158.158,0,0,1-.157.157H49.173a.158.158,0,0,1-.157-.157V85.924a.158.158,0,0,1,.157-.157h3.082a.158.158,0,0,1,.157.157Z" transform="translate(-48.65 -84.241)"/><path d="M139.056,0h-3.082a.524.524,0,0,0-.524.524.183.183,0,1,0,.367,0,.158.158,0,0,1,.157-.157h3.082a.158.158,0,0,1,.157.157V4.946a.158.158,0,0,1-.157.157.183.183,0,0,0,0,.367.524.524,0,0,0,.524-.524V.524A.524.524,0,0,0,139.056,0Z" transform="translate(-134.272)"/></g></g></svg>