<svg xmlns="http://www.w3.org/2000/svg" width="9.928" height="9.928" viewBox="0 0 9.928 9.928"><g transform="translate(126.036 126.036)"><g transform="translate(-126.036 -126.036)"><path d="M3.756,4.593H.837A.838.838,0,0,1,0,3.756V.837A.838.838,0,0,1,.837,0H3.756a.838.838,0,0,1,.837.837V3.756A.838.838,0,0,1,3.756,4.593ZM.837.441a.4.4,0,0,0-.4.4V3.756a.4.4,0,0,0,.4.4H3.756a.4.4,0,0,0,.4-.4V.837a.4.4,0,0,0-.4-.4Z" fill="#fff"/><path d="M139.206,4.593h-2.919a.838.838,0,0,1-.837-.837V.837A.838.838,0,0,1,136.286,0h2.919a.838.838,0,0,1,.837.837V3.756A.838.838,0,0,1,139.206,4.593ZM136.286.441a.4.4,0,0,0-.4.4V3.756a.4.4,0,0,0,.4.4h2.919a.4.4,0,0,0,.4-.4V.837a.4.4,0,0,0-.4-.4Z" transform="translate(-130.115)" fill="#fff"/><path d="M3.756,140.043H.837A.838.838,0,0,1,0,139.206v-2.919a.838.838,0,0,1,.837-.837H3.756a.838.838,0,0,1,.837.837v2.919A.838.838,0,0,1,3.756,140.043ZM.837,135.891a.4.4,0,0,0-.4.4v2.919a.4.4,0,0,0,.4.4H3.756a.4.4,0,0,0,.4-.4v-2.919a.4.4,0,0,0-.4-.4Z" transform="translate(0 -130.115)" fill="#fff"/><path d="M139.206,140.043h-2.919a.838.838,0,0,1-.837-.837v-2.919a.838.838,0,0,1,.837-.837h2.919a.838.838,0,0,1,.837.837v2.919A.838.838,0,0,1,139.206,140.043Zm-2.919-4.152a.4.4,0,0,0-.4.4v2.919a.4.4,0,0,0,.4.4h2.919a.4.4,0,0,0,.4-.4v-2.919a.4.4,0,0,0-.4-.4Z" transform="translate(-130.115 -130.115)" fill="#fff"/></g></g></svg>