<svg xmlns="http://www.w3.org/2000/svg" width="5.564" height="6.091" viewBox="0 0 5.564 6.091"><path d="M248.948,191.972a.372.372,0,0,0,.046,0l1.28-.225a.071.071,0,0,0,.04-.021l3.228-3.228a.076.076,0,0,0,0-.108l-1.266-1.266a.078.078,0,0,0-.109,0l-3.227,3.227a.074.074,0,0,0-.021.04l-.225,1.281a.258.258,0,0,0,.253.3Zm.513-1.328,2.762-2.761.558.558-2.762,2.761-.677.12.119-.678Zm3.212,2.546h-4.331a.343.343,0,0,1,0-.685h4.331a.343.343,0,0,1,0,.685Z" transform="translate(-248 -187.1)" fill="#fff"/></svg>