<svg xmlns="http://www.w3.org/2000/svg" width="6.919" height="4.284" viewBox="0 0 6.919 4.284"><g transform="translate(0 0)"><path d="M3.46,52.276h0A4.67,4.67,0,0,1,.036,50.232a.154.154,0,0,1,0-.2A4.67,4.67,0,0,1,3.46,47.992a4.671,4.671,0,0,1,3.424,2.044.154.154,0,0,1,0,.2A4.671,4.671,0,0,1,3.46,52.276Zm-3.1-2.142a4.3,4.3,0,0,0,3.1,1.835,4.3,4.3,0,0,0,3.1-1.835A4.3,4.3,0,0,0,3.46,48.3,4.3,4.3,0,0,0,.355,50.134Z" transform="translate(0 -47.992)" fill="#272626"/><path d="M74,75.472A1.469,1.469,0,1,1,75.472,74,1.47,1.47,0,0,1,74,75.472Zm0-2.63A1.161,1.161,0,1,0,75.165,74,1.162,1.162,0,0,0,74,72.843Z" transform="translate(-70.544 -71.861)" fill="#272626"/></g></svg>