<svg xmlns="http://www.w3.org/2000/svg" width="12.582" height="7.791" viewBox="0 0 12.582 7.791"><g transform="translate(126.036 78.044)"><g transform="translate(-126.036 -78.044)"><path d="M6.291,55.782h0c-2.081,0-4.176-1.25-6.226-3.717a.28.28,0,0,1,0-.357c2.05-2.466,4.145-3.717,6.226-3.717s4.176,1.25,6.226,3.717a.28.28,0,0,1,0,.357C10.467,54.532,8.372,55.782,6.291,55.782Zm-5.646-3.9c1.889,2.214,3.788,3.336,5.646,3.336s3.757-1.122,5.646-3.336c-1.889-2.214-3.788-3.336-5.646-3.336S2.534,49.673.645,51.887Z" transform="translate(0 -47.992)" fill="#fff"/><path d="M75.206,77.876a2.67,2.67,0,1,1,2.671-2.671A2.673,2.673,0,0,1,75.206,77.876Zm0-4.782a2.111,2.111,0,1,0,2.111,2.111A2.114,2.114,0,0,0,75.206,73.094Z" transform="translate(-68.915 -71.31)" fill="#fff"/></g></g></svg>