<svg xmlns="http://www.w3.org/2000/svg" width="6.46" height="4" viewBox="0 0 6.46 4"><g transform="translate(126.036 78.044)"><g transform="translate(-126.036 -78.044)"><path d="M3.23,51.992h0a4.36,4.36,0,0,1-3.2-1.908.144.144,0,0,1,0-.184,4.36,4.36,0,0,1,3.2-1.908,4.36,4.36,0,0,1,3.2,1.908.144.144,0,0,1,0,.184A4.36,4.36,0,0,1,3.23,51.992Zm-2.9-2A4.014,4.014,0,0,0,3.23,51.7a4.014,4.014,0,0,0,2.9-1.713,4.014,4.014,0,0,0-2.9-1.713A4.014,4.014,0,0,0,.331,49.992Z" transform="translate(0 -47.992)" fill="#272626"/><path d="M73.906,75.277a1.371,1.371,0,1,1,1.371-1.371A1.373,1.373,0,0,1,73.906,75.277Zm0-2.455a1.084,1.084,0,1,0,1.084,1.084A1.085,1.085,0,0,0,73.906,72.822Z" transform="translate(-70.676 -71.906)" fill="#272626"/></g></g></svg>