<svg xmlns="http://www.w3.org/2000/svg" width="8.274" height="5.123" viewBox="0 0 8.274 5.123"><g transform="translate(126.036 78.044)"><g transform="translate(-126.036 -78.044)"><path d="M4.137,53.115h0c-1.369,0-2.746-.822-4.095-2.444a.184.184,0,0,1,0-.235c1.348-1.622,2.726-2.444,4.095-2.444s2.746.822,4.095,2.444a.184.184,0,0,1,0,.235C6.883,52.293,5.506,53.115,4.137,53.115ZM.424,50.553c1.242,1.456,2.491,2.194,3.713,2.194s2.47-.738,3.713-2.194C6.607,49.1,5.359,48.359,4.137,48.359S1.667,49.1.424,50.553Z" transform="translate(0 -47.992)" fill="#272626"/><path d="M74.291,76.047a1.756,1.756,0,1,1,1.756-1.756A1.758,1.758,0,0,1,74.291,76.047Zm0-3.145a1.388,1.388,0,1,0,1.388,1.388A1.39,1.39,0,0,0,74.291,72.9Z" transform="translate(-70.154 -71.729)" fill="#272626"/></g></g></svg>