<svg xmlns="http://www.w3.org/2000/svg" width="12.762" height="14.464" viewBox="0 0 12.762 14.464"><g transform="translate(0 0)"><path d="M37.306,154.692a.322.322,0,0,1-.321-.321v-5.285a.321.321,0,0,1,.643,0v5.285A.321.321,0,0,1,37.306,154.692Z" transform="translate(-35.713 -140.228)" fill="#878787"/><path d="M204.206,9.539a.322.322,0,0,1-.321-.321V.321a.321.321,0,0,1,.643,0v8.9A.321.321,0,0,1,204.206,9.539Z" transform="translate(-193.036)" fill="#878787"/><path d="M120.756,82.9a.322.322,0,0,1-.321-.321V72.924a.321.321,0,1,1,.643,0v9.655A.322.322,0,0,1,120.756,82.9Z" transform="translate(-114.375 -68.436)" fill="#878787"/><path d="M99.873,31.479a1.593,1.593,0,1,1,1.593-1.593A1.594,1.594,0,0,1,99.873,31.479Zm0-2.542a.95.95,0,1,0,.95.95A.951.951,0,0,0,99.873,28.937Z" transform="translate(-93.492 -26.67)" fill="#878787"/><path d="M16.423,107.641a1.593,1.593,0,1,1,1.593-1.593A1.594,1.594,0,0,1,16.423,107.641Zm0-2.542a.95.95,0,1,0,.95.95A.951.951,0,0,0,16.423,105.1Z" transform="translate(-14.83 -98.462)" fill="#878787"/><path d="M183.325,158.232a1.593,1.593,0,1,1,1.593-1.593A1.594,1.594,0,0,1,183.325,158.232Zm0-2.542a.95.95,0,1,0,.95.95A.951.951,0,0,0,183.325,155.689Z" transform="translate(-172.156 -146.15)" fill="#878787"/><path d="M37.306,6.637a.322.322,0,0,1-.321-.321V.321a.321.321,0,1,1,.643,0V6.315A.321.321,0,0,1,37.306,6.637Z" transform="translate(-35.713)" fill="#878787"/><path d="M120.756,2.267a.322.322,0,0,1-.321-.321V.321a.321.321,0,1,1,.643,0V1.945A.322.322,0,0,1,120.756,2.267Z" transform="translate(-114.375)" fill="#878787"/><path d="M204.206,202.378a.322.322,0,0,1-.321-.321v-2.382a.321.321,0,1,1,.643,0v2.382A.322.322,0,0,1,204.206,202.378Z" transform="translate(-193.036 -187.914)" fill="#878787"/></g></svg>