<svg xmlns="http://www.w3.org/2000/svg" width="10.236" height="11.601" viewBox="0 0 10.236 11.601"><g transform="translate(0 0)"><path d="M37.242,153.519a.258.258,0,0,1-.258-.258v-4.239a.258.258,0,0,1,.516,0v4.239A.258.258,0,0,1,37.242,153.519Z" transform="translate(-35.965 -141.918)"/><path d="M204.142,7.651a.258.258,0,0,1-.258-.258V.258a.258.258,0,0,1,.516,0V7.393A.258.258,0,0,1,204.142,7.651Z" transform="translate(-195.184)"/><path d="M120.692,80.862a.258.258,0,0,1-.258-.258V72.86a.258.258,0,1,1,.516,0V80.6A.258.258,0,0,1,120.692,80.862Z" transform="translate(-115.574 -69.261)"/><path d="M99.557,30.848a1.277,1.277,0,1,1,1.277-1.277A1.279,1.279,0,0,1,99.557,30.848Zm0-2.039a.762.762,0,1,0,.762.762A.763.763,0,0,0,99.557,28.809Z" transform="translate(-94.44 -26.992)"/><path d="M16.108,107.011a1.277,1.277,0,1,1,1.277-1.277A1.279,1.279,0,0,1,16.108,107.011Zm0-2.039a.762.762,0,1,0,.762.762A.763.763,0,0,0,16.108,104.971Z" transform="translate(-14.83 -99.649)"/><path d="M183.01,157.6a1.277,1.277,0,1,1,1.277-1.277A1.279,1.279,0,0,1,183.01,157.6Zm0-2.039a.762.762,0,1,0,.762.762A.762.762,0,0,0,183.01,155.562Z" transform="translate(-174.052 -147.911)"/><path d="M37.242,5.323a.258.258,0,0,1-.258-.258V.258a.258.258,0,1,1,.516,0V5.065A.258.258,0,0,1,37.242,5.323Z" transform="translate(-35.965)"/><path d="M120.692,1.818a.258.258,0,0,1-.258-.258V.258a.258.258,0,1,1,.516,0v1.3A.258.258,0,0,1,120.692,1.818Z" transform="translate(-115.574)"/><path d="M204.142,201.779a.258.258,0,0,1-.258-.258V199.61a.258.258,0,0,1,.516,0v1.911A.258.258,0,0,1,204.142,201.779Z" transform="translate(-195.184 -190.178)"/></g></svg>