<svg xmlns="http://www.w3.org/2000/svg" width="11.811" height="11.811" viewBox="0 0 11.811 11.811"><g transform="translate(126.036 126.036)"><g transform="translate(-126.036 -126.036)"><path d="M5.906,0a5.906,5.906,0,1,0,5.906,5.906A5.912,5.912,0,0,0,5.906,0ZM.532,6.168h2.1a10.114,10.114,0,0,0,.3,2.244H1.146A5.341,5.341,0,0,1,.532,6.168ZM6.168,2.875V.551C6.984.71,7.708,1.6,8.162,2.875H6.168ZM8.327,3.4a9.372,9.372,0,0,1,.325,2.243H6.168V3.4ZM5.643.551V2.875H3.649C4.1,1.6,4.827.71,5.643.551Zm0,2.848V5.643H3.159A9.373,9.373,0,0,1,3.484,3.4ZM2.634,5.643H.532A5.34,5.34,0,0,1,1.146,3.4H2.93A10.1,10.1,0,0,0,2.634,5.643Zm.525.525H5.643V8.412H3.484A9.379,9.379,0,0,1,3.159,6.168ZM5.643,8.936V11.26C4.827,11.1,4.1,10.209,3.649,8.936H5.643Zm.525,2.323V8.936H8.162C7.708,10.209,6.984,11.1,6.168,11.26Zm0-2.848V6.168H8.652a9.373,9.373,0,0,1-.325,2.244ZM9.177,6.168h2.1a5.341,5.341,0,0,1-.615,2.244H8.881A10.114,10.114,0,0,0,9.177,6.168Zm0-.525a10.112,10.112,0,0,0-.3-2.243h1.783a5.341,5.341,0,0,1,.615,2.243Zm1.171-2.768H8.73A5.422,5.422,0,0,0,7.561.787,5.4,5.4,0,0,1,10.348,2.875ZM4.25.787A5.425,5.425,0,0,0,3.081,2.875H1.463A5.4,5.4,0,0,1,4.25.787ZM1.463,8.936H3.081A5.424,5.424,0,0,0,4.25,11.025,5.4,5.4,0,0,1,1.463,8.936Zm6.1,2.088A5.424,5.424,0,0,0,8.73,8.936h1.618A5.4,5.4,0,0,1,7.561,11.024Z"/></g></g></svg>