<svg xmlns="http://www.w3.org/2000/svg" width="11.569" height="11.569" viewBox="0 0 11.569 11.569"><g transform="translate(126.036 126.035)"><g transform="translate(-126.036 -126.035)"><path d="M9.977,11.57H7.309a.193.193,0,0,1-.193-.193V8.006a.779.779,0,0,0-.76-.794H5.213a.779.779,0,0,0-.761.794v3.372a.193.193,0,0,1-.193.193H1.593a.193.193,0,0,1-.193-.193V4.711H.193a.193.193,0,0,1-.118-.345L5.667.042a.193.193,0,0,1,.236,0l5.592,4.324a.193.193,0,0,1-.118.345H10.17v6.667A.193.193,0,0,1,9.977,11.57ZM7.5,11.185H9.784V4.518a.193.193,0,0,1,.193-.193h.835L5.785.438.758,4.325h.835a.193.193,0,0,1,.193.193v6.667H4.067V8.006A1.164,1.164,0,0,1,5.213,6.826H6.356A1.164,1.164,0,0,1,7.5,8.006v3.179Z" transform="translate(0 -0.001)" fill="#fff"/></g></g></svg>