<svg xmlns="http://www.w3.org/2000/svg" width="11.16" height="11.16" viewBox="0 0 11.16 11.16"><g transform="translate(11.16 5.605) rotate(135)"><g transform="translate(0 0)"><path d="M7.1,7.378a2.218,2.218,0,0,1-3.24-2.994L.036.559a.124.124,0,0,1,0-.176L.309.111a.124.124,0,0,1,.176,0L.947.574,1.1.425,1.484.036a.124.124,0,0,1,.176,0l.272.272a.124.124,0,0,1,0,.176L1.618.8l.595.595.314-.314a.124.124,0,0,1,.176,0l.272.272a.124.124,0,0,1,0,.176l-.389.389-.148.148L4.309,3.936A2.218,2.218,0,0,1,7.1,7.378Zm-.211-2.63a1.58,1.58,0,1,0,0,1.925A1.581,1.581,0,0,0,6.889,4.748Z" fill="#878787"/></g></g></svg>