<svg xmlns="http://www.w3.org/2000/svg" width="11.809" height="16.326" viewBox="0 0 11.809 16.326"><g transform="translate(91.169 126.036)"><g transform="translate(-91.169 -126.036)"><path d="M105.848,131.559a1.4,1.4,0,0,1-1.4-1.4v-.613a1.4,1.4,0,1,1,2.8,0v.613A1.4,1.4,0,0,1,105.848,131.559Zm0-3.046a1.037,1.037,0,0,0-1.035,1.035v.613a1.035,1.035,0,0,0,2.07,0v-.613A1.036,1.036,0,0,0,105.848,128.513Z" transform="translate(-99.944 -119.851)" fill="#272626"/><path d="M96.957,178.13H93.02a.181.181,0,0,1-.181-.181v-1.026a1.743,1.743,0,0,1,1.741-1.741H95.4a1.743,1.743,0,0,1,1.741,1.741v1.026A.181.181,0,0,1,96.957,178.13Zm-3.756-.363h3.575v-.844a1.38,1.38,0,0,0-1.378-1.378h-.818a1.38,1.38,0,0,0-1.378,1.378Z" transform="translate(-89.084 -163.836)" fill="#272626"/><path d="M45.344,106.638H36.2a1.335,1.335,0,0,1-1.333-1.333V97.9A1.335,1.335,0,0,1,36.2,96.566h9.143A1.335,1.335,0,0,1,46.677,97.9V105.3A1.335,1.335,0,0,1,45.344,106.638ZM36.2,96.929a.971.971,0,0,0-.97.97V105.3a.971.971,0,0,0,.97.97h9.143a.971.971,0,0,0,.97-.97V97.9a.971.971,0,0,0-.97-.97Z" transform="translate(-34.867 -90.312)" fill="#272626"/><path d="M71.065,6.617a.181.181,0,0,1-.181-.181V3.756A3.4,3.4,0,0,0,67.491.363H66.85a3.4,3.4,0,0,0-3.393,3.393V6.436a.181.181,0,1,1-.363,0V3.756A3.76,3.76,0,0,1,66.85,0h.641a3.76,3.76,0,0,1,3.756,3.756V6.436A.181.181,0,0,1,71.065,6.617Z" transform="translate(-61.265)" fill="#272626"/></g></g></svg>