<svg xmlns="http://www.w3.org/2000/svg" width="217" height="73.056" viewBox="0 0 217 73.056"><g transform="translate(155.4 -342.7)"><path d="M-143.261,400.006a9.755,9.755,0,0,0,2.89-.433v3.035h-.217v-.434a1.435,1.435,0,0,0-1.373-1.445h-4.48v14.235a1.513,1.513,0,0,0,1.517,1.445h.289v.217h-5.131v-.217h.289a1.513,1.513,0,0,0,1.518-1.445V400.729h-4.48a1.488,1.488,0,0,0-1.373,1.445v.361h-.289V399.5a9.365,9.365,0,0,0,2.89.434Z" transform="translate(-0.361 -15.756)" fill="#fff"/><path d="M-120.255,416.82V416.6h.289a1.513,1.513,0,0,0,1.517-1.445v-6.142H-128.2v6.07a1.526,1.526,0,0,0,1.517,1.517h.289v.217h-5.2V416.6h.289a1.526,1.526,0,0,0,1.518-1.517V401.934a1.526,1.526,0,0,0-1.518-1.518h-.289V400.2h5.2v.217h-.289a1.526,1.526,0,0,0-1.517,1.518v6.287h9.683v-6.359a1.513,1.513,0,0,0-1.517-1.445h-.289V400.2h5.2v.217h-.289a1.526,1.526,0,0,0-1.517,1.517v13.152a1.526,1.526,0,0,0,1.517,1.517h.289v.217Z" transform="translate(-6.602 -15.95)" fill="#fff"/><path d="M-94.072,416.654H-103.9v-.217h.289a1.526,1.526,0,0,0,1.517-1.518v-13.3a1.559,1.559,0,0,0-1.517-1.373h-.289v-.217h6.937a8.85,8.85,0,0,0,2.818-.434v3.035h-.217v-.361a1.484,1.484,0,0,0-1.373-1.445h-4.914v7.3h3.974a1.141,1.141,0,0,0,1.156-1.156v-.361h.217v3.758h-.217v-.361a1.141,1.141,0,0,0-1.156-1.156h-4.047V416h3.4c2.457,0,3.469-1.3,4.191-3.107h.361Z" transform="translate(-14.286 -15.784)" fill="#fff"/><path d="M-63.6,413.062l-1.445,3.83H-74.8v-.217h.289a1.526,1.526,0,0,0,1.517-1.517V401.934a1.526,1.526,0,0,0-1.517-1.518H-74.8V400.2h5.2v.217h-.289a1.526,1.526,0,0,0-1.517,1.518V416.17h3.4c2.457,0,3.469-1.3,4.191-3.107Z" transform="translate(-22.358 -15.95)" fill="#fff"/><path d="M-39.869,400.2v.217h-.361a1.265,1.265,0,0,0-1.3,1.156v9.394a5.956,5.956,0,0,1-6.359,6.214c-3.974,0-6.576-2.457-6.576-6.142v-9.394a1.182,1.182,0,0,0-1.3-1.156H-56.2v-.217h4.841v.217h-.434a1.265,1.265,0,0,0-1.3,1.156v9.1c0,3.469,2.023,5.781,5.058,5.781a5.122,5.122,0,0,0,5.347-5.492v-9.394a1.271,1.271,0,0,0-1.3-1.156h-.361v-.217Z" transform="translate(-27.517 -15.95)" fill="#fff"/><path d="M-15.269,416.576v.217H-21.05v-.217h.289a.941.941,0,0,0,.795-1.445l-3.685-5.781-3.685,5.781a1.01,1.01,0,0,0,.795,1.445h.289v.217H-31.6v-.217h.361a2.928,2.928,0,0,0,2.385-1.445l4.625-6.793-4.119-6.576a3.234,3.234,0,0,0-2.385-1.445h-.361V400.1h5.781v.217h-.361a.954.954,0,0,0-.795,1.445l3.252,5.2,3.252-5.131a.98.98,0,0,0-.795-1.445h-.361v-.145h5.347v.217h-.361a2.928,2.928,0,0,0-2.385,1.445l-4.119,6.07,4.625,7.3a3.233,3.233,0,0,0,2.385,1.445h.289l.072-.145Z" transform="translate(-34.341 -15.922)" fill="#fff"/><path d="M9.559,400.2v.217H9.2a1.265,1.265,0,0,0-1.3,1.156v9.394a5.956,5.956,0,0,1-6.359,6.214c-3.974,0-6.576-2.457-6.576-6.142v-9.394a1.182,1.182,0,0,0-1.3-1.156H-6.7v-.217h4.841v.217H-2.22a1.265,1.265,0,0,0-1.3,1.156v9.1c0,3.469,2.023,5.781,5.058,5.781a5.122,5.122,0,0,0,5.347-5.492v-9.394a1.271,1.271,0,0,0-1.3-1.156H5.223v-.217Z" transform="translate(-41.248 -15.95)" fill="#fff"/><path d="M26.387,400.2c2.89,0,4.7,1.734,4.7,4.408,0,2.312-1.734,4.48-3.974,4.48a5.335,5.335,0,0,1,1.734,1.662,42.659,42.659,0,0,0,2.963,3.9c1.012,1.084,1.879,1.806,3.252,1.806v.217H33.685a5.158,5.158,0,0,1-4.119-2.1c-.217-.289-2.963-4.191-3.107-4.408-.578-.795-1.3-1.59-2.168-1.59v-.217h1.3c1.3-.072,3.107-.361,3.685-2.457a7.453,7.453,0,0,0,.145-1.445c-.072-2.168-1.228-3.541-2.963-3.613-1.228-.072-2.6,0-2.963,0v14.163a1.526,1.526,0,0,0,1.517,1.517H25.3v.217H20.1v-.217h.289a1.526,1.526,0,0,0,1.517-1.517V401.934a1.526,1.526,0,0,0-1.517-1.518H20.1V400.2Z" transform="translate(-48.682 -15.95)" fill="#fff"/><path d="M54.786,400.172v.217h-.361a2.928,2.928,0,0,0-2.385,1.445l-4.769,7.587v5.636a1.526,1.526,0,0,0,1.517,1.517h.289v.217H43.947v-.217h.289a1.526,1.526,0,0,0,1.517-1.517v-5.709l-4.48-7.587a3.109,3.109,0,0,0-2.385-1.445H38.6V400.1h5.853v.217h-.289a.954.954,0,0,0-.795,1.445l3.541,6.72,3.83-6.72a1.01,1.01,0,0,0-.795-1.445h-.289V400.1Z" transform="translate(-53.814 -15.922)" fill="#fff"/><path d="M84.045,416.82V416.6h.289a1.513,1.513,0,0,0,1.517-1.445v-6.142H76.1v6.07a1.526,1.526,0,0,0,1.517,1.517H77.9v.217H72.7V416.6h.289a1.526,1.526,0,0,0,1.517-1.517V401.934a1.526,1.526,0,0,0-1.517-1.518H72.7V400.2h5.2v.217h-.289a1.526,1.526,0,0,0-1.517,1.518v6.287h9.755v-6.359a1.513,1.513,0,0,0-1.517-1.445h-.289V400.2h5.2v.217h-.289a1.526,1.526,0,0,0-1.517,1.517v13.152a1.526,1.526,0,0,0,1.517,1.517h.289v.217Z" transform="translate(-63.273 -15.95)" fill="#fff"/><path d="M116.331,400.2v.217h-.361a1.265,1.265,0,0,0-1.3,1.156v9.394a5.956,5.956,0,0,1-6.359,6.214c-3.974,0-6.576-2.457-6.576-6.142v-9.394a1.182,1.182,0,0,0-1.3-1.156H100v-.217h4.841v.217h-.434a1.265,1.265,0,0,0-1.3,1.156v9.1c0,3.469,2.023,5.781,5.058,5.781a5.122,5.122,0,0,0,5.347-5.492v-9.394a1.271,1.271,0,0,0-1.3-1.156h-.361v-.217Z" transform="translate(-70.845 -15.95)" fill="#fff"/><path d="M136.739,400.006a9.755,9.755,0,0,0,2.89-.433v3.035h-.217v-.434a1.435,1.435,0,0,0-1.373-1.445h-4.48v14.235a1.513,1.513,0,0,0,1.518,1.445h.289v.217h-5.2v-.217h.289a1.513,1.513,0,0,0,1.518-1.445V400.729h-4.48a1.488,1.488,0,0,0-1.373,1.445v.361H125.9V399.5a9.364,9.364,0,0,0,2.89.434Z" transform="translate(-78.03 -15.756)" fill="#fff"/><path d="M-155.4,429.695v-.723l.361-.072H61.528v.723l-.361.072Z" transform="translate(0 -23.911)" fill="#fff"/><path d="M-154.8,429.4H61.333v.072H-154.8Z" transform="translate(-0.166 -24.05)" fill="#fff"/><path d="M-20,342.7v1.662H5.146v32.012H-2.3v1.662h9.1V342.7Zm-6.937,1.662h5.781V342.7H-28.6v35.263H-3.453v-1.59H-26.938Z" transform="translate(-35.173)" fill="#fff"/><path d="M1.976,373.082H-4.6V354.8h1.662v16.62H1.976Z" transform="translate(-41.83 -3.356)" fill="#fff"/><path d="M-15.038,373.11H-16.7V354.9h6.576v1.59h-4.914Z" transform="translate(-38.474 -3.384)" fill="#fff"/><path d="M8.8,354.8h1.662v18.21H8.8Z" transform="translate(-45.547 -3.356)" fill="#fff"/><path d="M2,366H7.2v1.662H2Z" transform="translate(-43.661 -6.463)" fill="#fff"/><path d="M-23,354.9h3.469v1.662H-23Z" transform="translate(-36.726 -3.384)" fill="#fff"/><path d="M-134.71,441.863c-.072,0-.145,0-.145-3.758H-136.3V437.6h3.541v.506H-134.2v3.758Z" transform="translate(-5.298 -26.324)" fill="#fff"/><path d="M-134.855,438.061H-136.3V437.7h3.4v.361h-1.445v3.758h-.434C-134.855,441.819-134.855,438.061-134.855,438.061Z" transform="translate(-5.298 -26.352)" fill="#fff"/><path d="M-126.565,441.936v-1.879h-2.457v1.879h-.578v-4.263h.578v1.807h2.457V437.6h.578v4.336Z" transform="translate(-7.157 -26.324)" fill="#fff"/><path d="M-126,437.772v4.119h-.361v-1.879h-2.6v1.879h-.434v-4.119h.434v1.807h2.6V437.7H-126v.072Z" transform="translate(-7.212 -26.352)" fill="#fff"/><path d="M-122.1,441.963V437.7h3.035v.506h-2.312v1.3h2.168v.506h-2.168v1.445h2.385v.506Z" transform="translate(-9.237 -26.352)" fill="#fff"/><path d="M-118.937,441.558v.361H-121.9V437.8h2.89v.361h-2.385v1.445h2.168v.361h-2.168v1.59Z" transform="translate(-9.293 -26.38)" fill="#fff"/><path d="M-112.4,441.963V437.7h1.662a2.284,2.284,0,0,1,1.373.289,1.33,1.33,0,0,1,.434,1.156,1.641,1.641,0,0,1-.434,1.156,2.06,2.06,0,0,1-1.373.361h-1.084v1.3Zm1.734-1.807c.506-.072.795-.145.939-.361a1,1,0,0,0,.361-.65c0-.361-.072-.506-.289-.65-.217-.217-.506-.217-1.012-.217h-1.084v1.879Z" transform="translate(-11.928 -26.352)" fill="#fff"/><path d="M-109.31,438.089a1.268,1.268,0,0,1,.434,1.084,1.471,1.471,0,0,1-.434,1.084,2,2,0,0,1-1.3.361h-1.156v1.3h-.434V437.8h1.59A2.173,2.173,0,0,1-109.31,438.089Zm-.289,1.807a1,1,0,0,0,.361-.723c0-.361-.072-.578-.361-.723-.217-.217-.506-.217-1.012-.217h-1.156v2.023h1.156A1.655,1.655,0,0,0-109.6,439.9Z" transform="translate(-11.983 -26.38)" fill="#fff"/><path d="M-102.565,441.936l-1.084-1.373h-1.373v1.3h-.578V437.6h1.734a2.767,2.767,0,0,1,1.373.361,1.329,1.329,0,0,1,.434,1.156,1.925,1.925,0,0,1-.217.867,2.25,2.25,0,0,1-.65.506l1.012,1.518h-.65Zm-1.228-1.734a.434.434,0,0,1,.289-.072c.289-.072.506-.145.578-.289a1,1,0,0,0,.361-.65c0-.361-.072-.506-.289-.65-.217-.217-.506-.217-1.012-.217h-1.084v1.951h1.156Z" transform="translate(-13.814 -26.324)" fill="#fff"/><path d="M-102.437,441.891l-1.012-1.373h-1.518v1.3h-.434V437.7h1.662a2.311,2.311,0,0,1,1.3.361,1.268,1.268,0,0,1,.434,1.084,1.457,1.457,0,0,1-.217.795,1.846,1.846,0,0,1-.723.506l1.012,1.445Zm-.361-2.023a1,1,0,0,0,.361-.723c0-.361-.072-.578-.361-.723-.217-.217-.506-.217-1.012-.217h-1.156v2.1h1.228C-103.377,440.157-102.943,440.085-102.8,439.868Z" transform="translate(-13.869 -26.352)" fill="#fff"/><path d="M-98.4,441.963V437.7h3.107v.506h-2.385v1.3h2.168v.506h-2.168v1.445h2.457v.506Z" transform="translate(-15.811 -26.352)" fill="#fff"/><path d="M-95.237,441.558v.361H-98.2V437.8h2.89v.361h-2.385v1.445h2.168v.361h-2.168v1.59Z" transform="translate(-15.867 -26.38)" fill="#fff"/><rect width="1.734" height="0.506" transform="translate(-110.02 413.66)" fill="#fff"/><path d="M-92.4,441h1.59v.361H-92.4Z" transform="translate(-17.476 -27.267)" fill="#fff"/><path d="M-86.321,441.863a2.6,2.6,0,0,1-.795-.145,1.956,1.956,0,0,1-.795-.723,1.933,1.933,0,0,1-.289-1.228,2.288,2.288,0,0,1,.289-1.156,2.575,2.575,0,0,1,.795-.723,2.067,2.067,0,0,1,1.228-.289,3,3,0,0,1,1.156.217,1.972,1.972,0,0,1,.795.723,1.932,1.932,0,0,1,.289,1.228,2.12,2.12,0,0,1-.289,1.156,2.577,2.577,0,0,1-.795.723,2.09,2.09,0,0,1-1.228.217Zm.361-3.613a1.717,1.717,0,0,0-.867.217,2.624,2.624,0,0,0-.65.578,1.457,1.457,0,0,0-.217.795,1.924,1.924,0,0,0,.217.867,1.762,1.762,0,0,0,.65.578,1.541,1.541,0,0,0,.867.217,1.3,1.3,0,0,0,.795-.217,2.2,2.2,0,0,0,.578-.578,1.457,1.457,0,0,0,.217-.795,1.924,1.924,0,0,0-.217-.867,2.2,2.2,0,0,0-.578-.578A1.457,1.457,0,0,0-85.96,438.25Z" transform="translate(-18.641 -26.324)" fill="#fff"/><path d="M-87.016,441.647a2.577,2.577,0,0,1-.795-.723,1.833,1.833,0,0,1-.289-1.156,2.288,2.288,0,0,1,.289-1.156,2.576,2.576,0,0,1,.795-.723,1.97,1.97,0,0,1,1.156-.289,3.274,3.274,0,0,1,1.156.217,2.577,2.577,0,0,1,.795.723,1.834,1.834,0,0,1,.289,1.156,2.478,2.478,0,0,1-.289,1.156,2.577,2.577,0,0,1-.795.723,1.961,1.961,0,0,1-1.156.217A1.89,1.89,0,0,1-87.016,441.647Zm1.951-.361a2.2,2.2,0,0,0,.578-.578,1.541,1.541,0,0,0,.217-.867,1.924,1.924,0,0,0-.217-.867,2.2,2.2,0,0,0-.578-.578,1.541,1.541,0,0,0-.867-.217,1.717,1.717,0,0,0-.867.217,2.491,2.491,0,0,0-.65.578,1.541,1.541,0,0,0-.217.867,1.924,1.924,0,0,0,.217.867,1.706,1.706,0,0,0,.65.578,1.541,1.541,0,0,0,.867.217A1.717,1.717,0,0,0-85.065,441.285Z" transform="translate(-18.668 -26.324)" fill="#fff"/><path d="M-76.492,441.963l-1.228-3.4-1.156,3.4h-.506L-80.9,437.7h.578l1.228,3.4,1.228-3.4h.434l1.156,3.469,1.228-3.469h.578l-1.517,4.263Z" transform="translate(-20.666 -26.352)" fill="#fff"/><path d="M-74.486,437.8l-1.445,4.119h-.434l-1.228-3.541-1.228,3.541h-.434L-80.7,437.8h.434l1.228,3.541,1.3-3.541h.361l1.228,3.613,1.228-3.613Z" transform="translate(-20.721 -26.38)" fill="#fff"/><path d="M-66.721,441.936l-2.529-3.252v3.252h-.65v-4.263h.434l2.529,3.18V437.6h.65v4.336Z" transform="translate(-23.717 -26.324)" fill="#fff"/><path d="M-66.3,437.772v4.119h-.361l-2.6-3.4v3.4H-69.7v-4.119h.361l2.6,3.324v-3.4h.434Z" transform="translate(-23.772 -26.352)" fill="#fff"/><path d="M-62.4,441.963V437.7h3.107v.506h-2.385v1.3h2.168v.506h-2.168v1.445h2.457v.506Z" transform="translate(-25.797 -26.352)" fill="#fff"/><path d="M-59.237,441.558v.361H-62.2V437.8h2.89v.361h-2.385v1.445h2.168v.361h-2.168v1.59Z" transform="translate(-25.853 -26.38)" fill="#fff"/><path d="M-55.8,441.891V437.7h1.807a2.994,2.994,0,0,1,1.156.217,1.923,1.923,0,0,1,.795.723,1.97,1.97,0,0,1,.289,1.156,2.12,2.12,0,0,1-.289,1.156,2.577,2.577,0,0,1-.795.723,2.091,2.091,0,0,1-1.228.217Zm1.662-.361h0l.072-.072a2.838,2.838,0,0,0,1.012-.217,2.623,2.623,0,0,0,.65-.578,1.457,1.457,0,0,0,.217-.795A1.716,1.716,0,0,0-52.4,439a1.761,1.761,0,0,0-.65-.578,1.914,1.914,0,0,0-1.012-.217h-1.156v3.252Z" transform="translate(-27.628 -26.352)" fill="#fff"/><path d="M-55.6,437.8h1.734a3,3,0,0,1,1.156.217,1.923,1.923,0,0,1,.795.723,1.881,1.881,0,0,1,.289,1.084,2.039,2.039,0,0,1-.289,1.084,2.576,2.576,0,0,1-.795.723,1.961,1.961,0,0,1-1.156.217H-55.6Zm1.662,3.758a2.55,2.55,0,0,0,1.012-.217,2.492,2.492,0,0,0,.65-.578,1.541,1.541,0,0,0,.217-.867,1.716,1.716,0,0,0-.217-.867,1.705,1.705,0,0,0-.65-.578,1.913,1.913,0,0,0-1.012-.217h-1.3v3.4h1.3Z" transform="translate(-27.683 -26.38)" fill="#fff"/><path d="M-41.092,441.963l-1.156-3.4-1.228,3.4h-.506L-45.5,437.7h.578l1.228,3.4,1.228-3.4h.434l1.228,3.469,1.156-3.469h.578l-1.517,4.263Z" transform="translate(-30.485 -26.352)" fill="#fff"/><path d="M-39.086,437.8l-1.445,4.119h-.434l-1.228-3.541-1.228,3.541h-.434L-45.3,437.8h.434l1.228,3.541,1.3-3.541h.361l1.228,3.613,1.228-3.613Z" transform="translate(-30.541 -26.38)" fill="#fff"/><path d="M-31.87,441.963l-.506-1.156h-2.24l-.506,1.156H-35.7l1.951-4.263h.506l1.951,4.263Zm-.723-1.662-.867-2.023-.867,2.023Z" transform="translate(-33.203 -26.352)" fill="#fff"/><path d="M-32.248,440.763h-2.312l-.506,1.156H-35.5l1.879-4.119h.434l1.879,4.119h-.434Zm-.145-.361-1.012-2.24-1.012,2.24Z" transform="translate(-33.259 -26.38)" fill="#fff"/><path d="M-27.51,441.863l-.072-3.758H-29.1V437.6h3.613v.506h-1.445v3.758Z" transform="translate(-35.034 -26.324)" fill="#fff"/><path d="M-27.455,438.061H-28.9V437.7h3.4v.361h-1.445v3.758h-.434Z" transform="translate(-35.09 -26.352)" fill="#fff"/><path d="M-21.221,441.891a3.07,3.07,0,0,1-.795-.145,1.973,1.973,0,0,1-.795-.723A1.933,1.933,0,0,1-23.1,439.8a2.288,2.288,0,0,1,.289-1.156,2.578,2.578,0,0,1,.795-.723,2.09,2.09,0,0,1,1.228-.217,2.23,2.23,0,0,1,.795.145,2.706,2.706,0,0,1,.723.434v.072l-.361.361-.072-.072a1.4,1.4,0,0,0-1.228-.506,1.162,1.162,0,0,0-.795.217,2.623,2.623,0,0,0-.65.578,1.457,1.457,0,0,0-.217.795,1.924,1.924,0,0,0,.217.867,1.762,1.762,0,0,0,.65.578,1.541,1.541,0,0,0,.867.217,1.692,1.692,0,0,0,1.228-.506l.072-.072.361.361-.072.072a1.3,1.3,0,0,1-.65.434,2.6,2.6,0,0,1-.795.144A1.411,1.411,0,0,1-21.221,441.891Z" transform="translate(-36.699 -26.352)" fill="#fff"/><path d="M-21.916,441.674a2.577,2.577,0,0,1-.795-.723A1.833,1.833,0,0,1-23,439.8a2.289,2.289,0,0,1,.289-1.156,2.578,2.578,0,0,1,.795-.723,1.961,1.961,0,0,1,1.156-.217,2.6,2.6,0,0,1,.795.145,1.3,1.3,0,0,1,.65.434l-.289.289a1.546,1.546,0,0,0-1.3-.506,1.541,1.541,0,0,0-.867.217,2.492,2.492,0,0,0-.65.578,1.541,1.541,0,0,0-.217.867,1.925,1.925,0,0,0,.217.867,1.706,1.706,0,0,0,.65.578,1.541,1.541,0,0,0,.867.217,1.855,1.855,0,0,0,1.3-.506l.289.289a1.3,1.3,0,0,1-.65.434,2.6,2.6,0,0,1-.795.145A1.624,1.624,0,0,1-21.916,441.674Z" transform="translate(-36.726 -26.352)" fill="#fff"/><path d="M-12.565,441.936v-1.879h-2.457v1.879H-15.6v-4.263h.578v1.807h2.457V437.6h.65v4.336Z" transform="translate(-38.779 -26.324)" fill="#fff"/><path d="M-11.931,437.772v4.119h-.434v-1.879h-2.6v1.879H-15.4v-4.119h.434v1.807h2.6V437.7h.434Z" transform="translate(-38.834 -26.352)" fill="#fff"/><path d="M-2.282,441.458a1.863,1.863,0,0,1-1.445.506,1.726,1.726,0,0,1-.65-.145,1.3,1.3,0,0,1-.506-.361.961.961,0,0,1-.217-.578,1.616,1.616,0,0,1,.217-.723,1.573,1.573,0,0,1,.65-.506l.072-.072c-.217-.217-.289-.361-.289-.506a.917.917,0,0,1-.072-.434.86.86,0,0,1,.289-.723,1.456,1.456,0,0,1,.795-.217,1.078,1.078,0,0,1,.723.217.883.883,0,0,1,.217.65.961.961,0,0,1-.217.578,4.135,4.135,0,0,1-.578.506l1.012,1.012c.072-.217.145-.434.217-.723v-.072h.072l.434.072v.072a3.52,3.52,0,0,1-.289.795l-.072.217.578.578-.361.361Zm-1.662-1.59a5.865,5.865,0,0,0-.578.434.252.252,0,0,0-.072.145.552.552,0,0,0-.145.361c0,.217.072.289.289.434a1.166,1.166,0,0,0,.65.217,1.775,1.775,0,0,0,1.084-.361Zm.361-1.807c-.217,0-.361.072-.361.145a.548.548,0,0,0-.145.289v.072c0,.072.072.145.072.289.072,0,.217.145.289.361a1.8,1.8,0,0,0,.506-.361.552.552,0,0,0,.145-.361.375.375,0,0,0-.145-.289A.425.425,0,0,0-3.583,438.061Z" transform="translate(-41.692 -26.352)" fill="#fff"/><path d="M-1.676,442.019l-.506-.578a1.863,1.863,0,0,1-1.445.506,1.726,1.726,0,0,1-.65-.145,1.3,1.3,0,0,1-.506-.361A.781.781,0,0,1-5,440.935a1.166,1.166,0,0,1,.217-.65,2.506,2.506,0,0,1,.795-.578c-.217-.217-.361-.361-.361-.506a.916.916,0,0,1-.072-.434.784.784,0,0,1,.289-.65,1.221,1.221,0,0,1,.723-.217.884.884,0,0,1,.65.217.82.82,0,0,1,.217.578.656.656,0,0,1-.217.506,2.539,2.539,0,0,1-.65.506l1.156,1.156a2.589,2.589,0,0,0,.289-.795l.361.072a5.663,5.663,0,0,1-.361,1.012l.578.578Zm-.867-.867-1.3-1.3a2.878,2.878,0,0,0-.65.506,1.08,1.08,0,0,0-.217.506.545.545,0,0,0,.289.506,1.22,1.22,0,0,0,.723.217A1.526,1.526,0,0,0-2.543,441.152Zm-1.445-2.963a.551.551,0,0,0-.145.361,3.132,3.132,0,0,1,.072.361,2.746,2.746,0,0,1,.361.434,1.321,1.321,0,0,0,.578-.434.552.552,0,0,0,.145-.361.551.551,0,0,0-.145-.361.611.611,0,0,0-.434-.145A.611.611,0,0,0-3.988,438.189Z" transform="translate(-41.719 -26.408)" fill="#fff"/><path d="M5.256,442.108h0l-.434-.217c-.072,0-.145-.072-.217-.072a.972.972,0,0,1-.506-.434v-.072l.289-.434.072.072a.98.98,0,0,0,.795.506c.434,0,.65-.217.65-.795v-2.457H4.461V437.7h2.1v2.963a1.741,1.741,0,0,1-.289,1.084,1.726,1.726,0,0,1-1.012.361Z" transform="translate(-44.244 -26.352)" fill="#fff"/><path d="M4.706,441.774a.971.971,0,0,1-.506-.434l.217-.289a.944.944,0,0,0,.867.506c.506,0,.723-.289.723-.867v-2.529H4.561V437.8H6.512v2.89a1.529,1.529,0,0,1-.289,1.012,1.2,1.2,0,0,1-.867.361,4.558,4.558,0,0,0-.65-.289Z" transform="translate(-44.271 -26.38)" fill="#fff"/><path d="M10.3,441.963V437.7h2.963v.506H10.878v1.3h2.168v.506H10.878v1.445h2.457v.506Z" transform="translate(-45.963 -26.352)" fill="#fff"/><path d="M13.363,441.558v.361H10.4V437.8h2.89v.361H10.906v1.445h2.168v.361H10.906v1.59Z" transform="translate(-45.991 -26.38)" fill="#fff"/><path d="M20.308,441.963l-1.228-3.4-1.156,3.4h-.506L15.9,437.7h.578l1.228,3.4,1.228-3.4h.434l1.156,3.469,1.228-3.469h.578l-1.517,4.263Z" transform="translate(-47.517 -26.352)" fill="#fff"/><path d="M22.314,437.8l-1.445,4.119h-.434l-1.228-3.541-1.228,3.541h-.434L16.1,437.8h.434l1.228,3.541,1.3-3.541h.361l1.228,3.613,1.228-3.613Z" transform="translate(-47.572 -26.38)" fill="#fff"/><path d="M26.7,441.963V437.7h2.963v.506H27.278v1.3h2.168v.506H27.278v1.445h2.457v.506Z" transform="translate(-50.513 -26.352)" fill="#fff"/><path d="M29.763,441.558v.361H26.8V437.8h2.89v.361H27.306v1.445h2.168v.361H27.306v1.59Z" transform="translate(-50.54 -26.38)" fill="#fff"/><path d="M33.2,441.963V437.7h.578v3.758h2.385v.506Z" transform="translate(-52.316 -26.352)" fill="#fff"/><path d="M33.372,437.8h.434v3.758h2.312v.361H33.3V437.8Z" transform="translate(-52.343 -26.38)" fill="#fff"/><path d="M39.1,441.963V437.7h.578v3.758H41.99v.506Z" transform="translate(-53.952 -26.352)" fill="#fff"/><path d="M39.2,437.8h.506v3.758h2.312v.361H39.2Z" transform="translate(-53.98 -26.38)" fill="#fff"/><path d="M45,441.963V437.7h2.963v.506H45.578v1.3h2.168v.506H45.578v1.445h2.529v.506Z" transform="translate(-55.589 -26.352)" fill="#fff"/><path d="M48.063,441.558v.361H45.1V437.8h2.89v.361H45.606v1.445h2.168v.361H45.606v1.59Z" transform="translate(-55.617 -26.38)" fill="#fff"/><path d="M54.335,441.936l-1.084-1.373H51.878v1.3H51.3V437.6h1.662a2.767,2.767,0,0,1,1.373.361,1.422,1.422,0,0,1,.434,1.156,1.924,1.924,0,0,1-.217.867,1.948,1.948,0,0,1-.578.506l1.012,1.518h-.65Zm-1.3-1.734.217-.072a1.154,1.154,0,0,0,.723-.361,1,1,0,0,0,.361-.65c0-.361-.072-.506-.289-.65-.217-.217-.506-.217-1.012-.217H51.95V440.2h1.084Z" transform="translate(-57.336 -26.324)" fill="#fff"/><path d="M54.463,441.891l-1.012-1.373H51.934v1.3H51.5V437.7h1.59a2.311,2.311,0,0,1,1.3.361,1.268,1.268,0,0,1,.434,1.084,1.457,1.457,0,0,1-.217.795,1.575,1.575,0,0,1-.65.506l1.012,1.445Zm-.361-2.023a1,1,0,0,0,.361-.723c0-.361-.072-.578-.361-.723-.217-.217-.506-.217-1.012-.217H51.934v2.1H53.09A2.653,2.653,0,0,0,54.1,439.868Z" transform="translate(-57.392 -26.352)" fill="#fff"/><path d="M59.134,441.963v-1.517L57.4,437.7h.578l1.373,2.24L60.8,437.7h.65l-1.807,2.818v1.445Z" transform="translate(-59.028 -26.352)" fill="#fff"/><path d="M59.7,440.474v1.445h-.434v-1.445L57.6,437.8h.434l1.445,2.312,1.445-2.312h.506Z" transform="translate(-59.084 -26.38)" fill="#fff"/><path d="M68.917,442.074a3.731,3.731,0,0,1-.795-.144.9.9,0,0,1-.65-.361h0l.217-.506.072.072c.072.072.217.145.289.217s.145.072.289.145a2.681,2.681,0,0,0,.65.145c.361,0,.65-.072.723-.217.145-.145.289-.289.289-.434a.375.375,0,0,0-.145-.289,1.58,1.58,0,0,0-.361-.217c-.072,0-.145-.072-.289-.072-.072,0-.217-.072-.289-.072-.289-.072-.506-.145-.723-.217a1.574,1.574,0,0,1-.578-.361.883.883,0,0,1-.217-.65,1.045,1.045,0,0,1,.145-.506.814.814,0,0,1,.578-.361,3.727,3.727,0,0,1,.795-.145.651.651,0,0,1,.361.072h.289a.552.552,0,0,1,.361.145c.072,0,.145.072.217.072h.072L70,438.75l-.217-.072a1.222,1.222,0,0,0-.361-.144,1.592,1.592,0,0,0-.578-.072c-.361,0-.65.072-.723.217-.217.145-.289.217-.289.434a.375.375,0,0,0,.145.289c.072.072.217.217.289.217a.434.434,0,0,0,.289.072.435.435,0,0,1,.289.072c.289.072.506.145.723.217a1.3,1.3,0,0,1,.506.361.883.883,0,0,1,.217.65,1.044,1.044,0,0,1-.145.506,1.647,1.647,0,0,1-1.228.578Z" transform="translate(-61.802 -26.463)" fill="#fff"/><path d="M68.15,441.83a1.4,1.4,0,0,1-.65-.361l.145-.361a4.041,4.041,0,0,0,.578.361,2.567,2.567,0,0,0,.723.145,1.163,1.163,0,0,0,.795-.217.731.731,0,0,0,.289-.506.552.552,0,0,0-.145-.361,1.579,1.579,0,0,0-.361-.217c-.145-.072-.361-.072-.578-.145-.289-.072-.506-.145-.723-.217a1.3,1.3,0,0,1-.506-.361.821.821,0,0,1-.217-.578,1.044,1.044,0,0,1,.145-.506.922.922,0,0,1,.506-.361,2.6,2.6,0,0,1,.795-.145c.217,0,.434.072.65.072s.361.145.578.217l-.145.361a1.53,1.53,0,0,0-.506-.217,1.592,1.592,0,0,0-.578-.072,1.162,1.162,0,0,0-.795.217.545.545,0,0,0-.289.506.553.553,0,0,0,.145.361.614.614,0,0,0,.361.217c.145.072.361.072.578.145.289.072.506.145.723.217a1.3,1.3,0,0,1,.506.361.82.82,0,0,1,.217.578,1.044,1.044,0,0,1-.145.506.921.921,0,0,1-.506.361,2.6,2.6,0,0,1-.795.145A3.723,3.723,0,0,1,68.15,441.83Z" transform="translate(-61.83 -26.435)" fill="#fff"/><path d="M73.9,441.963V437.7h1.662a2.583,2.583,0,0,1,1.373.289,1.422,1.422,0,0,1,.434,1.156,1.641,1.641,0,0,1-.434,1.156,2.06,2.06,0,0,1-1.373.361H74.478v1.3Zm1.517-1.807c.506-.072.795-.145.939-.361a1,1,0,0,0,.361-.65c0-.361-.072-.506-.289-.65-.217-.217-.506-.217-1.012-.217H74.334v1.879Z" transform="translate(-63.605 -26.352)" fill="#fff"/><path d="M76.89,438.089a1.268,1.268,0,0,1,.434,1.084,1.471,1.471,0,0,1-.434,1.084,2,2,0,0,1-1.3.361H74.434v1.3H74V437.8h1.59A2.475,2.475,0,0,1,76.89,438.089Zm-.361,1.807a1,1,0,0,0,.361-.723c0-.361-.072-.578-.361-.723-.217-.217-.506-.217-1.012-.217H74.361v2.023h1.156A1.655,1.655,0,0,0,76.529,439.9Z" transform="translate(-63.633 -26.38)" fill="#fff"/><path d="M80.8,441.963V437.7h2.963v.506H81.378v1.3h2.168v.506H81.378v1.445h2.457v.506Z" transform="translate(-65.519 -26.352)" fill="#fff"/><path d="M83.863,441.558v.361H80.9V437.8h2.89v.361H81.406v1.445h2.168v.361H81.406v1.59Z" transform="translate(-65.547 -26.38)" fill="#fff"/><path d="M88.607,441.891a3.177,3.177,0,0,1-.723-.145,1.973,1.973,0,0,1-.795-.723A1.933,1.933,0,0,1,86.8,439.8a2.289,2.289,0,0,1,.289-1.156,2.578,2.578,0,0,1,.795-.723,2.09,2.09,0,0,1,1.228-.217,2.23,2.23,0,0,1,.795.145,2.706,2.706,0,0,1,.723.434v.072l-.361.361-.072-.072a1.4,1.4,0,0,0-1.228-.506,1.162,1.162,0,0,0-.795.217,2.623,2.623,0,0,0-.65.578,1.457,1.457,0,0,0-.217.795,1.925,1.925,0,0,0,.217.867,1.762,1.762,0,0,0,.65.578,1.541,1.541,0,0,0,.867.217,1.692,1.692,0,0,0,1.228-.506l.072-.072.361.361-.072.072a1.3,1.3,0,0,1-.65.434,2.6,2.6,0,0,1-.795.144A1.8,1.8,0,0,1,88.607,441.891Z" transform="translate(-67.184 -26.352)" fill="#fff"/><path d="M87.984,441.674a2.577,2.577,0,0,1-.795-.723A1.833,1.833,0,0,1,86.9,439.8a2.289,2.289,0,0,1,.289-1.156,2.578,2.578,0,0,1,.795-.723,1.961,1.961,0,0,1,1.156-.217,2.6,2.6,0,0,1,.795.145,1.3,1.3,0,0,1,.65.434l-.289.289a1.893,1.893,0,0,0-2.168-.289,2.491,2.491,0,0,0-.65.578,1.541,1.541,0,0,0-.217.867,1.925,1.925,0,0,0,.217.867,1.706,1.706,0,0,0,.65.578,1.541,1.541,0,0,0,.867.217,1.855,1.855,0,0,0,1.3-.506l.289.289a1.3,1.3,0,0,1-.65.434,2.6,2.6,0,0,1-.795.145A1.58,1.58,0,0,1,87.984,441.674Z" transform="translate(-67.211 -26.352)" fill="#fff"/><rect width="0.578" height="4.263" transform="translate(25.036 411.348)" fill="#fff"/><path d="M94.4,437.8h.434v4.119H94.4Z" transform="translate(-69.292 -26.38)" fill="#fff"/><path d="M100.53,441.963l-.434-1.156h-2.24l-.506,1.156H96.7l1.951-4.263h.506l1.951,4.263Zm-.65-1.662-.867-2.023-.867,2.023Z" transform="translate(-69.93 -26.352)" fill="#fff"/><path d="M100.224,440.763H97.912l-.506,1.156H96.9l1.879-4.119h.434l1.879,4.119h-.434Zm-.145-.361-1.012-2.24-1.012,2.24Z" transform="translate(-69.985 -26.38)" fill="#fff"/><path d="M104.6,441.963V437.7h.578v3.758h2.312v.506Z" transform="translate(-72.121 -26.352)" fill="#fff"/><path d="M104.772,437.8h.434v3.758h2.312v.361H104.7V437.8Z" transform="translate(-72.149 -26.38)" fill="#fff"/><rect width="0.578" height="4.263" transform="translate(36.887 411.348)" fill="#fff"/><path d="M110.8,437.8h.434v4.119H110.8Z" transform="translate(-73.841 -26.38)" fill="#fff"/><path d="M114.918,442.047a3.734,3.734,0,0,1-.795-.145.9.9,0,0,1-.65-.361h0l.217-.506.072.072c.072.072.217.144.289.217s.145.072.289.145a2.682,2.682,0,0,0,.65.145c.361,0,.65-.072.723-.217.217-.145.289-.217.289-.434a.375.375,0,0,0-.145-.289,1.576,1.576,0,0,0-.361-.217c-.072,0-.145-.072-.289-.072-.072,0-.217-.072-.289-.072-.289-.072-.506-.145-.723-.217a1.572,1.572,0,0,1-.578-.361.883.883,0,0,1-.217-.65,1.045,1.045,0,0,1,.145-.506c.072-.217.361-.361.578-.434a3.73,3.73,0,0,1,.795-.145.651.651,0,0,1,.361.072h.289a.552.552,0,0,1,.361.145c.072,0,.145.072.217.072h.072l-.217.506-.217-.072a1.221,1.221,0,0,0-.361-.145,1.592,1.592,0,0,0-.578-.072c-.361,0-.65.072-.723.217a.523.523,0,0,0-.289.434.376.376,0,0,0,.145.289c.072.072.217.217.289.217a.434.434,0,0,0,.289.072.435.435,0,0,1,.289.072c.289.072.506.145.723.217a1.3,1.3,0,0,1,.506.361.883.883,0,0,1,.217.65,1.044,1.044,0,0,1-.145.506.813.813,0,0,1-.578.361C115.568,441.974,115.279,442.047,114.918,442.047Z" transform="translate(-74.562 -26.435)" fill="#fff"/><path d="M114.25,441.83a1.4,1.4,0,0,1-.65-.361l.145-.361a4.041,4.041,0,0,0,.578.361,2.567,2.567,0,0,0,.723.145,1.163,1.163,0,0,0,.795-.217.546.546,0,0,0,.289-.506.552.552,0,0,0-.145-.361,1.58,1.58,0,0,0-.361-.217c-.145-.072-.361-.072-.578-.145-.289-.072-.506-.145-.723-.217a1.3,1.3,0,0,1-.506-.361.821.821,0,0,1-.217-.578,1.044,1.044,0,0,1,.145-.506.922.922,0,0,1,.506-.361,2.6,2.6,0,0,1,.795-.145c.217,0,.434.072.65.072s.361.145.578.217l-.145.361a1.53,1.53,0,0,0-.506-.217,1.592,1.592,0,0,0-.578-.072,1.162,1.162,0,0,0-.795.217.545.545,0,0,0-.289.506.553.553,0,0,0,.145.361.615.615,0,0,0,.361.217c.145.072.361.072.578.145.289.072.506.145.723.217a1.3,1.3,0,0,1,.506.361.821.821,0,0,1,.217.578,1.045,1.045,0,0,1-.145.506.921.921,0,0,1-.506.361,2.6,2.6,0,0,1-.795.145,3.722,3.722,0,0,1-.795-.145Z" transform="translate(-74.618 -26.435)" fill="#fff"/><path d="M120.818,441.863l-.072-3.758H119.3V437.6h3.469v.506h-1.445v3.758Z" transform="translate(-76.199 -26.324)" fill="#fff"/><path d="M120.845,438.061H119.4V437.7h3.4v.361h-1.445v3.758h-.434l-.072-3.758Z" transform="translate(-76.227 -26.352)" fill="#fff"/><path d="M-146.8,439h2.674v2.674H-146.8Z" transform="translate(-2.386 -26.713)" fill="#fff"/><path d="M130.7,439h2.674v2.674H130.7Z" transform="translate(-79.361 -26.713)" fill="#fff"/></g></svg>