<svg xmlns="http://www.w3.org/2000/svg" width="115.699" height="38.952" viewBox="0 0 115.699 38.952"><g transform="translate(155.4 -342.7)"><path d="M-148.321,399.77a5.2,5.2,0,0,0,1.541-.231v1.618h-.116v-.231a.765.765,0,0,0-.732-.771h-2.389v7.59a.807.807,0,0,0,.809.771h.154v.116h-2.735v-.116h.154a.807.807,0,0,0,.809-.771v-7.59h-2.389a.793.793,0,0,0-.732.771v.193h-.154V399.5a4.992,4.992,0,0,0,1.541.231Z" transform="translate(-0.799 -34.916)" fill="#fff"/><path d="M-125.551,409.061v-.116h.154a.807.807,0,0,0,.809-.771V404.9h-5.2v3.236a.814.814,0,0,0,.809.809h.154v.116H-131.6v-.116h.154a.814.814,0,0,0,.809-.809v-7.012a.814.814,0,0,0-.809-.809h-.154V400.2h2.774v.116h-.154a.814.814,0,0,0-.809.809v3.352h5.163v-3.39a.807.807,0,0,0-.809-.771h-.154V400.2h2.774v.116h-.154a.814.814,0,0,0-.809.809v7.012a.814.814,0,0,0,.809.809h.154v.116Z" transform="translate(-14.63 -35.347)" fill="#fff"/><path d="M-98.66,408.693h-5.24v-.116h.154a.814.814,0,0,0,.809-.809v-7.089a.831.831,0,0,0-.809-.732h-.154v-.116h3.7a4.719,4.719,0,0,0,1.5-.231v1.618h-.116v-.193a.791.791,0,0,0-.732-.771h-2.62v3.891h2.119a.609.609,0,0,0,.616-.616v-.193h.116v2h-.116v-.193a.609.609,0,0,0-.616-.616H-102.2v3.814h1.811a2.193,2.193,0,0,0,2.235-1.657h.193Z" transform="translate(-31.658 -34.978)" fill="#fff"/><path d="M-68.828,407.058-69.6,409.1h-5.2v-.116h.154a.814.814,0,0,0,.809-.809v-7.051a.814.814,0,0,0-.809-.809H-74.8V400.2h2.774v.116h-.154a.814.814,0,0,0-.809.809v7.59h1.811a2.193,2.193,0,0,0,2.235-1.657Z" transform="translate(-49.547 -35.347)" fill="#fff"/><path d="M-47.493,400.2v.116h-.193a.675.675,0,0,0-.694.616v5.009a3.176,3.176,0,0,1-3.39,3.313,3.2,3.2,0,0,1-3.506-3.275v-5.009a.63.63,0,0,0-.693-.616H-56.2v-.116h2.581v.116h-.231a.675.675,0,0,0-.694.616v4.854c0,1.849,1.079,3.082,2.7,3.082A2.731,2.731,0,0,0-49,405.979v-5.009a.678.678,0,0,0-.694-.616h-.193v-.116Z" transform="translate(-60.981 -35.347)" fill="#fff"/><path d="M-22.893,408.884V409h-3.082v-.116h.154a.5.5,0,0,0,.424-.771l-1.965-3.082-1.965,3.082a.538.538,0,0,0,.424.771h.154V409H-31.6v-.116h.193a1.561,1.561,0,0,0,1.271-.771l2.466-3.622-2.2-3.506a1.724,1.724,0,0,0-1.271-.771h-.193V400.1h3.082v.116h-.193a.509.509,0,0,0-.424.771l1.734,2.774,1.734-2.735a.523.523,0,0,0-.424-.771h-.193v-.077h2.851v.116h-.193a1.561,1.561,0,0,0-1.271.771l-2.2,3.236,2.466,3.891a1.724,1.724,0,0,0,1.271.771h.154l.039-.077Z" transform="translate(-76.103 -35.285)" fill="#fff"/><path d="M1.969,400.2v.116H1.776a.675.675,0,0,0-.693.616v5.009a3.176,3.176,0,0,1-3.39,3.313,3.2,3.2,0,0,1-3.506-3.275v-5.009a.63.63,0,0,0-.693-.616H-6.7v-.116h2.581v.116h-.193a.675.675,0,0,0-.693.616v4.854c0,1.849,1.079,3.082,2.7,3.082a2.731,2.731,0,0,0,2.851-2.928v-5.009a.678.678,0,0,0-.693-.616H-.343v-.116Z" transform="translate(-91.409 -35.347)" fill="#fff"/><path d="M23.452,400.2a2.269,2.269,0,0,1,2.5,2.35,2.305,2.305,0,0,1-2.119,2.389,2.844,2.844,0,0,1,.925.886,22.746,22.746,0,0,0,1.58,2.081,2.3,2.3,0,0,0,1.734.963v.116h-.732a2.75,2.75,0,0,1-2.2-1.117c-.116-.154-1.58-2.235-1.657-2.35-.308-.424-.694-.848-1.156-.848v-.116h.693a1.871,1.871,0,0,0,1.965-1.31,3.975,3.975,0,0,0,.077-.771c-.039-1.156-.655-1.888-1.58-1.926-.655-.039-1.387,0-1.58,0V408.1a.814.814,0,0,0,.809.809h.154v.116H20.1v-.116h.154a.814.814,0,0,0,.809-.809v-6.974a.814.814,0,0,0-.809-.809H20.1V400.2Z" transform="translate(-107.884 -35.347)" fill="#fff"/><path d="M47.23,400.139v.116h-.193a1.561,1.561,0,0,0-1.271.771l-2.543,4.045v3.005a.814.814,0,0,0,.809.809h.154V409H41.451v-.116h.154a.814.814,0,0,0,.809-.809v-3.044l-2.389-4.045a1.658,1.658,0,0,0-1.271-.771H38.6V400.1h3.121v.116h-.154a.509.509,0,0,0-.424.771l1.888,3.583,2.042-3.583a.538.538,0,0,0-.424-.771h-.154V400.1Z" transform="translate(-119.256 -35.285)" fill="#fff"/><path d="M78.749,409.061v-.116H78.9a.807.807,0,0,0,.809-.771V404.9h-5.2v3.236a.814.814,0,0,0,.809.809h.154v.116H72.7v-.116h.154a.814.814,0,0,0,.809-.809v-7.012a.814.814,0,0,0-.809-.809H72.7V400.2h2.774v.116H75.32a.814.814,0,0,0-.809.809v3.352h5.2v-3.39a.807.807,0,0,0-.809-.771h-.154V400.2h2.774v.116h-.154a.814.814,0,0,0-.809.809v7.012a.814.814,0,0,0,.809.809h.154v.116Z" transform="translate(-140.218 -35.347)" fill="#fff"/><path d="M108.707,400.2v.116h-.193a.675.675,0,0,0-.693.616v5.009a3.452,3.452,0,0,1-6.9.039v-5.009a.63.63,0,0,0-.694-.616H100v-.116h2.581v.116h-.231a.675.675,0,0,0-.693.616v4.854c0,1.849,1.079,3.082,2.7,3.082a2.731,2.731,0,0,0,2.851-2.928v-5.009a.678.678,0,0,0-.693-.616h-.193v-.116Z" transform="translate(-157 -35.347)" fill="#fff"/><path d="M131.679,399.77a5.2,5.2,0,0,0,1.541-.231v1.618H133.1v-.231a.765.765,0,0,0-.732-.771h-2.389v7.59a.807.807,0,0,0,.809.771h.154v.116h-2.774v-.116h.154a.807.807,0,0,0,.809-.771v-7.59h-2.389a.793.793,0,0,0-.732.771v.193H125.9V399.5a4.992,4.992,0,0,0,1.541.231Z" transform="translate(-172.922 -34.916)" fill="#fff"/><path d="M-155.4,429.324v-.385l.193-.039H-39.74v.385l-.193.038Z" transform="translate(0 -52.989)" fill="#fff"/><path d="M-154.8,429.4H-39.564v.039H-154.8Z" transform="translate(-0.369 -53.297)" fill="#fff"/><path d="M-24.015,342.7v.886h13.408v17.068h-3.968v.886h4.854V342.7Zm-3.7.886h3.082V342.7H-28.6v18.8h13.408v-.848H-27.714Z" transform="translate(-77.947 0)" fill="#fff"/><path d="M-1.094,364.547H-4.6V354.8h.886v8.861h2.62Z" transform="translate(-92.7 -7.438)" fill="#fff"/><path d="M-15.814,364.609H-16.7V354.9h3.506v.848h-2.62Z" transform="translate(-85.262 -7.5)" fill="#fff"/><path d="M8.8,354.8h.886v9.709H8.8Z" transform="translate(-100.938 -7.438)" fill="#fff"/><path d="M2,366H4.774v.886H2Z" transform="translate(-96.757 -14.323)" fill="#fff"/><path d="M-23,354.9h1.849v.886H-23Z" transform="translate(-81.389 -7.5)" fill="#fff"/><path d="M-135.452,439.873c-.039,0-.077,0-.077-2h-.771v-.27h1.888v.27h-.771v2Z" transform="translate(-11.741 -58.337)" fill="#fff"/><path d="M-135.529,437.893h-.771V437.7h1.811v.193h-.771v2h-.231C-135.529,439.9-135.529,437.893-135.529,437.893Z" transform="translate(-11.741 -58.399)" fill="#fff"/><path d="M-127.982,439.912v-1h-1.31v1h-.308v-2.273h.308v.963h1.31v-1h.308v2.312Z" transform="translate(-15.86 -58.337)" fill="#fff"/><path d="M-127.589,437.739v2.2h-.193v-1h-1.387v1h-.231v-2.2h.231v.963h1.387v-1h.193Z" transform="translate(-15.983 -58.399)" fill="#fff"/><path d="M-122.1,439.973V437.7h1.618v.27h-1.233v.693h1.156v.27h-1.156v.771h1.271v.27Z" transform="translate(-20.47 -58.399)" fill="#fff"/><path d="M-120.32,439.8V440h-1.58v-2.2h1.541v.193h-1.271v.771h1.156v.193h-1.156v.848Z" transform="translate(-20.593 -58.46)" fill="#fff"/><path d="M-112.4,439.973V437.7h.886a1.218,1.218,0,0,1,.732.154.709.709,0,0,1,.231.616.875.875,0,0,1-.231.616,1.1,1.1,0,0,1-.732.193h-.578v.694Zm.925-.963c.27-.039.424-.077.5-.193a.533.533,0,0,0,.193-.347c0-.193-.039-.27-.154-.347-.116-.116-.27-.116-.539-.116h-.578v1Z" transform="translate(-26.433 -58.399)" fill="#fff"/><path d="M-110.659,437.954a.676.676,0,0,1,.231.578.784.784,0,0,1-.231.578,1.065,1.065,0,0,1-.693.193h-.616V440h-.231v-2.2h.848A1.159,1.159,0,0,1-110.659,437.954Zm-.154.963a.535.535,0,0,0,.193-.385c0-.193-.039-.308-.193-.385-.116-.116-.27-.116-.539-.116h-.616v1.079h.616A.882.882,0,0,0-110.813,438.917Z" transform="translate(-26.556 -58.46)" fill="#fff"/><path d="M-103.982,439.912l-.578-.732h-.732v.693h-.308V437.6h.925a1.475,1.475,0,0,1,.732.193.709.709,0,0,1,.231.616,1.026,1.026,0,0,1-.116.462,1.2,1.2,0,0,1-.347.27l.539.809h-.347Zm-.655-.925a.232.232,0,0,1,.154-.039c.154-.039.27-.077.308-.154a.533.533,0,0,0,.193-.347c0-.193-.039-.27-.154-.347-.116-.116-.27-.116-.539-.116h-.578v1.04h.616Z" transform="translate(-30.613 -58.337)" fill="#fff"/><path d="M-103.82,439.935l-.539-.732h-.809v.693h-.231v-2.2h.886a1.231,1.231,0,0,1,.694.193.676.676,0,0,1,.231.578.777.777,0,0,1-.116.424.984.984,0,0,1-.385.27l.539.771Zm-.193-1.079a.535.535,0,0,0,.193-.385c0-.193-.039-.308-.193-.385-.116-.116-.27-.116-.539-.116h-.616v1.117h.655C-104.321,439.01-104.09,438.971-104.013,438.856Z" transform="translate(-30.736 -58.399)" fill="#fff"/><path d="M-98.4,439.973V437.7h1.657v.27h-1.271v.693h1.156v.27h-1.156v.771h1.31v.27Z" transform="translate(-35.039 -58.399)" fill="#fff"/><path d="M-96.62,439.8V440H-98.2v-2.2h1.541v.193H-97.93v.771h1.156v.193H-97.93v.848Z" transform="translate(-35.162 -58.46)" fill="#fff"/><rect width="0.925" height="0.27" transform="translate(-131.205 380.534)" fill="#fff"/><path d="M-92.4,441h.848v.193H-92.4Z" transform="translate(-38.728 -60.427)" fill="#fff"/><path d="M-87.2,439.873a1.383,1.383,0,0,1-.424-.077,1.042,1.042,0,0,1-.424-.385,1.031,1.031,0,0,1-.154-.655,1.22,1.22,0,0,1,.154-.616,1.374,1.374,0,0,1,.424-.385,1.1,1.1,0,0,1,.655-.154,1.6,1.6,0,0,1,.616.116,1.052,1.052,0,0,1,.424.385,1.031,1.031,0,0,1,.154.655,1.131,1.131,0,0,1-.154.616,1.374,1.374,0,0,1-.424.385,1.115,1.115,0,0,1-.655.116Zm.193-1.926a.915.915,0,0,0-.462.116,1.4,1.4,0,0,0-.347.308.777.777,0,0,0-.116.424,1.026,1.026,0,0,0,.116.462.939.939,0,0,0,.347.308.822.822,0,0,0,.462.116.692.692,0,0,0,.424-.116,1.173,1.173,0,0,0,.308-.308.777.777,0,0,0,.116-.424,1.025,1.025,0,0,0-.116-.462,1.173,1.173,0,0,0-.308-.308A.777.777,0,0,0-87.006,437.947Z" transform="translate(-41.309 -58.337)" fill="#fff"/><path d="M-87.522,439.758a1.374,1.374,0,0,1-.424-.385.978.978,0,0,1-.154-.616,1.22,1.22,0,0,1,.154-.616,1.374,1.374,0,0,1,.424-.385,1.05,1.05,0,0,1,.616-.154,1.745,1.745,0,0,1,.616.116,1.374,1.374,0,0,1,.424.385.978.978,0,0,1,.154.617,1.321,1.321,0,0,1-.154.616,1.374,1.374,0,0,1-.424.385,1.046,1.046,0,0,1-.616.116A1.008,1.008,0,0,1-87.522,439.758Zm1.04-.193a1.173,1.173,0,0,0,.308-.308.821.821,0,0,0,.116-.462,1.026,1.026,0,0,0-.116-.462,1.172,1.172,0,0,0-.308-.308.822.822,0,0,0-.462-.116.915.915,0,0,0-.462.116,1.329,1.329,0,0,0-.347.308.822.822,0,0,0-.116.462,1.026,1.026,0,0,0,.116.462.909.909,0,0,0,.347.308.822.822,0,0,0,.462.116A.915.915,0,0,0-86.482,439.565Z" transform="translate(-41.371 -58.337)" fill="#fff"/><path d="M-78.55,439.973l-.655-1.811-.616,1.811h-.27L-80.9,437.7h.308l.655,1.811.655-1.811h.231l.616,1.849.655-1.849h.308l-.809,2.273Z" transform="translate(-45.797 -58.399)" fill="#fff"/><path d="M-77.387,437.8l-.771,2.2h-.231l-.655-1.888L-79.7,440h-.231l-.771-2.2h.231l.655,1.888.693-1.888h.193l.655,1.926.655-1.926Z" transform="translate(-45.92 -58.46)" fill="#fff"/><path d="M-68.2,439.912l-1.348-1.734v1.734H-69.9v-2.273h.231l1.348,1.7V437.6h.347v2.312Z" transform="translate(-52.559 -58.337)" fill="#fff"/><path d="M-67.889,437.739v2.2h-.193l-1.387-1.811v1.811H-69.7v-2.2h.193l1.387,1.772V437.7h.231Z" transform="translate(-52.682 -58.399)" fill="#fff"/><path d="M-62.4,439.973V437.7h1.657v.27h-1.271v.693h1.156v.27h-1.156v.771h1.31v.27Z" transform="translate(-57.169 -58.399)" fill="#fff"/><path d="M-60.62,439.8V440H-62.2v-2.2h1.541v.193H-61.93v.771h1.156v.193H-61.93v.848Z" transform="translate(-57.292 -58.46)" fill="#fff"/><path d="M-55.8,439.935V437.7h.963a1.6,1.6,0,0,1,.616.116,1.025,1.025,0,0,1,.424.385,1.051,1.051,0,0,1,.154.616,1.13,1.13,0,0,1-.154.616,1.374,1.374,0,0,1-.424.385,1.115,1.115,0,0,1-.655.116Zm.886-.193h0l.039-.038a1.513,1.513,0,0,0,.539-.116,1.4,1.4,0,0,0,.347-.308.777.777,0,0,0,.116-.424.915.915,0,0,0-.116-.462.938.938,0,0,0-.347-.308,1.02,1.02,0,0,0-.539-.116h-.616V439.7Z" transform="translate(-61.226 -58.399)" fill="#fff"/><path d="M-55.6,437.8h.925a1.6,1.6,0,0,1,.616.116,1.025,1.025,0,0,1,.424.385,1,1,0,0,1,.154.578,1.087,1.087,0,0,1-.154.578,1.374,1.374,0,0,1-.424.385,1.045,1.045,0,0,1-.616.116H-55.6Zm.886,2a1.36,1.36,0,0,0,.539-.116,1.329,1.329,0,0,0,.347-.308.822.822,0,0,0,.116-.462.915.915,0,0,0-.116-.462.909.909,0,0,0-.347-.308,1.02,1.02,0,0,0-.539-.116h-.693v1.811h.693Z" transform="translate(-61.349 -58.46)" fill="#fff"/><path d="M-43.15,439.973l-.616-1.811-.655,1.811h-.27L-45.5,437.7h.308l.655,1.811.655-1.811h.231l.655,1.849.616-1.849h.308l-.809,2.273Z" transform="translate(-67.558 -58.399)" fill="#fff"/><path d="M-41.987,437.8l-.771,2.2h-.231l-.655-1.888L-44.3,440h-.231l-.771-2.2h.231l.655,1.888.694-1.888h.193l.655,1.926.655-1.926Z" transform="translate(-67.681 -58.46)" fill="#fff"/><path d="M-33.658,439.973l-.27-.616h-1.194l-.27.616H-35.7l1.04-2.273h.27l1.04,2.273Zm-.385-.886-.462-1.079-.462,1.079Z" transform="translate(-73.582 -58.399)" fill="#fff"/><path d="M-33.766,439.38H-35l-.27.616H-35.5l1-2.2h.231l1,2.2H-33.5Zm-.077-.193-.539-1.194-.539,1.194Z" transform="translate(-73.705 -58.46)" fill="#fff"/><path d="M-28.252,439.873l-.039-2H-29.1v-.27h1.926v.27h-.771v2Z" transform="translate(-77.639 -58.337)" fill="#fff"/><path d="M-28.129,437.893H-28.9V437.7h1.811v.193h-.771v2h-.231Z" transform="translate(-77.762 -58.399)" fill="#fff"/><path d="M-22.1,439.935a1.639,1.639,0,0,1-.424-.077,1.052,1.052,0,0,1-.424-.385,1.03,1.03,0,0,1-.154-.655,1.22,1.22,0,0,1,.154-.616,1.374,1.374,0,0,1,.424-.385,1.114,1.114,0,0,1,.655-.116,1.19,1.19,0,0,1,.424.077,1.445,1.445,0,0,1,.385.231v.039l-.193.193-.039-.039a.747.747,0,0,0-.655-.27.62.62,0,0,0-.424.116,1.4,1.4,0,0,0-.347.308.777.777,0,0,0-.116.424,1.026,1.026,0,0,0,.116.462.939.939,0,0,0,.347.308.821.821,0,0,0,.462.116.9.9,0,0,0,.655-.27l.039-.039.193.193-.039.039a.693.693,0,0,1-.347.231,1.385,1.385,0,0,1-.424.077A.752.752,0,0,1-22.1,439.935Z" transform="translate(-81.328 -58.399)" fill="#fff"/><path d="M-22.422,439.819a1.374,1.374,0,0,1-.424-.385.977.977,0,0,1-.154-.616,1.22,1.22,0,0,1,.154-.616,1.374,1.374,0,0,1,.424-.385,1.046,1.046,0,0,1,.616-.116,1.386,1.386,0,0,1,.424.077.693.693,0,0,1,.347.231l-.154.154a.824.824,0,0,0-.693-.27.822.822,0,0,0-.462.116,1.328,1.328,0,0,0-.347.308.822.822,0,0,0-.116.462,1.026,1.026,0,0,0,.116.462.909.909,0,0,0,.347.308.821.821,0,0,0,.462.116.989.989,0,0,0,.693-.27l.154.154a.693.693,0,0,1-.347.231,1.387,1.387,0,0,1-.424.077A.866.866,0,0,1-22.422,439.819Z" transform="translate(-81.389 -58.399)" fill="#fff"/><path d="M-13.982,439.912v-1h-1.31v1H-15.6v-2.273h.308v.963h1.31v-1h.347v2.312Z" transform="translate(-85.938 -58.337)" fill="#fff"/><path d="M-13.551,437.739v2.2h-.231v-1h-1.387v1H-15.4v-2.2h.231v.963h1.387v-1h.231Z" transform="translate(-86.061 -58.399)" fill="#fff"/><path d="M-3.6,439.7a.993.993,0,0,1-.771.27.92.92,0,0,1-.347-.077.691.691,0,0,1-.27-.193A.512.512,0,0,1-5.1,439.4a.862.862,0,0,1,.116-.385.839.839,0,0,1,.347-.27l.039-.039c-.116-.116-.154-.193-.154-.27a.489.489,0,0,1-.039-.231.458.458,0,0,1,.154-.385.776.776,0,0,1,.424-.116.575.575,0,0,1,.385.116.471.471,0,0,1,.116.347.513.513,0,0,1-.116.308,2.206,2.206,0,0,1-.308.27l.539.539c.039-.116.077-.231.116-.385v-.039h.039l.231.039v.039a1.877,1.877,0,0,1-.154.424l-.039.116.308.308-.193.193Zm-.886-.848a3.134,3.134,0,0,0-.308.231.135.135,0,0,0-.039.077.294.294,0,0,0-.077.193c0,.116.039.154.154.231a.621.621,0,0,0,.347.116.946.946,0,0,0,.578-.193Zm.193-.963c-.116,0-.193.039-.193.077a.292.292,0,0,0-.077.154v.039c0,.038.039.077.039.154.039,0,.116.077.154.193a.96.96,0,0,0,.27-.193.294.294,0,0,0,.077-.193.2.2,0,0,0-.077-.154A.226.226,0,0,0-4.291,437.893Z" transform="translate(-92.393 -58.399)" fill="#fff"/><path d="M-3.228,440.1l-.27-.308a.993.993,0,0,1-.771.27.92.92,0,0,1-.347-.077.691.691,0,0,1-.27-.193.416.416,0,0,1-.116-.27.621.621,0,0,1,.116-.347,1.337,1.337,0,0,1,.424-.308c-.116-.116-.193-.193-.193-.27a.489.489,0,0,1-.039-.231.418.418,0,0,1,.154-.347.651.651,0,0,1,.385-.116.471.471,0,0,1,.347.116.438.438,0,0,1,.116.308.35.35,0,0,1-.116.27,1.354,1.354,0,0,1-.347.27l.616.616a1.38,1.38,0,0,0,.154-.424l.193.039a3.02,3.02,0,0,1-.193.539l.308.308Zm-.462-.462-.693-.694a1.536,1.536,0,0,0-.347.27.575.575,0,0,0-.116.27.291.291,0,0,0,.154.27.651.651,0,0,0,.385.116A.813.813,0,0,0-3.69,439.634Zm-.771-1.58a.294.294,0,0,0-.077.193,1.669,1.669,0,0,1,.039.193,1.467,1.467,0,0,1,.193.231A.7.7,0,0,0-4,438.439a.294.294,0,0,0,.077-.193A.294.294,0,0,0-4,438.054a.325.325,0,0,0-.231-.077A.325.325,0,0,0-4.461,438.054Z" transform="translate(-92.454 -58.522)" fill="#fff"/><path d="M4.716,440.05h0l-.231-.116c-.039,0-.077-.039-.116-.039a.518.518,0,0,1-.27-.231v-.038l.154-.231.039.039a.523.523,0,0,0,.424.27c.231,0,.347-.116.347-.424v-1.31H4.293v-.27H5.41v1.58a.929.929,0,0,1-.154.578.921.921,0,0,1-.539.193Z" transform="translate(-98.048 -58.399)" fill="#fff"/><path d="M4.47,439.919a.518.518,0,0,1-.27-.231l.116-.154a.5.5,0,0,0,.462.27c.27,0,.385-.154.385-.462v-1.349H4.393V437.8h1.04v1.541a.815.815,0,0,1-.154.539.638.638,0,0,1-.462.193,2.434,2.434,0,0,0-.347-.154Z" transform="translate(-98.11 -58.46)" fill="#fff"/><path d="M10.3,439.973V437.7h1.58v.27H10.608v.693h1.156v.27H10.608v.771h1.31v.27Z" transform="translate(-101.86 -58.399)" fill="#fff"/><path d="M11.98,439.8V440H10.4v-2.2h1.541v.193H10.67v.771h1.156v.193H10.67v.848Z" transform="translate(-101.921 -58.46)" fill="#fff"/><path d="M18.25,439.973l-.655-1.811-.616,1.811h-.27L15.9,437.7h.308l.655,1.811.655-1.811h.231l.616,1.849.655-1.849h.308l-.809,2.273Z" transform="translate(-105.302 -58.399)" fill="#fff"/><path d="M19.413,437.8l-.771,2.2h-.231l-.655-1.888L17.1,440h-.231l-.771-2.2h.231l.655,1.888.693-1.888h.193l.655,1.926.655-1.926Z" transform="translate(-105.425 -58.46)" fill="#fff"/><path d="M26.7,439.973V437.7h1.58v.27H27.008v.693h1.156v.27H27.008v.771h1.31v.27Z" transform="translate(-111.941 -58.399)" fill="#fff"/><path d="M28.38,439.8V440H26.8v-2.2h1.541v.193H27.07v.771h1.156v.193H27.07v.848Z" transform="translate(-112.003 -58.46)" fill="#fff"/><path d="M33.2,439.973V437.7h.308v2H34.78v.27Z" transform="translate(-115.937 -58.399)" fill="#fff"/><path d="M33.339,437.8h.231v2H34.8V440H33.3v-2.2Z" transform="translate(-115.998 -58.46)" fill="#fff"/><path d="M39.1,439.973V437.7h.308v2h1.233v.27Z" transform="translate(-119.564 -58.399)" fill="#fff"/><path d="M39.2,437.8h.27v2H40.7V440H39.2Z" transform="translate(-119.625 -58.46)" fill="#fff"/><path d="M45,439.973V437.7h1.58v.27H45.308v.693h1.156v.27H45.308v.771h1.348v.27Z" transform="translate(-123.19 -58.399)" fill="#fff"/><path d="M46.68,439.8V440H45.1v-2.2h1.541v.193H45.37v.771h1.156v.193H45.37v.848Z" transform="translate(-123.252 -58.46)" fill="#fff"/><path d="M52.918,439.912l-.578-.732h-.732v.693H51.3V437.6h.886a1.475,1.475,0,0,1,.732.193.758.758,0,0,1,.231.616,1.026,1.026,0,0,1-.116.462,1.038,1.038,0,0,1-.308.27l.539.809h-.347Zm-.693-.925.116-.039a.616.616,0,0,0,.385-.193.533.533,0,0,0,.193-.347c0-.193-.039-.27-.154-.347-.116-.116-.27-.116-.539-.116h-.578v1.04Z" transform="translate(-127.063 -58.337)" fill="#fff"/><path d="M53.08,439.935l-.539-.732h-.809v.693H51.5v-2.2h.848a1.231,1.231,0,0,1,.693.193.676.676,0,0,1,.231.578.776.776,0,0,1-.116.424.839.839,0,0,1-.347.27l.539.771Zm-.193-1.079a.535.535,0,0,0,.193-.385c0-.193-.039-.308-.193-.385-.116-.116-.27-.116-.539-.116h-.616v1.117h.616A1.414,1.414,0,0,0,52.887,438.856Z" transform="translate(-127.186 -58.399)" fill="#fff"/><path d="M58.325,439.973v-.809L57.4,437.7h.308l.732,1.194.771-1.194h.347l-.963,1.5v.771Z" transform="translate(-130.813 -58.399)" fill="#fff"/><path d="M58.717,439.226V440h-.231v-.771L57.6,437.8h.231l.771,1.233.771-1.233h.27Z" transform="translate(-130.936 -58.46)" fill="#fff"/><path d="M68.209,440.219a1.987,1.987,0,0,1-.424-.077.482.482,0,0,1-.347-.193h0l.116-.27.039.039c.039.039.116.077.154.116s.077.039.154.077a1.431,1.431,0,0,0,.347.077c.193,0,.347-.039.385-.116.077-.077.154-.154.154-.231a.2.2,0,0,0-.077-.154.842.842,0,0,0-.193-.116c-.039,0-.077-.039-.154-.039-.039,0-.116-.039-.154-.039-.154-.039-.27-.077-.385-.116a.838.838,0,0,1-.308-.193.471.471,0,0,1-.116-.347.557.557,0,0,1,.077-.27.434.434,0,0,1,.308-.193,1.989,1.989,0,0,1,.424-.077.347.347,0,0,1,.193.039h.154a.294.294,0,0,1,.193.077c.039,0,.077.039.116.039H68.9l-.116.193-.116-.039a.65.65,0,0,0-.193-.077.849.849,0,0,0-.308-.039c-.193,0-.347.039-.385.116-.116.077-.154.116-.154.231a.2.2,0,0,0,.077.154c.039.039.116.116.154.116a.232.232,0,0,0,.154.039.232.232,0,0,1,.154.039c.154.039.27.077.385.116a.692.692,0,0,1,.27.193.471.471,0,0,1,.116.347.557.557,0,0,1-.077.27.878.878,0,0,1-.655.308Z" transform="translate(-136.96 -58.645)" fill="#fff"/><path d="M67.847,440.042a.745.745,0,0,1-.347-.193l.077-.193a2.148,2.148,0,0,0,.308.193,1.366,1.366,0,0,0,.385.077.62.62,0,0,0,.424-.116.39.39,0,0,0,.154-.27.294.294,0,0,0-.077-.193.842.842,0,0,0-.193-.116c-.077-.039-.193-.039-.308-.077-.154-.039-.27-.077-.385-.116a.692.692,0,0,1-.27-.193.438.438,0,0,1-.116-.308.557.557,0,0,1,.077-.27.492.492,0,0,1,.27-.193,1.385,1.385,0,0,1,.424-.077c.116,0,.231.039.347.039s.193.077.308.116l-.077.193a.817.817,0,0,0-.27-.116.849.849,0,0,0-.308-.039.619.619,0,0,0-.424.116.291.291,0,0,0-.154.27.3.3,0,0,0,.077.193.328.328,0,0,0,.193.115c.077.039.193.039.308.077.154.039.27.077.385.116a.692.692,0,0,1,.27.193.437.437,0,0,1,.116.308.557.557,0,0,1-.077.27.491.491,0,0,1-.27.193,1.384,1.384,0,0,1-.424.077A1.985,1.985,0,0,1,67.847,440.042Z" transform="translate(-137.022 -58.583)" fill="#fff"/><path d="M73.9,439.973V437.7h.886a1.378,1.378,0,0,1,.732.154.758.758,0,0,1,.231.616.875.875,0,0,1-.231.616,1.1,1.1,0,0,1-.732.193h-.578v.694Zm.809-.963c.27-.039.424-.077.5-.193a.533.533,0,0,0,.193-.347c0-.193-.039-.27-.154-.347-.116-.116-.27-.116-.539-.116h-.578v1Z" transform="translate(-140.956 -58.399)" fill="#fff"/><path d="M75.541,437.954a.676.676,0,0,1,.231.578.784.784,0,0,1-.231.578,1.065,1.065,0,0,1-.693.193h-.616V440H74v-2.2h.848A1.32,1.32,0,0,1,75.541,437.954Zm-.193.963a.535.535,0,0,0,.193-.385c0-.193-.039-.308-.193-.385-.116-.116-.27-.116-.539-.116h-.616v1.079h.616A.882.882,0,0,0,75.348,438.917Z" transform="translate(-141.017 -58.46)" fill="#fff"/><path d="M80.8,439.973V437.7h1.58v.27H81.108v.693h1.156v.27H81.108v.771h1.31v.27Z" transform="translate(-145.198 -58.399)" fill="#fff"/><path d="M82.48,439.8V440H80.9v-2.2h1.541v.193H81.17v.771h1.156v.193H81.17v.848Z" transform="translate(-145.259 -58.46)" fill="#fff"/><path d="M87.763,439.935a1.7,1.7,0,0,1-.385-.077,1.052,1.052,0,0,1-.424-.385,1.03,1.03,0,0,1-.154-.655,1.22,1.22,0,0,1,.154-.616,1.374,1.374,0,0,1,.424-.385,1.114,1.114,0,0,1,.655-.116,1.19,1.19,0,0,1,.424.077,1.445,1.445,0,0,1,.385.231v.039l-.193.193-.039-.039a.747.747,0,0,0-.655-.27.62.62,0,0,0-.424.116,1.4,1.4,0,0,0-.347.308.777.777,0,0,0-.116.424,1.026,1.026,0,0,0,.116.462.939.939,0,0,0,.347.308.821.821,0,0,0,.462.116.9.9,0,0,0,.655-.27l.039-.039.193.193-.039.039a.693.693,0,0,1-.347.231,1.384,1.384,0,0,1-.424.077A.957.957,0,0,1,87.763,439.935Z" transform="translate(-148.886 -58.399)" fill="#fff"/><path d="M87.478,439.819a1.374,1.374,0,0,1-.424-.385.977.977,0,0,1-.154-.616,1.22,1.22,0,0,1,.154-.616,1.374,1.374,0,0,1,.424-.385,1.046,1.046,0,0,1,.616-.116,1.385,1.385,0,0,1,.424.077.693.693,0,0,1,.347.231l-.154.154a1.009,1.009,0,0,0-1.156-.154,1.328,1.328,0,0,0-.347.308.822.822,0,0,0-.116.462,1.026,1.026,0,0,0,.116.462.909.909,0,0,0,.347.308.821.821,0,0,0,.462.116.989.989,0,0,0,.694-.27l.154.154a.693.693,0,0,1-.347.231,1.387,1.387,0,0,1-.424.077A.842.842,0,0,1,87.478,439.819Z" transform="translate(-148.947 -58.399)" fill="#fff"/><rect width="0.308" height="2.273" transform="translate(-59.196 379.301)" fill="#fff"/><path d="M94.4,437.8h.231V440H94.4Z" transform="translate(-153.558 -58.46)" fill="#fff"/><path d="M98.742,439.973l-.231-.616H97.316l-.27.616H96.7l1.04-2.273h.27l1.04,2.273Zm-.347-.886-.462-1.079-.462,1.079Z" transform="translate(-154.972 -58.399)" fill="#fff"/><path d="M98.672,439.38H97.439l-.27.616H96.9l1-2.2h.231l1,2.2H98.9Zm-.077-.193-.539-1.194-.539,1.194Z" transform="translate(-155.095 -58.46)" fill="#fff"/><path d="M104.6,439.973V437.7h.308v2h1.233v.27Z" transform="translate(-159.828 -58.399)" fill="#fff"/><path d="M104.739,437.8h.231v2H106.2V440h-1.5v-2.2Z" transform="translate(-159.889 -58.46)" fill="#fff"/><rect width="0.308" height="2.273" transform="translate(-52.878 379.301)" fill="#fff"/><path d="M110.8,437.8h.231V440H110.8Z" transform="translate(-163.639 -58.46)" fill="#fff"/><path d="M114.209,440.158a1.993,1.993,0,0,1-.424-.077.482.482,0,0,1-.347-.193h0l.116-.27.039.039c.039.038.116.077.154.116s.077.039.154.077a1.426,1.426,0,0,0,.347.077c.193,0,.347-.038.385-.116.116-.077.154-.116.154-.231a.2.2,0,0,0-.077-.154.841.841,0,0,0-.193-.116c-.039,0-.077-.039-.154-.039-.039,0-.116-.039-.154-.039-.154-.039-.27-.077-.385-.116a.838.838,0,0,1-.308-.193.471.471,0,0,1-.116-.347.557.557,0,0,1,.077-.27c.039-.116.193-.193.308-.231a1.989,1.989,0,0,1,.424-.077.347.347,0,0,1,.193.039h.154a.294.294,0,0,1,.193.077c.039,0,.077.039.116.039h.039l-.116.27-.116-.038a.649.649,0,0,0-.193-.077.847.847,0,0,0-.308-.039c-.193,0-.347.039-.385.116a.279.279,0,0,0-.154.231.2.2,0,0,0,.077.154c.039.038.116.115.154.115a.232.232,0,0,0,.154.039.231.231,0,0,1,.154.039c.154.039.27.077.385.116a.692.692,0,0,1,.27.193.471.471,0,0,1,.116.347.557.557,0,0,1-.077.27.434.434,0,0,1-.308.193C114.556,440.119,114.4,440.158,114.209,440.158Z" transform="translate(-165.238 -58.583)" fill="#fff"/><path d="M113.947,440.042a.745.745,0,0,1-.347-.193l.077-.193a2.147,2.147,0,0,0,.308.193,1.366,1.366,0,0,0,.385.077.62.62,0,0,0,.424-.116.291.291,0,0,0,.154-.27.294.294,0,0,0-.077-.193.842.842,0,0,0-.193-.116c-.077-.039-.193-.039-.308-.077-.154-.039-.27-.077-.385-.116a.692.692,0,0,1-.27-.193.438.438,0,0,1-.116-.308.557.557,0,0,1,.077-.27.492.492,0,0,1,.27-.193,1.386,1.386,0,0,1,.424-.077c.116,0,.231.039.347.039s.193.077.308.116l-.077.193a.817.817,0,0,0-.27-.116.849.849,0,0,0-.308-.039.619.619,0,0,0-.424.116.291.291,0,0,0-.154.27.3.3,0,0,0,.077.193.328.328,0,0,0,.193.115c.077.039.193.039.308.077.154.039.27.077.385.116a.692.692,0,0,1,.27.193.437.437,0,0,1,.116.308.557.557,0,0,1-.077.27.491.491,0,0,1-.27.193,1.384,1.384,0,0,1-.424.077,1.985,1.985,0,0,1-.424-.077Z" transform="translate(-165.36 -58.583)" fill="#fff"/><path d="M120.109,439.873l-.039-2H119.3v-.27h1.849v.27h-.771v2Z" transform="translate(-168.864 -58.337)" fill="#fff"/><path d="M120.171,437.893H119.4V437.7h1.811v.193h-.771v2h-.231l-.039-2Z" transform="translate(-168.926 -58.399)" fill="#fff"/><path d="M-146.8,439h1.426v1.426H-146.8Z" transform="translate(-5.287 -59.198)" fill="#fff"/><path d="M130.7,439h1.426v1.426H130.7Z" transform="translate(-175.872 -59.198)" fill="#fff"/></g></svg>