<svg xmlns="http://www.w3.org/2000/svg" width="123.542" height="41.592" viewBox="0 0 123.542 41.592"><g transform="translate(155.4 -342.7)"><path d="M-147.929,399.788a5.552,5.552,0,0,0,1.646-.247v1.728h-.123v-.247a.817.817,0,0,0-.782-.823h-2.551v8.1a.861.861,0,0,0,.864.823h.165v.123h-2.921v-.123h.165a.861.861,0,0,0,.864-.823v-8.1h-2.551a.847.847,0,0,0-.782.823v.206h-.165V399.5a5.33,5.33,0,0,0,1.646.247Z" transform="translate(-0.765 -33.433)" fill="#fff"/><path d="M-125.141,409.662v-.123h.165a.861.861,0,0,0,.864-.823v-3.5h-5.554v3.456a.869.869,0,0,0,.864.864h.165v.123H-131.6v-.123h.165a.869.869,0,0,0,.864-.864v-7.487a.869.869,0,0,0-.864-.864h-.165V400.2h2.962v.123h-.165a.869.869,0,0,0-.864.864v3.579h5.513v-3.62a.861.861,0,0,0-.864-.823h-.165V400.2h2.962v.123h-.165a.869.869,0,0,0-.864.864v7.487a.869.869,0,0,0,.864.864h.165v.123Z" transform="translate(-14.009 -33.845)" fill="#fff"/><path d="M-98.305,409.309H-103.9v-.123h.165a.869.869,0,0,0,.864-.864v-7.57a.887.887,0,0,0-.864-.782h-.165v-.123h3.949a5.039,5.039,0,0,0,1.6-.247v1.728h-.123v-.206a.845.845,0,0,0-.782-.823h-2.8v4.155h2.263a.65.65,0,0,0,.658-.658v-.206H-99v2.139h-.123v-.206a.65.65,0,0,0-.658-.658h-2.3v4.073h1.934a2.341,2.341,0,0,0,2.386-1.769h.206Z" transform="translate(-30.313 -33.492)" fill="#fff"/><path d="M-68.423,407.523l-.823,2.18H-74.8v-.123h.165a.869.869,0,0,0,.864-.864v-7.529a.869.869,0,0,0-.864-.864H-74.8V400.2h2.962v.123H-72a.869.869,0,0,0-.864.864v8.1h1.934a2.341,2.341,0,0,0,2.386-1.769Z" transform="translate(-47.442 -33.845)" fill="#fff"/><path d="M-46.9,400.2v.123h-.206a.72.72,0,0,0-.741.658v5.348a3.391,3.391,0,0,1-3.62,3.538,3.417,3.417,0,0,1-3.744-3.5v-5.348a.673.673,0,0,0-.741-.658H-56.2v-.123h2.756v.123h-.247a.72.72,0,0,0-.741.658v5.184c0,1.975,1.152,3.291,2.88,3.291a2.916,2.916,0,0,0,3.044-3.127v-5.348a.724.724,0,0,0-.741-.658h-.206v-.123Z" transform="translate(-58.39 -33.845)" fill="#fff"/><path d="M-22.3,409.48v.123h-3.291v-.123h.165a.536.536,0,0,0,.453-.823l-2.1-3.291-2.1,3.291a.575.575,0,0,0,.453.823h.165v.123H-31.6v-.123h.206a1.667,1.667,0,0,0,1.358-.823l2.633-3.867-2.345-3.744a1.841,1.841,0,0,0-1.358-.823h-.206V400.1h3.291v.123h-.206a.543.543,0,0,0-.453.823l1.851,2.962,1.851-2.921a.558.558,0,0,0-.453-.823h-.206v-.082h3.044v.123H-22.8a1.667,1.667,0,0,0-1.358.823l-2.345,3.456,2.633,4.155a1.841,1.841,0,0,0,1.358.823h.165l.041-.082Z" transform="translate(-72.869 -33.786)" fill="#fff"/><path d="M2.556,400.2v.123H2.351a.72.72,0,0,0-.741.658v5.348a3.391,3.391,0,0,1-3.62,3.538,3.417,3.417,0,0,1-3.744-3.5v-5.348a.673.673,0,0,0-.741-.658H-6.7v-.123h2.756v.123h-.206a.72.72,0,0,0-.741.658v5.184c0,1.975,1.152,3.291,2.88,3.291a2.916,2.916,0,0,0,3.044-3.127v-5.348a.724.724,0,0,0-.741-.658H.088v-.123Z" transform="translate(-87.526 -33.845)" fill="#fff"/><path d="M23.679,400.2a2.423,2.423,0,0,1,2.674,2.51,2.462,2.462,0,0,1-2.263,2.551,3.037,3.037,0,0,1,.987.946,24.286,24.286,0,0,0,1.687,2.222,2.454,2.454,0,0,0,1.851,1.028v.123h-.782a2.936,2.936,0,0,1-2.345-1.193c-.123-.165-1.687-2.386-1.769-2.509-.329-.453-.741-.905-1.234-.905v-.123h.741a2,2,0,0,0,2.1-1.4,4.244,4.244,0,0,0,.082-.823c-.041-1.234-.7-2.016-1.687-2.057-.7-.041-1.481,0-1.687,0v8.063a.869.869,0,0,0,.864.864h.165v.123H20.1V409.5h.165a.869.869,0,0,0,.864-.864v-7.446a.869.869,0,0,0-.864-.864H20.1V400.2Z" transform="translate(-103.3 -33.845)" fill="#fff"/><path d="M47.815,400.141v.123H47.61a1.667,1.667,0,0,0-1.358.823l-2.715,4.32v3.209a.869.869,0,0,0,.864.864h.165v.123H41.644v-.123h.165a.869.869,0,0,0,.864-.864v-3.25l-2.551-4.32a1.77,1.77,0,0,0-1.358-.823H38.6V400.1h3.332v.123h-.165a.543.543,0,0,0-.453.823l2.016,3.826,2.18-3.826a.575.575,0,0,0-.453-.823h-.165V400.1Z" transform="translate(-114.189 -33.786)" fill="#fff"/><path d="M79.159,409.662v-.123h.165a.861.861,0,0,0,.864-.823v-3.5H74.634v3.456a.869.869,0,0,0,.864.864h.165v.123H72.7v-.123h.165a.869.869,0,0,0,.864-.864v-7.487a.869.869,0,0,0-.864-.864H72.7V400.2h2.962v.123H75.5a.869.869,0,0,0-.864.864v3.579h5.554v-3.62a.861.861,0,0,0-.864-.823h-.165V400.2h2.962v.123h-.165a.869.869,0,0,0-.864.864v7.487a.869.869,0,0,0,.864.864h.165v.123Z" transform="translate(-134.261 -33.845)" fill="#fff"/><path d="M109.3,400.2v.123h-.206a.72.72,0,0,0-.741.658v5.348a3.686,3.686,0,0,1-7.364.041v-5.348a.673.673,0,0,0-.741-.658H100v-.123h2.756v.123h-.247a.72.72,0,0,0-.741.658v5.184c0,1.975,1.152,3.291,2.88,3.291a2.916,2.916,0,0,0,3.044-3.127v-5.348a.724.724,0,0,0-.741-.658h-.206v-.123Z" transform="translate(-150.33 -33.845)" fill="#fff"/><path d="M132.071,399.788a5.552,5.552,0,0,0,1.646-.247v1.728h-.123v-.247a.817.817,0,0,0-.782-.823h-2.551v8.1a.862.862,0,0,0,.864.823h.165v.123h-2.962v-.123h.165a.861.861,0,0,0,.864-.823v-8.1h-2.551a.847.847,0,0,0-.782.823v.206H125.9V399.5a5.33,5.33,0,0,0,1.646.247Z" transform="translate(-165.574 -33.433)" fill="#fff"/><path d="M-155.4,429.353v-.411l.206-.041H-31.9v.411l-.206.041Z" transform="translate(0 -50.738)" fill="#fff"/><path d="M-154.8,429.4H-31.752v.041H-154.8Z" transform="translate(-0.353 -51.032)" fill="#fff"/><path d="M-23.7,342.7v.946H-9.388v18.225h-4.237v.946h5.184V342.7Zm-3.949.946h3.291V342.7H-28.6v20.076h14.317v-.905h-13.37Z" transform="translate(-74.635 0)" fill="#fff"/><path d="M-.856,365.208H-4.6V354.8h.946v9.462h2.8Z" transform="translate(-88.762 -7.122)" fill="#fff"/><path d="M-15.754,365.267H-16.7V354.9h3.744v.905h-2.8Z" transform="translate(-81.639 -7.181)" fill="#fff"/><path d="M8.8,354.8h.946v10.367H8.8Z" transform="translate(-96.649 -7.122)" fill="#fff"/><path d="M2,366H4.962v.946H2Z" transform="translate(-92.646 -13.715)" fill="#fff"/><path d="M-23,354.9h1.975v.946H-23Z" transform="translate(-77.931 -7.181)" fill="#fff"/><path d="M-135.395,440.027c-.041,0-.082,0-.082-2.139h-.823V437.6h2.016v.288h-.823v2.139Z" transform="translate(-11.242 -55.859)" fill="#fff"/><path d="M-135.477,437.906h-.823V437.7h1.934v.206h-.823v2.139h-.247C-135.477,440.045-135.477,437.906-135.477,437.906Z" transform="translate(-11.242 -55.917)" fill="#fff"/><path d="M-127.872,440.068V439h-1.4v1.07h-.329v-2.427h.329v1.029h1.4V437.6h.329v2.468Z" transform="translate(-15.186 -55.859)" fill="#fff"/><path d="M-127.466,437.741v2.345h-.206v-1.07h-1.481v1.07h-.247v-2.345h.247v1.029h1.481V437.7h.206Z" transform="translate(-15.304 -55.917)" fill="#fff"/><path d="M-122.1,440.127V437.7h1.728v.288h-1.316v.74h1.234v.288h-1.234v.823h1.358v.288Z" transform="translate(-19.601 -55.917)" fill="#fff"/><path d="M-120.213,439.939v.206H-121.9V437.8h1.646v.206h-1.358v.823h1.234v.206h-1.234v.905Z" transform="translate(-19.718 -55.976)" fill="#fff"/><path d="M-112.4,440.127V437.7h.946a1.3,1.3,0,0,1,.782.165.757.757,0,0,1,.247.658.934.934,0,0,1-.247.658,1.173,1.173,0,0,1-.782.206h-.617v.741Zm.987-1.029c.288-.041.453-.082.535-.206a.569.569,0,0,0,.206-.37c0-.206-.041-.288-.165-.37-.123-.123-.288-.123-.576-.123h-.617v1.07Z" transform="translate(-25.31 -55.917)" fill="#fff"/><path d="M-110.554,437.965a.722.722,0,0,1,.247.617.837.837,0,0,1-.247.617,1.137,1.137,0,0,1-.741.206h-.658v.74h-.247V437.8h.905A1.237,1.237,0,0,1-110.554,437.965Zm-.165,1.029a.571.571,0,0,0,.206-.411c0-.206-.041-.329-.206-.411-.123-.123-.288-.123-.576-.123h-.658V439.2h.658A.942.942,0,0,0-110.719,438.993Z" transform="translate(-25.428 -55.976)" fill="#fff"/><path d="M-103.872,440.068l-.617-.782h-.782v.74h-.329V437.6h.987a1.576,1.576,0,0,1,.782.206.757.757,0,0,1,.247.658,1.1,1.1,0,0,1-.123.494,1.281,1.281,0,0,1-.37.288l.576.864h-.37Zm-.7-.987a.247.247,0,0,1,.165-.041c.165-.041.288-.082.329-.165a.569.569,0,0,0,.206-.37c0-.206-.041-.288-.165-.37-.123-.123-.288-.123-.576-.123h-.617v1.111h.658Z" transform="translate(-29.313 -55.859)" fill="#fff"/><path d="M-103.713,440.086l-.576-.782h-.864v.74h-.247V437.7h.946a1.315,1.315,0,0,1,.741.206.722.722,0,0,1,.247.617.829.829,0,0,1-.123.453,1.051,1.051,0,0,1-.411.288l.576.823Zm-.206-1.152a.571.571,0,0,0,.206-.411c0-.206-.041-.329-.206-.411-.123-.123-.288-.123-.576-.123h-.658v1.193h.7C-104.248,439.1-104,439.058-103.919,438.934Z" transform="translate(-29.43 -55.917)" fill="#fff"/><path d="M-98.4,440.127V437.7h1.769v.288h-1.358v.74h1.234v.288h-1.234v.823h1.4v.288Z" transform="translate(-33.55 -55.917)" fill="#fff"/><path d="M-96.513,439.939v.206H-98.2V437.8h1.646v.206h-1.358v.823h1.234v.206h-1.234v.905Z" transform="translate(-33.668 -55.976)" fill="#fff"/><rect width="0.987" height="0.288" transform="translate(-129.564 383.099)" fill="#fff"/><path d="M-92.4,441h.905v.206H-92.4Z" transform="translate(-37.082 -57.86)" fill="#fff"/><path d="M-87.13,440.027a1.477,1.477,0,0,1-.453-.082,1.113,1.113,0,0,1-.453-.411,1.1,1.1,0,0,1-.165-.7,1.3,1.3,0,0,1,.165-.658,1.466,1.466,0,0,1,.453-.411,1.177,1.177,0,0,1,.7-.165,1.706,1.706,0,0,1,.658.123,1.123,1.123,0,0,1,.453.411,1.1,1.1,0,0,1,.165.7,1.207,1.207,0,0,1-.165.658,1.467,1.467,0,0,1-.453.411,1.191,1.191,0,0,1-.7.123Zm.206-2.057a.977.977,0,0,0-.494.123,1.493,1.493,0,0,0-.37.329.829.829,0,0,0-.123.453,1.1,1.1,0,0,0,.123.494,1,1,0,0,0,.37.329.877.877,0,0,0,.494.123.739.739,0,0,0,.453-.123,1.253,1.253,0,0,0,.329-.329.829.829,0,0,0,.123-.453,1.1,1.1,0,0,0-.123-.494,1.252,1.252,0,0,0-.329-.329A.829.829,0,0,0-86.925,437.97Z" transform="translate(-39.554 -55.859)" fill="#fff"/><path d="M-87.483,439.9a1.467,1.467,0,0,1-.453-.411,1.044,1.044,0,0,1-.165-.658,1.3,1.3,0,0,1,.165-.658,1.467,1.467,0,0,1,.453-.411,1.122,1.122,0,0,1,.658-.165,1.863,1.863,0,0,1,.658.123,1.468,1.468,0,0,1,.453.411,1.044,1.044,0,0,1,.165.658,1.411,1.411,0,0,1-.165.658,1.468,1.468,0,0,1-.453.411,1.117,1.117,0,0,1-.658.123A1.076,1.076,0,0,1-87.483,439.9Zm1.111-.206a1.252,1.252,0,0,0,.329-.329.877.877,0,0,0,.123-.494,1.1,1.1,0,0,0-.123-.494,1.251,1.251,0,0,0-.329-.329.877.877,0,0,0-.494-.123.977.977,0,0,0-.494.123,1.419,1.419,0,0,0-.37.329.877.877,0,0,0-.123.494,1.1,1.1,0,0,0,.123.494.971.971,0,0,0,.37.329.877.877,0,0,0,.494.123A.977.977,0,0,0-86.372,439.7Z" transform="translate(-39.613 -55.859)" fill="#fff"/><path d="M-78.39,440.127l-.7-1.934-.658,1.934h-.288L-80.9,437.7h.329l.7,1.934.7-1.934h.247l.658,1.975.7-1.975h.329l-.864,2.427Z" transform="translate(-43.851 -55.917)" fill="#fff"/><path d="M-77.162,437.8l-.823,2.345h-.247l-.7-2.016-.7,2.016h-.247L-80.7,437.8h.247l.7,2.016.741-2.016h.206l.7,2.057.7-2.057Z" transform="translate(-43.969 -55.976)" fill="#fff"/><path d="M-68.09,440.068l-1.44-1.851v1.851h-.37v-2.427h.247l1.44,1.81V437.6h.37v2.468Z" transform="translate(-50.326 -55.859)" fill="#fff"/><path d="M-67.766,437.741v2.345h-.206l-1.481-1.934v1.934H-69.7v-2.345h.206l1.481,1.892V437.7h.247Z" transform="translate(-50.443 -55.917)" fill="#fff"/><path d="M-62.4,440.127V437.7h1.769v.288h-1.358v.74h1.234v.288h-1.234v.823h1.4v.288Z" transform="translate(-54.74 -55.917)" fill="#fff"/><path d="M-60.513,439.939v.206H-62.2V437.8h1.646v.206h-1.358v.823h1.234v.206h-1.234v.905Z" transform="translate(-54.858 -55.976)" fill="#fff"/><path d="M-55.8,440.086V437.7h1.028a1.706,1.706,0,0,1,.658.123,1.1,1.1,0,0,1,.453.411,1.122,1.122,0,0,1,.165.658,1.207,1.207,0,0,1-.165.658,1.467,1.467,0,0,1-.453.411,1.191,1.191,0,0,1-.7.123Zm.946-.206h0l.041-.041a1.615,1.615,0,0,0,.576-.123,1.493,1.493,0,0,0,.37-.329.829.829,0,0,0,.123-.453.977.977,0,0,0-.123-.494,1,1,0,0,0-.37-.329,1.09,1.09,0,0,0-.576-.123h-.658v1.851Z" transform="translate(-58.625 -55.917)" fill="#fff"/><path d="M-55.6,437.8h.987a1.706,1.706,0,0,1,.658.123,1.1,1.1,0,0,1,.453.411,1.071,1.071,0,0,1,.165.617,1.161,1.161,0,0,1-.165.617,1.467,1.467,0,0,1-.453.411,1.116,1.116,0,0,1-.658.123H-55.6Zm.946,2.139a1.452,1.452,0,0,0,.576-.123,1.419,1.419,0,0,0,.37-.329.878.878,0,0,0,.123-.494.977.977,0,0,0-.123-.494.97.97,0,0,0-.37-.329,1.09,1.09,0,0,0-.576-.123h-.741v1.934h.741Z" transform="translate(-58.743 -55.976)" fill="#fff"/><path d="M-42.99,440.127l-.658-1.934-.7,1.934h-.288L-45.5,437.7h.329l.7,1.934.7-1.934h.247l.7,1.975.658-1.975h.329l-.864,2.427Z" transform="translate(-64.688 -55.917)" fill="#fff"/><path d="M-41.762,437.8l-.823,2.345h-.247l-.7-2.016-.7,2.016h-.247L-45.3,437.8h.247l.7,2.016.741-2.016h.206l.7,2.057.7-2.057Z" transform="translate(-64.805 -55.976)" fill="#fff"/><path d="M-33.52,440.127l-.288-.658h-1.275l-.288.658H-35.7l1.111-2.427h.288l1.111,2.427Zm-.411-.946-.494-1.152-.494,1.152Z" transform="translate(-70.456 -55.917)" fill="#fff"/><path d="M-33.649,439.487h-1.316l-.288.658H-35.5l1.07-2.345h.247l1.07,2.345h-.247Zm-.082-.206-.576-1.275-.576,1.275Z" transform="translate(-70.574 -55.976)" fill="#fff"/><path d="M-28.195,440.027l-.041-2.139H-29.1V437.6h2.057v.288h-.823v2.139Z" transform="translate(-74.341 -55.859)" fill="#fff"/><path d="M-28.077,437.906H-28.9V437.7h1.934v.206h-.823v2.139h-.247Z" transform="translate(-74.458 -55.917)" fill="#fff"/><path d="M-22.03,440.086a1.75,1.75,0,0,1-.453-.082,1.123,1.123,0,0,1-.453-.411,1.1,1.1,0,0,1-.165-.7,1.3,1.3,0,0,1,.165-.658,1.468,1.468,0,0,1,.453-.411,1.19,1.19,0,0,1,.7-.123,1.27,1.27,0,0,1,.453.082,1.542,1.542,0,0,1,.411.247v.041l-.206.206-.041-.041a.8.8,0,0,0-.7-.288.661.661,0,0,0-.453.123,1.494,1.494,0,0,0-.37.329.83.83,0,0,0-.123.453,1.1,1.1,0,0,0,.123.494,1,1,0,0,0,.37.329.877.877,0,0,0,.494.123.963.963,0,0,0,.7-.288l.041-.041.206.206-.041.041a.74.74,0,0,1-.37.247,1.479,1.479,0,0,1-.453.082A.8.8,0,0,1-22.03,440.086Z" transform="translate(-77.872 -55.917)" fill="#fff"/><path d="M-22.383,439.963a1.467,1.467,0,0,1-.453-.411,1.044,1.044,0,0,1-.165-.658,1.3,1.3,0,0,1,.165-.658,1.468,1.468,0,0,1,.453-.411,1.117,1.117,0,0,1,.658-.123,1.479,1.479,0,0,1,.453.082.74.74,0,0,1,.37.247l-.165.165a.88.88,0,0,0-.741-.288.877.877,0,0,0-.494.123,1.418,1.418,0,0,0-.37.329.877.877,0,0,0-.123.494,1.1,1.1,0,0,0,.123.494.97.97,0,0,0,.37.329.876.876,0,0,0,.494.123,1.056,1.056,0,0,0,.741-.288l.165.164a.74.74,0,0,1-.37.247,1.481,1.481,0,0,1-.453.082A.924.924,0,0,1-22.383,439.963Z" transform="translate(-77.931 -55.917)" fill="#fff"/><path d="M-13.872,440.068V439h-1.4v1.07H-15.6v-2.427h.329v1.029h1.4V437.6h.37v2.468Z" transform="translate(-82.287 -55.859)" fill="#fff"/><path d="M-13.425,437.741v2.345h-.247v-1.07h-1.481v1.07H-15.4v-2.345h.247v1.029h1.481V437.7h.247Z" transform="translate(-82.405 -55.917)" fill="#fff"/><path d="M-3.5,439.839a1.061,1.061,0,0,1-.823.288.983.983,0,0,1-.37-.082.738.738,0,0,1-.288-.206.547.547,0,0,1-.123-.329.92.92,0,0,1,.123-.411.9.9,0,0,1,.37-.288l.041-.041c-.123-.123-.165-.206-.165-.288a.522.522,0,0,1-.041-.247.49.49,0,0,1,.165-.411.829.829,0,0,1,.453-.123.614.614,0,0,1,.411.123.5.5,0,0,1,.123.37.547.547,0,0,1-.123.329,2.356,2.356,0,0,1-.329.288l.576.576c.041-.123.082-.247.123-.411v-.041h.041l.247.041v.041a2.005,2.005,0,0,1-.165.453l-.041.123.329.329-.206.206Zm-.946-.905a3.348,3.348,0,0,0-.329.247.144.144,0,0,0-.041.082.314.314,0,0,0-.082.206c0,.123.041.165.165.247a.663.663,0,0,0,.37.124,1.011,1.011,0,0,0,.617-.206Zm.206-1.028c-.123,0-.206.041-.206.082a.312.312,0,0,0-.082.165v.041c0,.041.041.082.041.165.041,0,.123.082.165.206a1.025,1.025,0,0,0,.288-.206.314.314,0,0,0,.082-.206.214.214,0,0,0-.082-.165A.242.242,0,0,0-4.236,437.906Z" transform="translate(-88.467 -55.917)" fill="#fff"/><path d="M-3.108,440.245l-.288-.329a1.061,1.061,0,0,1-.823.288.983.983,0,0,1-.37-.082.738.738,0,0,1-.288-.206A.444.444,0,0,1-5,439.628a.663.663,0,0,1,.123-.37,1.427,1.427,0,0,1,.453-.329c-.123-.123-.206-.206-.206-.288a.522.522,0,0,1-.041-.247.447.447,0,0,1,.165-.37.7.7,0,0,1,.411-.123.5.5,0,0,1,.37.123.467.467,0,0,1,.123.329.373.373,0,0,1-.123.288,1.446,1.446,0,0,1-.37.288l.658.658a1.474,1.474,0,0,0,.165-.453l.206.041a3.224,3.224,0,0,1-.206.576l.329.329Zm-.494-.494-.741-.741a1.639,1.639,0,0,0-.37.288.614.614,0,0,0-.123.288.311.311,0,0,0,.165.288.7.7,0,0,0,.411.123A.869.869,0,0,0-3.6,439.751Zm-.823-1.687a.314.314,0,0,0-.082.206,1.783,1.783,0,0,1,.041.206,1.566,1.566,0,0,1,.206.247.752.752,0,0,0,.329-.247.314.314,0,0,0,.082-.206.314.314,0,0,0-.082-.206.347.347,0,0,0-.247-.082A.347.347,0,0,0-4.424,438.065Z" transform="translate(-88.526 -56.035)" fill="#fff"/><path d="M4.758,440.21h0l-.247-.123c-.041,0-.082-.041-.123-.041A.553.553,0,0,1,4.1,439.8v-.041l.165-.247.041.041a.558.558,0,0,0,.453.288c.247,0,.37-.123.37-.453v-1.4H4.306V437.7H5.5v1.687a.992.992,0,0,1-.165.617.983.983,0,0,1-.576.206Z" transform="translate(-93.882 -55.917)" fill="#fff"/><path d="M4.488,440.063a.553.553,0,0,1-.288-.247l.123-.165a.537.537,0,0,0,.494.288c.288,0,.411-.165.411-.494v-1.44H4.406V437.8H5.516v1.646a.871.871,0,0,1-.165.576.681.681,0,0,1-.494.206,2.6,2.6,0,0,0-.37-.165Z" transform="translate(-93.941 -55.976)" fill="#fff"/><path d="M10.3,440.127V437.7h1.687v.288H10.629v.74h1.234v.288H10.629v.823h1.4v.288Z" transform="translate(-97.532 -55.917)" fill="#fff"/><path d="M12.087,439.939v.206H10.4V437.8h1.646v.206H10.688v.823h1.234v.206H10.688v.905Z" transform="translate(-97.591 -55.976)" fill="#fff"/><path d="M18.41,440.127l-.7-1.934-.658,1.934h-.288L15.9,437.7h.329l.7,1.934.7-1.934h.247l.658,1.975.7-1.975h.329l-.864,2.427Z" transform="translate(-100.828 -55.917)" fill="#fff"/><path d="M19.638,437.8l-.823,2.345h-.247l-.7-2.016-.7,2.016h-.247L16.1,437.8h.247l.7,2.016.741-2.016h.206l.7,2.057.7-2.057Z" transform="translate(-100.946 -55.976)" fill="#fff"/><path d="M26.7,440.127V437.7h1.687v.288H27.029v.74h1.234v.288H27.029v.823h1.4v.288Z" transform="translate(-107.185 -55.917)" fill="#fff"/><path d="M28.487,439.939v.206H26.8V437.8h1.646v.206H27.088v.823h1.234v.206H27.088v.905Z" transform="translate(-107.244 -55.976)" fill="#fff"/><path d="M33.2,440.127V437.7h.329v2.139h1.358v.288Z" transform="translate(-111.011 -55.917)" fill="#fff"/><path d="M33.341,437.8h.247v2.139H34.9v.206H33.3V437.8Z" transform="translate(-111.07 -55.976)" fill="#fff"/><path d="M39.1,440.127V437.7h.329v2.139h1.316v.288Z" transform="translate(-114.484 -55.917)" fill="#fff"/><path d="M39.2,437.8h.288v2.139H40.8v.206H39.2Z" transform="translate(-114.542 -55.976)" fill="#fff"/><path d="M45,440.127V437.7h1.687v.288H45.329v.74h1.234v.288H45.329v.823h1.44v.288Z" transform="translate(-117.956 -55.917)" fill="#fff"/><path d="M46.787,439.939v.206H45.1V437.8h1.646v.206H45.388v.823h1.234v.206H45.388v.905Z" transform="translate(-118.015 -55.976)" fill="#fff"/><path d="M53.028,440.068l-.617-.782h-.782v.74H51.3V437.6h.946a1.576,1.576,0,0,1,.782.206.81.81,0,0,1,.247.658,1.1,1.1,0,0,1-.123.494,1.109,1.109,0,0,1-.329.288l.576.864h-.37Zm-.741-.987.123-.041a.657.657,0,0,0,.411-.206.569.569,0,0,0,.206-.37c0-.206-.041-.288-.165-.37-.123-.123-.288-.123-.576-.123H51.67v1.111Z" transform="translate(-121.665 -55.859)" fill="#fff"/><path d="M53.187,440.086l-.576-.782h-.864v.74H51.5V437.7h.905a1.315,1.315,0,0,1,.741.206.722.722,0,0,1,.247.617.829.829,0,0,1-.123.453.9.9,0,0,1-.37.288l.576.823Zm-.206-1.152a.571.571,0,0,0,.206-.411c0-.206-.041-.329-.206-.411-.123-.123-.288-.123-.576-.123h-.658v1.193h.658A1.51,1.51,0,0,0,52.981,438.934Z" transform="translate(-121.782 -55.917)" fill="#fff"/><path d="M58.387,440.127v-.864L57.4,437.7h.329l.782,1.275.823-1.275h.37l-1.028,1.6v.823Z" transform="translate(-125.255 -55.917)" fill="#fff"/><path d="M58.793,439.322v.823h-.247v-.823L57.6,437.8h.247l.823,1.316.823-1.316h.288Z" transform="translate(-125.373 -55.976)" fill="#fff"/><path d="M68.264,440.363a2.122,2.122,0,0,1-.453-.082.515.515,0,0,1-.37-.206h0l.123-.288.041.041c.041.041.123.082.165.123s.082.041.165.082a1.527,1.527,0,0,0,.37.082c.206,0,.37-.041.411-.123.082-.082.165-.165.165-.247a.214.214,0,0,0-.082-.165.9.9,0,0,0-.206-.123c-.041,0-.082-.041-.165-.041-.041,0-.123-.041-.165-.041-.165-.041-.288-.082-.411-.123a.9.9,0,0,1-.329-.206.5.5,0,0,1-.123-.37.6.6,0,0,1,.082-.288.463.463,0,0,1,.329-.206,2.123,2.123,0,0,1,.453-.082.37.37,0,0,1,.206.041h.165a.314.314,0,0,1,.206.082c.041,0,.082.041.123.041H69l-.123.206-.123-.041a.7.7,0,0,0-.206-.082.906.906,0,0,0-.329-.041c-.206,0-.37.041-.411.123-.123.082-.165.123-.165.247a.214.214,0,0,0,.082.165c.041.041.123.123.165.123a.247.247,0,0,0,.165.041.247.247,0,0,1,.165.041c.165.041.288.082.411.123a.739.739,0,0,1,.288.206.5.5,0,0,1,.123.37.6.6,0,0,1-.082.288.938.938,0,0,1-.7.329Z" transform="translate(-131.141 -56.153)" fill="#fff"/><path d="M67.87,440.18a.8.8,0,0,1-.37-.206l.082-.206a2.3,2.3,0,0,0,.329.206,1.459,1.459,0,0,0,.411.082.662.662,0,0,0,.453-.123.416.416,0,0,0,.165-.288.314.314,0,0,0-.082-.206.9.9,0,0,0-.206-.123c-.082-.041-.206-.041-.329-.082-.165-.041-.288-.082-.411-.123a.739.739,0,0,1-.288-.206.467.467,0,0,1-.123-.329.6.6,0,0,1,.082-.288.525.525,0,0,1,.288-.206,1.479,1.479,0,0,1,.453-.082c.123,0,.247.041.37.041s.206.082.329.123l-.082.206a.872.872,0,0,0-.288-.123.906.906,0,0,0-.329-.041.661.661,0,0,0-.453.123.311.311,0,0,0-.165.288.315.315,0,0,0,.082.206.35.35,0,0,0,.206.123c.082.041.206.041.329.082.165.041.288.082.411.123a.739.739,0,0,1,.288.206.467.467,0,0,1,.123.329.6.6,0,0,1-.082.288.524.524,0,0,1-.288.206,1.477,1.477,0,0,1-.453.082A2.119,2.119,0,0,1,67.87,440.18Z" transform="translate(-131.2 -56.094)" fill="#fff"/><path d="M73.9,440.127V437.7h.946a1.471,1.471,0,0,1,.782.165.81.81,0,0,1,.247.658.934.934,0,0,1-.247.658,1.173,1.173,0,0,1-.782.206h-.617v.741Zm.864-1.029c.288-.041.453-.082.535-.206a.569.569,0,0,0,.206-.37c0-.206-.041-.288-.165-.37-.123-.123-.288-.123-.576-.123h-.617v1.07Z" transform="translate(-134.967 -55.917)" fill="#fff"/><path d="M75.646,437.965a.722.722,0,0,1,.247.617.837.837,0,0,1-.247.617,1.137,1.137,0,0,1-.741.206h-.658v.74H74V437.8h.905A1.409,1.409,0,0,1,75.646,437.965Zm-.206,1.029a.571.571,0,0,0,.206-.411c0-.206-.041-.329-.206-.411-.123-.123-.288-.123-.576-.123h-.658V439.2h.658A.942.942,0,0,0,75.44,438.993Z" transform="translate(-135.026 -55.976)" fill="#fff"/><path d="M80.8,440.127V437.7h1.687v.288H81.129v.74h1.234v.288H81.129v.823h1.4v.288Z" transform="translate(-139.028 -55.917)" fill="#fff"/><path d="M82.587,439.939v.206H80.9V437.8h1.646v.206H81.188v.823h1.234v.206H81.188v.905Z" transform="translate(-139.087 -55.976)" fill="#fff"/><path d="M87.828,440.086a1.81,1.81,0,0,1-.411-.082,1.123,1.123,0,0,1-.453-.411,1.1,1.1,0,0,1-.165-.7,1.3,1.3,0,0,1,.165-.658,1.468,1.468,0,0,1,.453-.411,1.19,1.19,0,0,1,.7-.123,1.27,1.27,0,0,1,.453.082,1.542,1.542,0,0,1,.411.247v.041l-.206.206-.041-.041a.8.8,0,0,0-.7-.288.661.661,0,0,0-.453.123,1.494,1.494,0,0,0-.37.329.83.83,0,0,0-.123.453,1.1,1.1,0,0,0,.123.494,1,1,0,0,0,.37.329.877.877,0,0,0,.494.123.963.963,0,0,0,.7-.288l.041-.041.206.206-.041.041a.74.74,0,0,1-.37.247,1.479,1.479,0,0,1-.453.082A1.023,1.023,0,0,1,87.828,440.086Z" transform="translate(-142.56 -55.917)" fill="#fff"/><path d="M87.517,439.963a1.467,1.467,0,0,1-.453-.411,1.044,1.044,0,0,1-.165-.658,1.3,1.3,0,0,1,.165-.658,1.468,1.468,0,0,1,.453-.411,1.117,1.117,0,0,1,.658-.123,1.479,1.479,0,0,1,.453.082.74.74,0,0,1,.37.247l-.165.165a1.078,1.078,0,0,0-1.234-.165,1.418,1.418,0,0,0-.37.329.878.878,0,0,0-.123.494,1.1,1.1,0,0,0,.123.494.971.971,0,0,0,.37.329.876.876,0,0,0,.494.123,1.056,1.056,0,0,0,.741-.288l.165.164a.74.74,0,0,1-.37.247,1.481,1.481,0,0,1-.453.082A.9.9,0,0,1,87.517,439.963Z" transform="translate(-142.619 -55.917)" fill="#fff"/><rect width="0.329" height="2.427" transform="translate(-52.675 381.783)" fill="#fff"/><path d="M94.4,437.8h.247v2.345H94.4Z" transform="translate(-147.033 -55.976)" fill="#fff"/><path d="M98.88,440.127l-.247-.658H97.358l-.288.658H96.7l1.111-2.427H98.1l1.111,2.427Zm-.37-.946-.494-1.152-.494,1.152Z" transform="translate(-148.387 -55.917)" fill="#fff"/><path d="M98.792,439.487H97.476l-.288.658H96.9l1.07-2.345h.247l1.07,2.345h-.247Zm-.082-.206-.576-1.275-.576,1.275Z" transform="translate(-148.505 -55.976)" fill="#fff"/><path d="M104.6,440.127V437.7h.329v2.139h1.316v.288Z" transform="translate(-153.037 -55.917)" fill="#fff"/><path d="M104.741,437.8h.247v2.139H106.3v.206h-1.6V437.8Z" transform="translate(-153.096 -55.976)" fill="#fff"/><rect width="0.329" height="2.427" transform="translate(-45.928 381.783)" fill="#fff"/><path d="M110.8,437.8h.247v2.345H110.8Z" transform="translate(-156.687 -55.976)" fill="#fff"/><path d="M114.264,440.3a2.127,2.127,0,0,1-.453-.082.515.515,0,0,1-.37-.206h0l.123-.288.041.041c.041.041.123.082.165.123s.082.041.165.082a1.524,1.524,0,0,0,.37.082c.206,0,.37-.041.411-.123.123-.082.165-.123.165-.247a.214.214,0,0,0-.082-.165.9.9,0,0,0-.206-.123c-.041,0-.082-.041-.165-.041-.041,0-.123-.041-.165-.041-.165-.041-.288-.082-.411-.123a.9.9,0,0,1-.329-.206.5.5,0,0,1-.123-.37.6.6,0,0,1,.082-.288c.041-.123.206-.206.329-.247a2.123,2.123,0,0,1,.453-.082.371.371,0,0,1,.206.041h.165a.314.314,0,0,1,.206.082c.041,0,.082.041.123.041H115l-.123.288-.123-.041a.693.693,0,0,0-.206-.082.9.9,0,0,0-.329-.041c-.206,0-.37.041-.411.123a.3.3,0,0,0-.165.247.214.214,0,0,0,.082.165c.041.041.123.123.165.123a.247.247,0,0,0,.165.041.247.247,0,0,1,.165.041c.165.041.288.082.411.123a.739.739,0,0,1,.288.206.5.5,0,0,1,.123.37.6.6,0,0,1-.082.288.463.463,0,0,1-.329.206C114.634,440.263,114.47,440.3,114.264,440.3Z" transform="translate(-158.217 -56.094)" fill="#fff"/><path d="M113.97,440.18a.8.8,0,0,1-.37-.206l.082-.206a2.3,2.3,0,0,0,.329.206,1.459,1.459,0,0,0,.411.082.662.662,0,0,0,.453-.123.311.311,0,0,0,.165-.288.314.314,0,0,0-.082-.206.9.9,0,0,0-.206-.123c-.082-.041-.206-.041-.329-.082-.165-.041-.288-.082-.411-.123a.739.739,0,0,1-.288-.206.467.467,0,0,1-.123-.329.594.594,0,0,1,.082-.288.525.525,0,0,1,.288-.206,1.479,1.479,0,0,1,.453-.082c.123,0,.247.041.37.041s.206.082.329.123l-.082.206a.872.872,0,0,0-.288-.123.906.906,0,0,0-.329-.041.662.662,0,0,0-.453.123.311.311,0,0,0-.165.288.315.315,0,0,0,.082.206.35.35,0,0,0,.206.123c.082.041.206.041.329.082.165.041.288.082.411.123a.739.739,0,0,1,.288.206.467.467,0,0,1,.123.329.6.6,0,0,1-.082.288.524.524,0,0,1-.288.206,1.477,1.477,0,0,1-.453.082,2.119,2.119,0,0,1-.453-.082Z" transform="translate(-158.335 -56.094)" fill="#fff"/><path d="M120.164,440.027l-.041-2.139H119.3V437.6h1.975v.288h-.823v2.139Z" transform="translate(-161.69 -55.859)" fill="#fff"/><path d="M120.223,437.906H119.4V437.7h1.934v.206h-.823v2.139h-.247l-.041-2.139Z" transform="translate(-161.749 -55.917)" fill="#fff"/><path d="M-146.8,439h1.522v1.522H-146.8Z" transform="translate(-5.062 -56.683)" fill="#fff"/><path d="M130.7,439h1.522v1.522H130.7Z" transform="translate(-168.4 -56.683)" fill="#fff"/></g></svg>