<svg xmlns="http://www.w3.org/2000/svg" width="301.7" height="101.571" viewBox="0 0 301.7 101.571"><g transform="translate(155.4 -342.7)"><path d="M-139.03,400.2a13.56,13.56,0,0,0,4.019-.6v4.22h-.3v-.6a2,2,0,0,0-1.909-2.009h-6.229V421a2.1,2.1,0,0,0,2.11,2.009h.4v.3h-7.133v-.3h.4A2.1,2.1,0,0,0-145.56,421V401.208h-6.229a2.069,2.069,0,0,0-1.909,2.009v.5h-.4V399.5a13.019,13.019,0,0,0,4.019.6Z" transform="translate(0.006 0.265)" fill="#fff"/><path d="M-115.827,423.307v-.3h.4a2.1,2.1,0,0,0,2.11-2.009v-8.54h-13.563V420.9a2.122,2.122,0,0,0,2.11,2.11h.4v.3H-131.6v-.3h.4a2.122,2.122,0,0,0,2.11-2.11V402.611a2.122,2.122,0,0,0-2.11-2.11h-.4v-.3h7.234v.3h-.4a2.122,2.122,0,0,0-2.11,2.11v8.741h13.462v-8.841a2.1,2.1,0,0,0-2.11-2.009h-.4v-.3h7.234v.3h-.4a2.122,2.122,0,0,0-2.11,2.11V420.9a2.122,2.122,0,0,0,2.11,2.11h.4v.3Z" transform="translate(0.111 0.268)" fill="#fff"/><path d="M-90.237,423.31H-103.9v-.3h.4a2.122,2.122,0,0,0,2.11-2.11V402.413a2.167,2.167,0,0,0-2.11-1.909h-.4v-.3h9.645a12.3,12.3,0,0,0,3.918-.6v4.22h-.3v-.5a2.064,2.064,0,0,0-1.909-2.009h-6.832v10.147h5.526a1.587,1.587,0,0,0,1.607-1.607v-.5h.3v5.224h-.3v-.5a1.587,1.587,0,0,0-1.607-1.607h-5.626v9.946h4.722c3.416,0,4.822-1.808,5.827-4.32h.5Z" transform="translate(0.24 0.265)" fill="#fff"/><path d="M-59.228,418.083l-2.009,5.325H-74.8v-.3h.4a2.122,2.122,0,0,0,2.11-2.11V402.611a2.122,2.122,0,0,0-2.11-2.11h-.4v-.3h7.234v.3h-.4a2.122,2.122,0,0,0-2.11,2.11V422.4h4.722c3.416,0,4.822-1.808,5.827-4.32h.3Z" transform="translate(0.376 0.268)" fill="#fff"/><path d="M-33.495,400.2v.3H-34a1.759,1.759,0,0,0-1.808,1.608v13.061c0,5.124-3.516,8.64-8.841,8.64-5.526,0-9.142-3.416-9.142-8.54V402.209A1.644,1.644,0,0,0-55.6,400.6h-.6v-.3h6.731v.3h-.6a1.759,1.759,0,0,0-1.808,1.607v12.659c0,4.822,2.813,8.037,7.033,8.037,4.421,0,7.435-3.014,7.435-7.635V402.209a1.767,1.767,0,0,0-1.808-1.607h-.5v-.3Z" transform="translate(0.462 0.268)" fill="#fff"/><path d="M-8.895,423.006v.3h-8.037v-.3h.4A1.309,1.309,0,0,0-15.425,421l-5.124-8.037L-25.672,421a1.4,1.4,0,0,0,1.105,2.009h.4v.3H-31.6v-.3h.5A4.071,4.071,0,0,0-27.782,421l6.43-9.444-5.727-9.142a4.5,4.5,0,0,0-3.315-2.009h-.5v-.3h8.037v.3h-.5a1.327,1.327,0,0,0-1.105,2.009l4.521,7.234,4.521-7.133A1.363,1.363,0,0,0-16.53,400.5h-.5v-.2H-9.6v.3h-.5a4.071,4.071,0,0,0-3.315,2.009l-5.727,8.439,6.43,10.147A4.5,4.5,0,0,0-9.4,423.207H-9l.1-.2Z" transform="translate(0.577 0.268)" fill="#fff"/><path d="M15.9,400.2v.3h-.5a1.759,1.759,0,0,0-1.808,1.608v13.061c0,5.124-3.516,8.64-8.841,8.64-5.526,0-9.142-3.416-9.142-8.54V402.209A1.644,1.644,0,0,0-6.2,400.6h-.5v-.3H.031v.3h-.5a1.759,1.759,0,0,0-1.808,1.607v12.659c0,4.822,2.813,8.037,7.033,8.037,4.421,0,7.434-3.014,7.434-7.635V402.209a1.767,1.767,0,0,0-1.808-1.607h-.5v-.3Z" transform="translate(0.693 0.268)" fill="#fff"/><path d="M28.841,400.2c4.019,0,6.53,2.411,6.53,6.128,0,3.215-2.411,6.229-5.526,6.229a7.418,7.418,0,0,1,2.411,2.311,59.305,59.305,0,0,0,4.119,5.425c1.407,1.507,2.612,2.512,4.521,2.512v.3H38.988a7.171,7.171,0,0,1-5.727-2.914c-.3-.4-4.119-5.827-4.32-6.128-.8-1.105-1.808-2.21-3.014-2.21v-.3h1.808c1.808-.1,4.32-.5,5.124-3.416a10.363,10.363,0,0,0,.2-2.009c-.1-3.014-1.708-4.923-4.119-5.023-1.708-.1-3.617,0-4.119,0V420.8a2.122,2.122,0,0,0,2.11,2.11h.4v.3H20.1v-.3h.4a2.122,2.122,0,0,0,2.11-2.11V402.611a2.122,2.122,0,0,0-2.11-2.11h-.4v-.3Z" transform="translate(0.818 0.268)" fill="#fff"/><path d="M61.1,400.2v.3h-.5a4.071,4.071,0,0,0-3.315,2.009L50.656,413.06V420.9a2.122,2.122,0,0,0,2.11,2.11h.4v.3H46.034v-.3h.4a2.122,2.122,0,0,0,2.11-2.11V412.96l-6.229-10.549A4.323,4.323,0,0,0,39,400.4h-.4v-.3h8.138v.3h-.4a1.327,1.327,0,0,0-1.105,2.009l4.923,9.343,5.325-9.343a1.4,1.4,0,0,0-1.105-2.009h-.4v-.3Z" transform="translate(0.904 0.268)" fill="#fff"/><path d="M88.473,423.307v-.3h.4A2.1,2.1,0,0,0,90.985,421v-8.54H77.422V420.9a2.122,2.122,0,0,0,2.11,2.11h.4v.3H72.7v-.3h.4a2.122,2.122,0,0,0,2.11-2.11V402.611a2.122,2.122,0,0,0-2.11-2.11h-.4v-.3h7.234v.3h-.4a2.122,2.122,0,0,0-2.11,2.11v8.741H90.985v-8.841a2.1,2.1,0,0,0-2.11-2.009h-.4v-.3h7.234v.3h-.4a2.122,2.122,0,0,0-2.11,2.11V420.9a2.122,2.122,0,0,0,2.11,2.11h.4v.3Z" transform="translate(1.063 0.268)" fill="#fff"/><path d="M122.705,400.2v.3h-.5a1.759,1.759,0,0,0-1.808,1.608v13.061c0,5.124-3.516,8.64-8.841,8.64-5.526,0-9.142-3.416-9.142-8.54V402.209A1.644,1.644,0,0,0,100.6,400.6H100v-.3h6.731v.3h-.6a1.759,1.759,0,0,0-1.808,1.607v12.659c0,4.822,2.813,8.037,7.033,8.037,4.421,0,7.434-3.014,7.434-7.635V402.209a1.767,1.767,0,0,0-1.808-1.607h-.5v-.3Z" transform="translate(1.191 0.268)" fill="#fff"/><path d="M140.97,400.2a13.56,13.56,0,0,0,4.019-.6v4.22h-.3v-.6a2,2,0,0,0-1.909-2.009h-6.229V421a2.1,2.1,0,0,0,2.11,2.009h.4v.3h-7.234v-.3h.4a2.1,2.1,0,0,0,2.11-2.009V401.208H128.11a2.069,2.069,0,0,0-1.909,2.009v.5h-.3V399.5a13.019,13.019,0,0,0,4.019.6Z" transform="translate(1.311 0.265)" fill="#fff"/><path d="M-155.4,430.005v-1l.5-.1H146.2v1l-.5.1Z" transform="translate(0 0.402)" fill="#fff"/><path d="M-154.8,429.4H145.694v.1H-154.8Z" transform="translate(0.003 0.404)" fill="#fff"/><path d="M-16.645,342.7v2.311H18.318v44.507H7.97v2.311H20.628V342.7Zm-9.645,2.311h8.037V342.7H-28.6v49.027H6.362v-2.21H-26.289Z" transform="translate(0.591)" fill="#fff"/><path d="M4.542,380.218H-4.6V354.8h2.311v23.107H4.542Z" transform="translate(0.703 0.056)" fill="#fff"/><path d="M-14.389,380.217H-16.7V354.9h9.142v2.21h-6.832v23.107Z" transform="translate(0.647 0.057)" fill="#fff"/><path d="M8.8,354.8h2.311v25.318H8.8Z" transform="translate(0.765 0.056)" fill="#fff"/><path d="M2,366H9.234v2.311H2Z" transform="translate(0.734 0.109)" fill="#fff"/><path d="M-23,354.9h4.822v2.311H-23Z" transform="translate(0.617 0.057)" fill="#fff"/><path d="M-134.09,443.527c-.1,0-.2,0-.2-5.224H-136.3v-.7h4.923v.7h-2.009v5.224Z" transform="translate(0.089 0.442)" fill="#fff"/><path d="M-134.291,438.2H-136.3v-.5h4.722v.5h-2.009v5.224h-.6C-134.291,443.427-134.291,438.2-134.291,438.2Z" transform="translate(0.089 0.443)" fill="#fff"/><path d="M-125.38,443.628v-2.612H-128.8v2.612h-.8V437.7h.8v2.512h3.416V437.6h.8v6.028Z" transform="translate(0.12 0.442)" fill="#fff"/><path d="M-124.678,437.8v5.727h-.5v-2.612H-128.8v2.612h-.6V437.8h.6v2.512h3.617V437.7h.5v.1Z" transform="translate(0.121 0.443)" fill="#fff"/><path d="M-122.1,443.628V437.7h4.22v.7H-121.1v1.808h3.014v.7H-121.1v2.009h3.315v.7Z" transform="translate(0.155 0.443)" fill="#fff"/><path d="M-117.781,443.024v.5H-121.9V437.8h4.019v.5H-121.2v2.009h3.014v.5H-121.2v2.21Z" transform="translate(0.156 0.443)" fill="#fff"/><path d="M-112.4,443.628V437.7h2.311a3.175,3.175,0,0,1,1.909.4,1.849,1.849,0,0,1,.6,1.607,2.282,2.282,0,0,1-.6,1.607,2.864,2.864,0,0,1-1.909.5H-111.6v1.808Zm2.411-2.512c.7-.1,1.105-.2,1.306-.5a1.389,1.389,0,0,0,.5-.9c0-.5-.1-.7-.4-.9-.3-.3-.7-.3-1.407-.3H-111.5v2.612h1.507Z" transform="translate(0.2 0.443)" fill="#fff"/><path d="M-108.181,438.2a1.763,1.763,0,0,1,.6,1.507,2.045,2.045,0,0,1-.6,1.507,2.776,2.776,0,0,1-1.808.5H-111.6v1.808h-.6V437.8h2.21A3.021,3.021,0,0,1-108.181,438.2Zm-.4,2.512a1.4,1.4,0,0,0,.5-1c0-.5-.1-.8-.5-1-.3-.3-.7-.3-1.407-.3H-111.6v2.813h1.607A2.3,2.3,0,0,0-108.583,440.714Z" transform="translate(0.201 0.443)" fill="#fff"/><path d="M-101.38,443.628l-1.507-1.909H-104.8v1.808h-.8V437.6h2.411a3.847,3.847,0,0,1,1.909.5,1.849,1.849,0,0,1,.6,1.607,2.675,2.675,0,0,1-.3,1.206,3.129,3.129,0,0,1-.9.7l1.407,2.11h-.9Zm-1.708-2.411a.6.6,0,0,1,.4-.1c.4-.1.7-.2.8-.4a1.389,1.389,0,0,0,.5-.9c0-.5-.1-.7-.4-.9-.3-.3-.7-.3-1.407-.3H-104.7v2.713h1.607Z" transform="translate(0.232 0.442)" fill="#fff"/><path d="M-101.281,443.527l-1.407-1.909h-2.11v1.808h-.6V437.7h2.311a3.213,3.213,0,0,1,1.808.5,1.763,1.763,0,0,1,.6,1.507,2.025,2.025,0,0,1-.3,1.105,2.565,2.565,0,0,1-1,.7l1.407,2.009Zm-.5-2.813a1.4,1.4,0,0,0,.5-1c0-.5-.1-.8-.5-1-.3-.3-.7-.3-1.407-.3H-104.8v2.914h1.708C-102.587,441.116-101.984,441.015-101.783,440.714Z" transform="translate(0.233 0.443)" fill="#fff"/><path d="M-98.4,443.628V437.7h4.32v.7H-97.4v1.808h3.014v.7H-97.4v2.009h3.416v.7Z" transform="translate(0.266 0.443)" fill="#fff"/><path d="M-94.081,443.024v.5H-98.2V437.8h4.019v.5H-97.5v2.009h3.014v.5H-97.5v2.21Z" transform="translate(0.267 0.443)" fill="#fff"/><rect width="2.411" height="0.703" transform="translate(-92.307 441.358)" fill="#fff"/><path d="M-92.4,441h2.21v.5H-92.4Z" transform="translate(0.294 0.458)" fill="#fff"/><path d="M-85.588,443.527a3.61,3.61,0,0,1-1.105-.2,2.719,2.719,0,0,1-1.105-1,2.687,2.687,0,0,1-.4-1.708,3.181,3.181,0,0,1,.4-1.607,3.582,3.582,0,0,1,1.105-1,2.874,2.874,0,0,1,1.708-.4,4.165,4.165,0,0,1,1.607.3,2.742,2.742,0,0,1,1.105,1,2.687,2.687,0,0,1,.4,1.708,2.948,2.948,0,0,1-.4,1.608,3.583,3.583,0,0,1-1.105,1,2.906,2.906,0,0,1-1.708.3Zm.5-5.023a2.386,2.386,0,0,0-1.206.3,3.648,3.648,0,0,0-.9.8,2.025,2.025,0,0,0-.3,1.105,2.675,2.675,0,0,0,.3,1.206,2.451,2.451,0,0,0,.9.8,2.143,2.143,0,0,0,1.206.3,1.805,1.805,0,0,0,1.105-.3,3.059,3.059,0,0,0,.8-.8,2.025,2.025,0,0,0,.3-1.105,2.675,2.675,0,0,0-.3-1.206,3.058,3.058,0,0,0-.8-.8A2.025,2.025,0,0,0-85.086,438.5Z" transform="translate(0.313 0.442)" fill="#fff"/><path d="M-86.593,443.226a3.583,3.583,0,0,1-1.105-1,2.549,2.549,0,0,1-.4-1.607,3.181,3.181,0,0,1,.4-1.607,3.582,3.582,0,0,1,1.105-1,2.739,2.739,0,0,1,1.607-.4,4.551,4.551,0,0,1,1.607.3,3.583,3.583,0,0,1,1.105,1,2.549,2.549,0,0,1,.4,1.607,3.445,3.445,0,0,1-.4,1.607,3.583,3.583,0,0,1-1.105,1,2.727,2.727,0,0,1-1.607.3A2.627,2.627,0,0,1-86.593,443.226Zm2.713-.5a3.059,3.059,0,0,0,.8-.8,2.143,2.143,0,0,0,.3-1.206,2.675,2.675,0,0,0-.3-1.206,3.057,3.057,0,0,0-.8-.8,2.142,2.142,0,0,0-1.206-.3,2.387,2.387,0,0,0-1.206.3,3.466,3.466,0,0,0-.9.8,2.143,2.143,0,0,0-.3,1.206,2.675,2.675,0,0,0,.3,1.206,2.372,2.372,0,0,0,.9.8,2.143,2.143,0,0,0,1.206.3A2.387,2.387,0,0,0-83.88,442.724Z" transform="translate(0.314 0.442)" fill="#fff"/><path d="M-74.772,443.628l-1.708-4.722-1.607,4.722h-.7L-80.9,437.7h.8l1.708,4.722,1.708-4.722h.6l1.607,4.822,1.708-4.822h.8l-2.11,5.927Z" transform="translate(0.347 0.443)" fill="#fff"/><path d="M-72.06,437.8l-2.009,5.727h-.6L-76.38,438.6l-1.708,4.923h-.6L-80.7,437.8h.6l1.708,4.923,1.808-4.923h.5l1.708,5.023,1.708-5.023Z" transform="translate(0.348 0.443)" fill="#fff"/><path d="M-65.479,443.628-69,439.107v4.521h-.9V437.7h.6l3.516,4.421V437.6h.9v6.028Z" transform="translate(0.399 0.442)" fill="#fff"/><path d="M-64.978,437.8v5.727h-.5l-3.617-4.722v4.722h-.6V437.8h.5l3.617,4.621V437.7h.6Z" transform="translate(0.4 0.443)" fill="#fff"/><path d="M-62.4,443.628V437.7h4.32v.7H-61.4v1.808h3.014v.7H-61.4v2.009h3.416v.7Z" transform="translate(0.434 0.443)" fill="#fff"/><path d="M-58.081,443.024v.5H-62.2V437.8h4.019v.5H-61.5v2.009h3.014v.5H-61.5v2.21Z" transform="translate(0.434 0.443)" fill="#fff"/><path d="M-55.8,443.527V437.7h2.512a4.164,4.164,0,0,1,1.607.3,2.673,2.673,0,0,1,1.105,1,2.739,2.739,0,0,1,.4,1.607,2.948,2.948,0,0,1-.4,1.608,3.583,3.583,0,0,1-1.105,1,2.907,2.907,0,0,1-1.708.3Zm2.311-.5h0l.1-.1a3.945,3.945,0,0,0,1.407-.3,3.649,3.649,0,0,0,.9-.8,2.025,2.025,0,0,0,.3-1.105,2.386,2.386,0,0,0-.3-1.206,2.45,2.45,0,0,0-.9-.8,2.661,2.661,0,0,0-1.407-.3H-55v4.521Z" transform="translate(0.464 0.443)" fill="#fff"/><path d="M-55.6,437.8h2.411a4.166,4.166,0,0,1,1.607.3,2.672,2.672,0,0,1,1.105,1,2.616,2.616,0,0,1,.4,1.507,2.835,2.835,0,0,1-.4,1.507,3.582,3.582,0,0,1-1.105,1,2.727,2.727,0,0,1-1.607.3H-55.6Zm2.311,5.224a3.546,3.546,0,0,0,1.407-.3,3.467,3.467,0,0,0,.9-.8,2.143,2.143,0,0,0,.3-1.206,2.387,2.387,0,0,0-.3-1.206,2.372,2.372,0,0,0-.9-.8,2.661,2.661,0,0,0-1.407-.3H-55.1v4.722h1.808Z" transform="translate(0.465 0.443)" fill="#fff"/><path d="M-39.372,443.628l-1.607-4.722-1.708,4.722h-.7L-45.5,437.7h.8l1.708,4.722,1.708-4.722h.6l1.708,4.822,1.607-4.822h.8l-2.11,5.927Z" transform="translate(0.512 0.443)" fill="#fff"/><path d="M-36.66,437.8l-2.009,5.727h-.6L-40.98,438.6l-1.708,4.923h-.6L-45.3,437.8h.6l1.708,4.923,1.808-4.923h.5l1.708,5.023,1.708-5.023Z" transform="translate(0.513 0.443)" fill="#fff"/><path d="M-30.375,443.628l-.7-1.607h-3.114l-.7,1.607h-.8l2.713-5.927h.7l2.713,5.927Zm-1-2.311-1.206-2.813-1.206,2.813Z" transform="translate(0.558 0.443)" fill="#fff"/><path d="M-30.979,441.919h-3.215l-.7,1.607h-.6l2.612-5.727h.6l2.612,5.727h-.6Zm-.2-.5-1.407-3.114-1.407,3.114Z" transform="translate(0.559 0.443)" fill="#fff"/><path d="M-26.89,443.527l-.1-5.224H-29.1v-.7h5.023v.7h-2.009v5.224Z" transform="translate(0.589 0.442)" fill="#fff"/><path d="M-26.891,438.2H-28.9v-.5h4.722v.5h-2.009v5.224h-.6Z" transform="translate(0.59 0.443)" fill="#fff"/><path d="M-20.488,443.527a4.27,4.27,0,0,1-1.105-.2,2.742,2.742,0,0,1-1.105-1,2.687,2.687,0,0,1-.4-1.708,3.181,3.181,0,0,1,.4-1.607,3.583,3.583,0,0,1,1.105-1,2.906,2.906,0,0,1,1.708-.3,3.1,3.1,0,0,1,1.105.2,3.762,3.762,0,0,1,1,.6v.1l-.5.5-.1-.1a1.949,1.949,0,0,0-1.708-.7,1.616,1.616,0,0,0-1.105.3,3.648,3.648,0,0,0-.9.8,2.025,2.025,0,0,0-.3,1.105,2.675,2.675,0,0,0,.3,1.206,2.45,2.45,0,0,0,.9.8,2.142,2.142,0,0,0,1.206.3,2.353,2.353,0,0,0,1.708-.7l.1-.1.5.5-.1.1a1.808,1.808,0,0,1-.9.6,3.612,3.612,0,0,1-1.105.2A1.961,1.961,0,0,1-20.488,443.527Z" transform="translate(0.617 0.443)" fill="#fff"/><path d="M-21.493,443.226a3.583,3.583,0,0,1-1.105-1,2.549,2.549,0,0,1-.4-1.608,3.181,3.181,0,0,1,.4-1.607,3.583,3.583,0,0,1,1.105-1,2.727,2.727,0,0,1,1.607-.3,3.611,3.611,0,0,1,1.105.2,1.807,1.807,0,0,1,.9.6l-.4.4a2.149,2.149,0,0,0-1.808-.7,2.143,2.143,0,0,0-1.206.3,3.467,3.467,0,0,0-.9.8,2.142,2.142,0,0,0-.3,1.206,2.675,2.675,0,0,0,.3,1.206,2.372,2.372,0,0,0,.9.8,2.142,2.142,0,0,0,1.206.3,2.579,2.579,0,0,0,1.808-.7l.4.4a1.807,1.807,0,0,1-.9.6,3.612,3.612,0,0,1-1.105.2A2.257,2.257,0,0,1-21.493,443.226Z" transform="translate(0.617 0.443)" fill="#fff"/><path d="M-11.38,443.628v-2.612H-14.8v2.612h-.8V437.7h.8v2.512h3.416V437.6h.9v6.028Z" transform="translate(0.652 0.442)" fill="#fff"/><path d="M-10.578,437.8v5.727h-.6v-2.612H-14.8v2.612h-.6V437.8h.6v2.512h3.617V437.7h.6Z" transform="translate(0.653 0.443)" fill="#fff"/><path d="M-1.182,442.924a2.59,2.59,0,0,1-2.009.7,2.4,2.4,0,0,1-.9-.2,1.8,1.8,0,0,1-.7-.5,1.336,1.336,0,0,1-.3-.8,2.246,2.246,0,0,1,.3-1,2.188,2.188,0,0,1,.9-.7l.1-.1c-.3-.3-.4-.5-.4-.7a1.274,1.274,0,0,1-.1-.6,1.2,1.2,0,0,1,.4-1,2.025,2.025,0,0,1,1.105-.3,1.5,1.5,0,0,1,1,.3,1.228,1.228,0,0,1,.3.9,1.336,1.336,0,0,1-.3.8,5.741,5.741,0,0,1-.8.7l1.407,1.407c.1-.3.2-.6.3-1v-.1h.1l.6.1v.1a4.9,4.9,0,0,1-.4,1.105l-.1.3.8.8-.5.5Zm-2.311-2.21a8.152,8.152,0,0,0-.8.6.351.351,0,0,0-.1.2.768.768,0,0,0-.2.5c0,.3.1.4.4.6a1.62,1.62,0,0,0,.9.3,2.468,2.468,0,0,0,1.507-.5Zm.5-2.512c-.3,0-.5.1-.5.2a.762.762,0,0,0-.2.4v.1c0,.1.1.2.1.4.1,0,.3.2.4.5a2.5,2.5,0,0,0,.7-.5.767.767,0,0,0,.2-.5.522.522,0,0,0-.2-.4A.59.59,0,0,0-2.99,438.2Z" transform="translate(0.701 0.443)" fill="#fff"/><path d="M-.379,443.627l-.7-.8a2.59,2.59,0,0,1-2.009.7,2.4,2.4,0,0,1-.9-.2,1.8,1.8,0,0,1-.7-.5,1.085,1.085,0,0,1-.3-.7,1.62,1.62,0,0,1,.3-.9,3.483,3.483,0,0,1,1.105-.8c-.3-.3-.5-.5-.5-.7a1.274,1.274,0,0,1-.1-.6,1.091,1.091,0,0,1,.4-.9,1.7,1.7,0,0,1,1-.3,1.228,1.228,0,0,1,.9.3,1.141,1.141,0,0,1,.3.8.912.912,0,0,1-.3.7,3.531,3.531,0,0,1-.9.7l1.607,1.607a3.6,3.6,0,0,0,.4-1.105l.5.1a7.875,7.875,0,0,1-.5,1.407l.8.8Zm-1.206-1.206-1.808-1.808a4,4,0,0,0-.9.7,1.5,1.5,0,0,0-.3.7.759.759,0,0,0,.4.7,1.7,1.7,0,0,0,1,.3A2.121,2.121,0,0,0-1.584,442.421ZM-3.593,438.3a.767.767,0,0,0-.2.5,4.35,4.35,0,0,1,.1.5,3.819,3.819,0,0,1,.5.6,1.837,1.837,0,0,0,.8-.6.768.768,0,0,0,.2-.5.767.767,0,0,0-.2-.5.849.849,0,0,0-.6-.2A.849.849,0,0,0-3.593,438.3Z" transform="translate(0.701 0.444)" fill="#fff"/><path d="M5.707,443.828h0l-.6-.3c-.1,0-.2-.1-.3-.1a1.351,1.351,0,0,1-.7-.6v-.1l.4-.6.1.1a1.363,1.363,0,0,0,1.105.7c.6,0,.9-.3.9-1.105V438.4H4.6v-.7H7.516v4.119a2.421,2.421,0,0,1-.4,1.507,2.4,2.4,0,0,1-1.407.5Z" transform="translate(0.744 0.443)" fill="#fff"/><path d="M4.9,443.326a1.35,1.35,0,0,1-.7-.6l.3-.4a1.312,1.312,0,0,0,1.206.7c.7,0,1-.4,1-1.206V438.3H4.7v-.5H7.415v4.019a2.126,2.126,0,0,1-.4,1.407,1.664,1.664,0,0,1-1.206.5,6.352,6.352,0,0,0-.9-.4Z" transform="translate(0.744 0.443)" fill="#fff"/><path d="M10.3,443.628V437.7h4.119v.7H11.1v1.808h3.014v.7H11.1v2.009H14.52v.7Z" transform="translate(0.772 0.443)" fill="#fff"/><path d="M14.519,443.024v.5H10.4V437.8h4.019v.5H11.1v2.009h3.014v.5H11.1v2.21Z" transform="translate(0.773 0.443)" fill="#fff"/><path d="M22.028,443.628l-1.708-4.722-1.607,4.722h-.7L15.9,437.7h.8l1.708,4.722L20.12,437.7h.6l1.607,4.822,1.708-4.822h.8l-2.11,5.927Z" transform="translate(0.799 0.443)" fill="#fff"/><path d="M24.74,437.8l-2.009,5.727h-.6L20.42,438.6l-1.708,4.923h-.6L16.1,437.8h.6l1.708,4.923,1.808-4.923h.5l1.708,5.023,1.708-5.023Z" transform="translate(0.799 0.443)" fill="#fff"/><path d="M26.7,443.628V437.7h4.119v.7H27.5v1.808h3.014v.7H27.5v2.009H30.92v.7Z" transform="translate(0.849 0.443)" fill="#fff"/><path d="M30.919,443.024v.5H26.8V437.8h4.019v.5H27.5v2.009h3.014v.5H27.5v2.21Z" transform="translate(0.849 0.443)" fill="#fff"/><path d="M33.2,443.628V437.7H34v5.224h3.315v.7Z" transform="translate(0.879 0.443)" fill="#fff"/><path d="M33.4,437.8H34v5.224h3.215v.5H33.3V437.8Z" transform="translate(0.88 0.443)" fill="#fff"/><path d="M39.1,443.628V437.7h.8v5.224h3.215v.7Z" transform="translate(0.907 0.443)" fill="#fff"/><path d="M39.2,437.8h.7v5.224h3.215v.5H39.2Z" transform="translate(0.907 0.443)" fill="#fff"/><path d="M45,443.628V437.7h4.119v.7H45.8v1.808h3.014v.7H45.8v2.009H49.32v.7Z" transform="translate(0.934 0.443)" fill="#fff"/><path d="M49.219,443.024v.5H45.1V437.8h4.019v.5H45.8v2.009h3.014v.5H45.8v2.21Z" transform="translate(0.935 0.443)" fill="#fff"/><path d="M55.52,443.628l-1.507-1.909H52.1v1.808h-.8V437.6h2.311a3.847,3.847,0,0,1,1.909.5,1.978,1.978,0,0,1,.6,1.607,2.675,2.675,0,0,1-.3,1.206,2.709,2.709,0,0,1-.8.7l1.407,2.11h-.9Zm-1.808-2.411.3-.1a1.6,1.6,0,0,0,1-.5,1.389,1.389,0,0,0,.5-.9c0-.5-.1-.7-.4-.9-.3-.3-.7-.3-1.407-.3H52.2v2.713h1.507Z" transform="translate(0.964 0.442)" fill="#fff"/><path d="M55.619,443.527l-1.407-1.909H52.1v1.808h-.6V437.7h2.21a3.212,3.212,0,0,1,1.808.5,1.763,1.763,0,0,1,.6,1.507,2.025,2.025,0,0,1-.3,1.105,2.188,2.188,0,0,1-.9.7l1.407,2.009Zm-.5-2.813a1.4,1.4,0,0,0,.5-1c0-.5-.1-.8-.5-1-.3-.3-.7-.3-1.407-.3H52.1v2.914H53.71A3.689,3.689,0,0,0,55.117,440.714Z" transform="translate(0.965 0.443)" fill="#fff"/><path d="M59.811,443.628v-2.11L57.4,437.7h.8l1.909,3.114,2.009-3.114h.9l-2.512,3.918v2.009Z" transform="translate(0.992 0.443)" fill="#fff"/><path d="M60.514,441.517v2.009h-.6v-2.009L57.6,437.8h.6l2.009,3.215,2.009-3.215h.7Z" transform="translate(0.993 0.443)" fill="#fff"/><path d="M69.51,443.626a5.184,5.184,0,0,1-1.105-.2,1.258,1.258,0,0,1-.9-.5h0l.3-.7.1.1c.1.1.3.2.4.3s.2.1.4.2a3.728,3.728,0,0,0,.9.2c.5,0,.9-.1,1-.3.2-.2.4-.4.4-.6a.522.522,0,0,0-.2-.4,2.2,2.2,0,0,0-.5-.3c-.1,0-.2-.1-.4-.1-.1,0-.3-.1-.4-.1-.4-.1-.7-.2-1-.3a2.188,2.188,0,0,1-.8-.5,1.228,1.228,0,0,1-.3-.9,1.452,1.452,0,0,1,.2-.7,1.131,1.131,0,0,1,.8-.5,5.186,5.186,0,0,1,1.105-.2.905.905,0,0,1,.5.1h.4a.767.767,0,0,1,.5.2c.1,0,.2.1.3.1h.1l-.3.5-.3-.1a1.7,1.7,0,0,0-.5-.2,2.212,2.212,0,0,0-.8-.1c-.5,0-.9.1-1,.3-.3.2-.4.3-.4.6a.522.522,0,0,0,.2.4c.1.1.3.3.4.3a.6.6,0,0,0,.4.1.6.6,0,0,1,.4.1c.4.1.7.2,1,.3a1.8,1.8,0,0,1,.7.5,1.228,1.228,0,0,1,.3.9,1.452,1.452,0,0,1-.2.7,2.29,2.29,0,0,1-1.708.8Z" transform="translate(1.039 0.445)" fill="#fff"/><path d="M68.4,443.325a1.942,1.942,0,0,1-.9-.5l.2-.5a5.607,5.607,0,0,0,.8.5,3.568,3.568,0,0,0,1,.2,1.616,1.616,0,0,0,1.105-.3,1.017,1.017,0,0,0,.4-.7.767.767,0,0,0-.2-.5,2.193,2.193,0,0,0-.5-.3c-.2-.1-.5-.1-.8-.2-.4-.1-.7-.2-1-.3a1.8,1.8,0,0,1-.7-.5,1.141,1.141,0,0,1-.3-.8,1.452,1.452,0,0,1,.2-.7,1.281,1.281,0,0,1,.7-.5,3.612,3.612,0,0,1,1.105-.2c.3,0,.6.1.9.1s.5.2.8.3l-.2.5a2.129,2.129,0,0,0-.7-.3,2.213,2.213,0,0,0-.8-.1,1.616,1.616,0,0,0-1.105.3.758.758,0,0,0-.4.7.768.768,0,0,0,.2.5.854.854,0,0,0,.5.3c.2.1.5.1.8.2.4.1.7.2,1,.3a1.8,1.8,0,0,1,.7.5,1.141,1.141,0,0,1,.3.8,1.452,1.452,0,0,1-.2.7,1.281,1.281,0,0,1-.7.5,3.61,3.61,0,0,1-1.105.2A5.18,5.18,0,0,1,68.4,443.325Z" transform="translate(1.039 0.444)" fill="#fff"/><path d="M73.9,443.628V437.7h2.311a3.592,3.592,0,0,1,1.909.4,1.978,1.978,0,0,1,.6,1.607,2.282,2.282,0,0,1-.6,1.607,2.864,2.864,0,0,1-1.909.5H74.7v1.808Zm2.11-2.512c.7-.1,1.105-.2,1.306-.5a1.389,1.389,0,0,0,.5-.9c0-.5-.1-.7-.4-.9-.3-.3-.7-.3-1.407-.3H74.5v2.612H76.01Z" transform="translate(1.069 0.443)" fill="#fff"/><path d="M78.019,438.2a1.763,1.763,0,0,1,.6,1.507,2.045,2.045,0,0,1-.6,1.507,2.776,2.776,0,0,1-1.808.5H74.6v1.808H74V437.8h2.21A3.441,3.441,0,0,1,78.019,438.2Zm-.5,2.512a1.4,1.4,0,0,0,.5-1c0-.5-.1-.8-.5-1-.3-.3-.7-.3-1.407-.3H74.5v2.813H76.11A2.3,2.3,0,0,0,77.516,440.714Z" transform="translate(1.069 0.443)" fill="#fff"/><path d="M80.8,443.628V437.7h4.119v.7H81.6v1.808h3.014v.7H81.6v2.009H85.02v.7Z" transform="translate(1.101 0.443)" fill="#fff"/><path d="M85.019,443.024v.5H80.9V437.8h4.019v.5H81.6v2.009h3.014v.5H81.6v2.21Z" transform="translate(1.102 0.443)" fill="#fff"/><path d="M89.312,443.527a4.418,4.418,0,0,1-1-.2,2.742,2.742,0,0,1-1.105-1,2.687,2.687,0,0,1-.4-1.708,3.181,3.181,0,0,1,.4-1.607,3.583,3.583,0,0,1,1.105-1,2.906,2.906,0,0,1,1.708-.3,3.1,3.1,0,0,1,1.105.2,3.762,3.762,0,0,1,1,.6v.1l-.5.5-.1-.1a1.949,1.949,0,0,0-1.708-.7,1.616,1.616,0,0,0-1.105.3,3.648,3.648,0,0,0-.9.8,2.025,2.025,0,0,0-.3,1.105,2.675,2.675,0,0,0,.3,1.206,2.45,2.45,0,0,0,.9.8,2.142,2.142,0,0,0,1.206.3,2.353,2.353,0,0,0,1.708-.7l.1-.1.5.5-.1.1a1.808,1.808,0,0,1-.9.6,3.612,3.612,0,0,1-1.105.2A2.5,2.5,0,0,1,89.312,443.527Z" transform="translate(1.129 0.443)" fill="#fff"/><path d="M88.407,443.226a3.583,3.583,0,0,1-1.105-1,2.549,2.549,0,0,1-.4-1.608,3.181,3.181,0,0,1,.4-1.607,3.583,3.583,0,0,1,1.105-1,2.727,2.727,0,0,1,1.607-.3,3.611,3.611,0,0,1,1.105.2,1.807,1.807,0,0,1,.9.6l-.4.4a2.632,2.632,0,0,0-3.014-.4,3.467,3.467,0,0,0-.9.8,2.143,2.143,0,0,0-.3,1.206,2.676,2.676,0,0,0,.3,1.206,2.372,2.372,0,0,0,.9.8,2.142,2.142,0,0,0,1.206.3,2.579,2.579,0,0,0,1.808-.7l.4.4a1.807,1.807,0,0,1-.9.6,3.612,3.612,0,0,1-1.105.2A2.2,2.2,0,0,1,88.407,443.226Z" transform="translate(1.13 0.443)" fill="#fff"/><rect width="0.804" height="5.928" transform="translate(95.464 438.143)" fill="#fff"/><path d="M94.4,437.8H95v5.727h-.6Z" transform="translate(1.164 0.443)" fill="#fff"/><path d="M102.025,443.628l-.6-1.607H98.307l-.7,1.607h-.9l2.713-5.927h.7l2.713,5.927Zm-.9-2.311L99.915,438.5l-1.206,2.813Z" transform="translate(1.175 0.443)" fill="#fff"/><path d="M101.521,441.919H98.307l-.7,1.607h-.7l2.612-5.727h.6l2.612,5.727h-.6Zm-.2-.5L99.914,438.3l-1.407,3.114Z" transform="translate(1.176 0.443)" fill="#fff"/><path d="M104.6,443.628V437.7h.8v5.224h3.215v.7Z" transform="translate(1.212 0.443)" fill="#fff"/><path d="M104.8,437.8h.6v5.224h3.215v.5H104.7V437.8Z" transform="translate(1.213 0.443)" fill="#fff"/><rect width="0.804" height="5.928" transform="translate(111.94 438.143)" fill="#fff"/><path d="M110.8,437.8h.6v5.727h-.6Z" transform="translate(1.241 0.443)" fill="#fff"/><path d="M115.51,443.626a5.188,5.188,0,0,1-1.105-.2,1.258,1.258,0,0,1-.9-.5h0l.3-.7.1.1c.1.1.3.2.4.3s.2.1.4.2a3.726,3.726,0,0,0,.9.2c.5,0,.9-.1,1-.3.3-.2.4-.3.4-.6a.522.522,0,0,0-.2-.4,2.2,2.2,0,0,0-.5-.3c-.1,0-.2-.1-.4-.1-.1,0-.3-.1-.4-.1-.4-.1-.7-.2-1-.3a2.187,2.187,0,0,1-.8-.5,1.228,1.228,0,0,1-.3-.9,1.452,1.452,0,0,1,.2-.7c.1-.3.5-.5.8-.6a5.184,5.184,0,0,1,1.105-.2.906.906,0,0,1,.5.1h.4a.768.768,0,0,1,.5.2c.1,0,.2.1.3.1h.1l-.3.7-.3-.1a1.7,1.7,0,0,0-.5-.2,2.212,2.212,0,0,0-.8-.1c-.5,0-.9.1-1,.3a.727.727,0,0,0-.4.6.522.522,0,0,0,.2.4c.1.1.3.3.4.3a.6.6,0,0,0,.4.1.6.6,0,0,1,.4.1c.4.1.7.2,1,.3a1.8,1.8,0,0,1,.7.5,1.228,1.228,0,0,1,.3.9,1.452,1.452,0,0,1-.2.7,1.131,1.131,0,0,1-.8.5C116.414,443.526,116.012,443.626,115.51,443.626Z" transform="translate(1.253 0.444)" fill="#fff"/><path d="M114.5,443.325a1.942,1.942,0,0,1-.9-.5l.2-.5a5.608,5.608,0,0,0,.8.5,3.568,3.568,0,0,0,1,.2,1.616,1.616,0,0,0,1.105-.3.758.758,0,0,0,.4-.7.767.767,0,0,0-.2-.5,2.194,2.194,0,0,0-.5-.3c-.2-.1-.5-.1-.8-.2-.4-.1-.7-.2-1-.3a1.8,1.8,0,0,1-.7-.5,1.141,1.141,0,0,1-.3-.8,1.452,1.452,0,0,1,.2-.7,1.281,1.281,0,0,1,.7-.5,3.612,3.612,0,0,1,1.105-.2c.3,0,.6.1.9.1s.5.2.8.3l-.2.5a2.129,2.129,0,0,0-.7-.3,2.213,2.213,0,0,0-.8-.1,1.616,1.616,0,0,0-1.105.3.758.758,0,0,0-.4.7.768.768,0,0,0,.2.5.854.854,0,0,0,.5.3c.2.1.5.1.8.2.4.1.7.2,1,.3a1.8,1.8,0,0,1,.7.5,1.141,1.141,0,0,1,.3.8,1.452,1.452,0,0,1-.2.7,1.281,1.281,0,0,1-.7.5,3.61,3.61,0,0,1-1.105.2,5.18,5.18,0,0,1-1.105-.2Z" transform="translate(1.254 0.444)" fill="#fff"/><path d="M121.41,443.527l-.1-5.224H119.3v-.7h4.822v.7h-2.009v5.224Z" transform="translate(1.281 0.442)" fill="#fff"/><path d="M121.409,438.2H119.4v-.5h4.722v.5h-2.009v5.224h-.6l-.1-5.224Z" transform="translate(1.281 0.443)" fill="#fff"/><path d="M-146.8,439h3.717v3.717H-146.8Z" transform="translate(0.04 0.449)" fill="#fff"/><path d="M130.7,439h3.717v3.717H130.7Z" transform="translate(1.334 0.449)" fill="#fff"/></g></svg>