<svg xmlns="http://www.w3.org/2000/svg" width="11.99" height="8.99" viewBox="0 0 11.99 8.99"><g transform="translate(126.036 94.496)"><g transform="translate(-126.036 -94.496)"><path d="M10.065,40.529H1.926A1.928,1.928,0,0,1,0,38.6V33.466A1.928,1.928,0,0,1,1.926,31.54h8.139a1.928,1.928,0,0,1,1.926,1.926V38.6A1.928,1.928,0,0,1,10.065,40.529ZM1.926,32.1A1.364,1.364,0,0,0,.563,33.466V38.6a1.364,1.364,0,0,0,1.363,1.363h8.139A1.364,1.364,0,0,0,11.427,38.6V33.466A1.364,1.364,0,0,0,10.065,32.1Z" transform="translate(0 -31.54)" fill="#fff"/><path d="M29.181,62.677,33.5,66.884c.268.261.68-.149.411-.411l-4.318-4.208c-.268-.262-.68.149-.411.411Z" transform="translate(-27.71 -60.724)" fill="#fff"/><path d="M120.373,66.885l4.318-4.208c.269-.262-.143-.673-.411-.411l-4.318,4.207c-.269.262.143.673.411.411Z" transform="translate(-114.172 -60.724)" fill="#fff"/><path d="M153.246,125.722,150.373,123c-.272-.258-.684.153-.411.411l2.873,2.725c.272.258.684-.153.411-.411Z" transform="translate(-142.743 -118.569)" fill="#fff"/><path d="M30.435,126.129l2.873-2.725c.272-.258-.14-.669-.411-.411l-2.873,2.725c-.272.258.14.669.411.411Z" transform="translate(-28.511 -118.565)" fill="#fff"/></g></g></svg>