<svg xmlns="http://www.w3.org/2000/svg" width="13.352" height="10.01" viewBox="0 0 13.352 10.01"><g transform="translate(126.036 94.496)"><g transform="translate(-126.036 -94.496)"><path d="M11.207,41.55H2.144A2.147,2.147,0,0,1,0,39.406V33.684A2.147,2.147,0,0,1,2.144,31.54h9.063a2.147,2.147,0,0,1,2.144,2.144v5.721A2.147,2.147,0,0,1,11.207,41.55ZM2.144,32.167A1.519,1.519,0,0,0,.627,33.684v5.721a1.519,1.519,0,0,0,1.517,1.517h9.063a1.519,1.519,0,0,0,1.517-1.517V33.684a1.519,1.519,0,0,0-1.517-1.517Z" transform="translate(0 -31.54)" fill="#1d1d1b"/><path d="M29.191,62.733,34,67.418c.3.291.757-.166.458-.458l-4.808-4.685c-.3-.291-.757.166-.458.458Z" transform="translate(-27.553 -60.559)" fill="#1d1d1b"/><path d="M120.43,67.419l4.808-4.685c.3-.292-.159-.749-.458-.458l-4.808,4.685c-.3.292.159.749.458.458Z" transform="translate(-113.525 -60.559)" fill="#1d1d1b"/><path d="M153.63,126.04l-3.2-3.034c-.3-.287-.761.17-.458.458l3.2,3.034c.3.287.761-.171.458-.458Z" transform="translate(-141.934 -118.075)" fill="#1d1d1b"/><path d="M30.492,126.495l3.2-3.034c.3-.288-.155-.745-.458-.458l-3.2,3.034c-.3.288.155.745.458.458Z" transform="translate(-28.349 -118.072)" fill="#1d1d1b"/></g></g></svg>