<svg xmlns="http://www.w3.org/2000/svg" width="11.811" height="8.855" viewBox="0 0 11.811 8.855"><g transform="translate(126.036 94.496)"><g transform="translate(-126.036 -94.496)"><path d="M9.914,40.4H1.9A1.9,1.9,0,0,1,0,38.5V33.437a1.9,1.9,0,0,1,1.9-1.9H9.914a1.9,1.9,0,0,1,1.9,1.9V38.5A1.9,1.9,0,0,1,9.914,40.4ZM1.9,32.095A1.344,1.344,0,0,0,.555,33.437V38.5A1.344,1.344,0,0,0,1.9,39.84H9.914A1.344,1.344,0,0,0,11.256,38.5V33.437a1.344,1.344,0,0,0-1.342-1.342Z" transform="translate(0 -31.54)" fill="#1d1d1b"/><path d="M29.18,62.669l4.254,4.145c.264.257.67-.147.405-.405l-4.254-4.145c-.264-.258-.67.147-.405.405Z" transform="translate(-27.731 -60.746)" fill="#1d1d1b"/><path d="M120.365,66.814l4.254-4.145c.265-.258-.141-.663-.405-.405l-4.254,4.145c-.265.258.141.663.405.405Z" transform="translate(-114.257 -60.746)" fill="#1d1d1b"/><path d="M153.2,125.68,150.366,123c-.268-.254-.673.151-.405.405l2.83,2.684c.268.254.673-.151.405-.405Z" transform="translate(-142.85 -118.634)" fill="#1d1d1b"/><path d="M30.428,126.081l2.83-2.684c.268-.254-.138-.659-.405-.405l-2.83,2.684c-.268.254.138.659.405.405Z" transform="translate(-28.532 -118.63)" fill="#1d1d1b"/></g></g></svg>