<svg xmlns="http://www.w3.org/2000/svg" width="15.836" height="11.603" viewBox="0 0 15.836 11.603"><g transform="translate(126.036 92.345)" style="isolation:isolate"><g transform="translate(-126.036 -92.345)"><path d="M14.42,45.294h-13A1.417,1.417,0,0,1,0,43.878V35.106a1.417,1.417,0,0,1,1.415-1.415h13a1.417,1.417,0,0,1,1.415,1.415v8.772A1.417,1.417,0,0,1,14.42,45.294Zm-13-11.251A1.065,1.065,0,0,0,.352,35.106v8.772a1.065,1.065,0,0,0,1.063,1.063h13a1.065,1.065,0,0,0,1.063-1.063V35.106a1.064,1.064,0,0,0-1.063-1.063Z" transform="translate(0 -33.691)" fill="#272626"/><path d="M13.71,46.456a.176.176,0,0,1-.119-.046L6.238,39.663a.176.176,0,0,1,.238-.259l7.235,6.637L20.945,39.4a.176.176,0,1,1,.238.259L13.829,46.41A.176.176,0,0,1,13.71,46.456Z" transform="translate(-5.792 -39.002)" fill="#272626"/><path d="M42.041,126.8a.176.176,0,0,1-.119-.306l3.5-3.212a.176.176,0,0,1,.238.259l-3.5,3.212A.176.176,0,0,1,42.041,126.8Z" transform="translate(-39.235 -117.611)" fill="#272626"/><path d="M152.542,126.8a.175.175,0,0,1-.119-.046l-3.5-3.213a.176.176,0,1,1,.238-.259l3.5,3.212a.176.176,0,0,1-.119.306Z" transform="translate(-139.512 -117.607)" fill="#272626"/></g></g></svg>