<svg xmlns="http://www.w3.org/2000/svg" width="10.459" height="12.202" viewBox="0 0 10.459 12.202"><g transform="translate(108.035 126.036)"><g transform="translate(-108.035 -126.036)"><path d="M27.733,10.445h-9A.728.728,0,0,1,18,9.718a1.7,1.7,0,0,1,.6-1.3,1.162,1.162,0,0,0,.408-.884V4.224a4.224,4.224,0,0,1,8.449,0V7.537a1.161,1.161,0,0,0,.408.884,1.7,1.7,0,0,1,.6,1.3A.728.728,0,0,1,27.733,10.445Zm-4.5-9.9a3.686,3.686,0,0,0-3.682,3.682V7.537a1.7,1.7,0,0,1-.6,1.3,1.162,1.162,0,0,0-.408.884.185.185,0,0,0,.185.185h9a.185.185,0,0,0,.185-.185,1.161,1.161,0,0,0-.408-.884,1.7,1.7,0,0,1-.6-1.3V4.224A3.686,3.686,0,0,0,23.23.542Z" transform="translate(-18.001)" fill="#fff"/><path d="M86.391,206.875a2.019,2.019,0,0,1-2.017-2.017c0-.005,0-.014,0-.021a.271.271,0,0,1,.542.01s0,.011,0,.017a1.475,1.475,0,0,0,2.949,0s0-.007,0-.009a.271.271,0,0,1,.261-.281.268.268,0,0,1,.281.261s0,.018,0,.021A2.019,2.019,0,0,1,86.391,206.875Z" transform="translate(-81.161 -194.673)" fill="#fff"/></g></g></svg>