<svg xmlns="http://www.w3.org/2000/svg" width="12.068" height="14.079" viewBox="0 0 12.068 14.079"><g transform="translate(108.035 126.036)"><g transform="translate(-108.035 -126.036)"><path d="M29.229,12.052H18.84A.84.84,0,0,1,18,11.212a1.964,1.964,0,0,1,.69-1.5,1.34,1.34,0,0,0,.47-1.02V4.874a4.874,4.874,0,1,1,9.748,0V8.7a1.34,1.34,0,0,0,.47,1.02,1.964,1.964,0,0,1,.69,1.5A.84.84,0,0,1,29.229,12.052ZM24.035.626a4.253,4.253,0,0,0-4.248,4.248V8.7a1.964,1.964,0,0,1-.69,1.5,1.34,1.34,0,0,0-.47,1.02.214.214,0,0,0,.214.214H29.229a.214.214,0,0,0,.214-.214,1.34,1.34,0,0,0-.47-1.02,1.965,1.965,0,0,1-.69-1.5V4.874A4.253,4.253,0,0,0,24.035.626Z" transform="translate(-18.001)"/><path d="M86.7,207.229a2.33,2.33,0,0,1-2.327-2.327c0-.006,0-.016,0-.024a.313.313,0,0,1,.626.011s0,.013,0,.02a1.7,1.7,0,0,0,3.4,0s0-.008,0-.01a.313.313,0,0,1,.3-.324.309.309,0,0,1,.324.3s0,.02,0,.024A2.33,2.33,0,0,1,86.7,207.229Z" transform="translate(-80.667 -193.15)"/></g></g></svg>