<svg xmlns="http://www.w3.org/2000/svg" width="6.068" height="6.498" viewBox="0 0 6.068 6.498"><g transform="translate(117.681 126.036)"><g transform="translate(-117.681 -126.036)"><path d="M112.393,3.836a.361.361,0,0,1-.361-.361V.361a.361.361,0,0,1,.722,0V3.475A.361.361,0,0,1,112.393,3.836Z" transform="translate(-109.359)" fill="#fff"/><path d="M11.389,33.017a3.034,3.034,0,0,1-1.331-5.76.361.361,0,0,1,.317.649,2.312,2.312,0,1,0,2.027,0,.361.361,0,1,1,.317-.649,3.034,3.034,0,0,1-1.331,5.76Z" transform="translate(-8.355 -26.519)" fill="#fff"/></g></g></svg>