<svg xmlns="http://www.w3.org/2000/svg" width="4.179" height="5.301" viewBox="0 0 4.179 5.301"><g transform="translate(-1.08 -0.104) rotate(-13)"><path d="M.983,2.4s.184.508.647,1.472v.007a11.766,11.766,0,0,0,.773,1.4,1.144,1.144,0,0,0,1.376.213c.3-.147.25-.493-.029-1.067h0c-.25-.515-.53-.53-.714-.368a.721.721,0,0,0-.162.177s-.11.184-.53-.692-.25-.824-.25-.824a.811.811,0,0,0,.235.015c.235-.052.427-.3.155-.861h0c-.28-.574-.515-.831-.817-.684A1.241,1.241,0,0,0,.983,2.4Z" transform="translate(0 0)" fill="none" stroke="#000" stroke-width="0.2" fill-rule="evenodd"/></g></svg>