<svg xmlns="http://www.w3.org/2000/svg" width="13.107" height="15.922" viewBox="0 0 13.107 15.922"><g transform="translate(-0.62 2.296) rotate(-17)"><path d="M1,4.7s.521,1.437,1.832,4.164v.021a33.3,33.3,0,0,0,2.186,3.956,3.238,3.238,0,0,0,3.894.6c.854-.416.708-1.4-.083-3.019h0c-.708-1.458-1.5-1.5-2.02-1.041a2.04,2.04,0,0,0-.458.5s-.312.521-1.5-1.957c-1.187-2.457-.708-2.332-.708-2.332a2.3,2.3,0,0,0,.666.042c.666-.146,1.208-.854.437-2.436h0C4.457,1.575,3.79.846,2.937,1.262A3.511,3.511,0,0,0,1,4.7Z" transform="translate(0 0)" fill="none" stroke="#000" stroke-width="1" fill-rule="evenodd"/></g></svg>