<svg xmlns="http://www.w3.org/2000/svg" width="9.037" height="11.191" viewBox="0 0 9.037 11.191"><g transform="translate(-1.052 1.086) rotate(-16)"><path d="M.993,3.782s.386,1.066,1.36,3.09v.015A24.706,24.706,0,0,0,3.975,9.822a2.4,2.4,0,0,0,2.889.448c.633-.309.525-1.035-.062-2.24h0C6.277,6.949,5.69,6.918,5.3,7.258a1.514,1.514,0,0,0-.34.371s-.232.386-1.112-1.452c-.881-1.823-.525-1.73-.525-1.73a1.7,1.7,0,0,0,.494.031c.494-.108.9-.633.324-1.808h0C3.558,1.464,3.064.924,2.43,1.233A2.6,2.6,0,0,0,.993,3.782Z" transform="translate(0 0)" fill="none" stroke="#03b67b" stroke-width="0.3" fill-rule="evenodd"/></g></svg>