<svg xmlns="http://www.w3.org/2000/svg" width="6.371" height="8.05" viewBox="0 0 6.371 8.05"><g transform="translate(0.251 1.249) rotate(-13)"><path d="M.014,1.876s.275.759.968,2.2v.011A17.6,17.6,0,0,0,2.137,6.178,1.711,1.711,0,0,0,4.195,6.5c.451-.22.374-.737-.044-1.6h0c-.374-.77-.792-.792-1.067-.55a1.078,1.078,0,0,0-.242.264s-.165.275-.792-1.034-.374-1.232-.374-1.232a1.213,1.213,0,0,0,.352.022c.352-.077.638-.451.231-1.287h0C1.84.226,1.488-.159,1.037.061A1.855,1.855,0,0,0,.014,1.876Z" transform="translate(0)" fill="none" stroke="#fff" stroke-width="0.4" fill-rule="evenodd"/></g></svg>