<svg xmlns="http://www.w3.org/2000/svg" width="8.836" height="9.712" viewBox="0 0 8.836 9.712"><g transform="translate(114.656 126.041)"><g transform="translate(-114.656 -126.041)"><path d="M13.836,9.707A2.456,2.456,0,0,1,12.1,5.513L17.085.527A1.816,1.816,0,1,1,19.653,3.1L15,7.744a1.175,1.175,0,1,1-1.662-1.662l4.241-4.241a.216.216,0,0,1,.305.305L13.648,6.387A.743.743,0,1,0,14.7,7.439L19.348,2.79A1.385,1.385,0,0,0,17.39.832L12.4,5.818a2.026,2.026,0,0,0,2.865,2.865L19.847,4.1a.216.216,0,1,1,.305.305L15.574,8.989A2.45,2.45,0,0,1,13.836,9.707Z" transform="translate(-11.38 0.005)" fill="#878787"/></g></g></svg>