<svg xmlns="http://www.w3.org/2000/svg" width="13.352" height="13.35" viewBox="0 0 13.352 13.35"><g transform="translate(126.036 126.036)"><g transform="translate(-126.036 -126.036)"><path d="M9.262,13.353A5.05,5.05,0,0,1,5.68,11.872l-4.2-4.2a5.065,5.065,0,0,1,0-7.163,1.737,1.737,0,0,1,2.6.167L5.234,2.167a1.5,1.5,0,0,1-.127,1.972,1.167,1.167,0,0,0,0,1.649l2.46,2.46a1.166,1.166,0,0,0,1.649,0,1.5,1.5,0,0,1,1.972-.127l1.488,1.148a1.737,1.737,0,0,1,.167,2.6A5.049,5.049,0,0,1,9.262,13.353ZM2.709.893a.834.834,0,0,0-.6.248,4.18,4.18,0,0,0,0,5.9l4.2,4.2a4.18,4.18,0,0,0,5.9,0,.846.846,0,0,0-.082-1.269L10.645,8.826a.608.608,0,0,0-.8.051,2.056,2.056,0,0,1-2.908,0l-2.46-2.46a2.058,2.058,0,0,1,0-2.908.607.607,0,0,0,.051-.8L3.382,1.223A.835.835,0,0,0,2.766.9Z" transform="translate(0 -0.003)" fill="#fff"/><path d="M124.31,7.121a.445.445,0,0,1-.445-.445A5.792,5.792,0,0,0,118.079.89a.445.445,0,1,1,0-.89,6.684,6.684,0,0,1,6.676,6.676A.445.445,0,0,1,124.31,7.121Z" transform="translate(-111.403)" fill="#fff"/><path d="M122.17,45.367a.445.445,0,0,1-.445-.445,3.651,3.651,0,0,0-3.647-3.647.445.445,0,1,1,0-.89,4.542,4.542,0,0,1,4.537,4.537A.445.445,0,0,1,122.17,45.367Z" transform="translate(-111.403 -38.246)" fill="#fff"/></g></g></svg>