<svg xmlns="http://www.w3.org/2000/svg" width="12.632" height="12.532" viewBox="0 0 12.632 12.532"><g transform="matrix(0.695, -0.719, 0.719, 0.695, 145.812, 35.412)"><g transform="translate(-79.375 -126.052)"><path d="M52.368,10.9H47.832a1.172,1.172,0,0,1-1.171-1.17V3.66a1.938,1.938,0,0,1,.592-1.39L49.288.313a1.167,1.167,0,0,1,1.623,0L52.947,2.27a1.938,1.938,0,0,1,.592,1.39V9.734A1.172,1.172,0,0,1,52.368,10.9ZM50.1.47a.683.683,0,0,0-.475.192L47.589,2.62a1.45,1.45,0,0,0-.443,1.04V9.733a.686.686,0,0,0,.685.685h4.536a.686.686,0,0,0,.685-.685V3.66a1.45,1.45,0,0,0-.443-1.04L50.575.662A.683.683,0,0,0,50.1.47Z" transform="translate(-46.661 0.016)" fill="#fff"/><circle cx="0.448" cy="0.448" r="0.448" transform="translate(2.99 1.349)" fill="#fff"/></g></g></svg>