<svg xmlns="http://www.w3.org/2000/svg" width="3.56" height="4.641" viewBox="0 0 3.56 4.641"><g transform="translate(0 0)"><path d="M108.268.65a3.136,3.136,0,0,1-1.381-.595.287.287,0,0,0-.176-.06,7.609,7.609,0,0,0,0,4.641.422.422,0,0,0,.132-.021,2.231,2.231,0,0,0,1.662-2.04V.935A.289.289,0,0,0,108.268.65Z" transform="translate(-104.945 0.006)" fill="#001f72"/><path d="M30.357.65A3.136,3.136,0,0,0,31.738.055a.287.287,0,0,1,.176-.06V4.635a.422.422,0,0,1-.132-.021,2.231,2.231,0,0,1-1.662-2.04V.935A.289.289,0,0,1,30.357.65Z" transform="translate(-30.12 0.006)" fill="#2e3197"/><path d="M66.956,63.019h-.029a1.109,1.109,0,0,0,0,2.217h.029A8.377,8.377,0,0,0,66.956,63.019Z" transform="translate(-65.162 -61.858)" fill="#cfd3e6"/><path d="M127.585,63.019h.029a1.109,1.109,0,0,1,0,2.217h-.029Z" transform="translate(-125.79 -61.858)" fill="#e4e8f0"/><path d="M91.784,109.811l-.125.125-.169-.169a.154.154,0,0,0-.217,0l-.116.116a.154.154,0,0,0,0,.217l.393.393a.154.154,0,0,0,.217,0l.016-.016A.791.791,0,0,0,91.784,109.811Z" transform="translate(-89.99 -107.702)" fill="#005ffb"/><path d="M128.157,99.484l-.116-.116a.157.157,0,0,0-.217,0l-.236.236v.666l.57-.57A.154.154,0,0,0,128.157,99.484Z" transform="translate(-125.793 -97.496)" fill="#005ffb"/></g></svg>