<svg xmlns="http://www.w3.org/2000/svg" width="3.786" height="4.935" viewBox="0 0 3.786 4.935"><g transform="translate(95.916 126.042)"><g transform="translate(-95.916 -126.042)"><path d="M108.39.691a3.334,3.334,0,0,1-1.468-.632.306.306,0,0,0-.188-.064,8.091,8.091,0,0,0,0,4.935.449.449,0,0,0,.14-.022,2.372,2.372,0,0,0,1.768-2.17V.994A.308.308,0,0,0,108.39.691Z" transform="translate(-104.856 0.006)" fill="#001f72"/><path d="M30.372.691A3.334,3.334,0,0,0,31.84.059a.306.306,0,0,1,.188-.064V4.93a.448.448,0,0,1-.14-.022,2.372,2.372,0,0,1-1.768-2.17V.994A.308.308,0,0,1,30.372.691Z" transform="translate(-30.12 0.006)" fill="#2e3197"/><path d="M67.028,63.02l-.03,0a1.179,1.179,0,0,0,0,2.358l.03,0A8.908,8.908,0,0,0,67.028,63.02Z" transform="translate(-65.12 -61.784)" fill="#cfd3e6"/><path d="M127.585,63.02l.03,0a1.179,1.179,0,1,1,0,2.358l-.03,0Z" transform="translate(-125.677 -61.784)" fill="#e4e8f0"/><path d="M91.827,109.817l-.133.133-.179-.179a.163.163,0,0,0-.231,0l-.123.123a.163.163,0,0,0,0,.231l.418.418a.163.163,0,0,0,.231,0l.017-.017A.841.841,0,0,0,91.827,109.817Z" transform="translate(-89.919 -107.574)" fill="#005ffb"/><path d="M128.193,99.494l-.123-.123a.167.167,0,0,0-.231,0l-.251.251v.708l.606-.606A.163.163,0,0,0,128.193,99.494Z" transform="translate(-125.679 -97.38)" fill="#005ffb"/></g></g></svg>