<svg xmlns="http://www.w3.org/2000/svg" width="7.56" height="12.962" viewBox="0 0 7.56 12.962"><g transform="translate(73.507 126.036)"><g transform="translate(-73.507 -126.036)"><path d="M59.8,107.3a.288.288,0,0,0-.288.288v.937a3.2,3.2,0,0,1-6.408,0v-.937a.288.288,0,1,0-.576,0v.937a3.784,3.784,0,0,0,3.492,3.768v1.876H54.706a.288.288,0,1,0,0,.576h3.2a.288.288,0,1,0,0-.576H56.6V112.3a3.784,3.784,0,0,0,3.492-3.768v-.937A.288.288,0,0,0,59.8,107.3Z" transform="translate(-52.529 -101.786)" fill="#fff"/><path d="M85.169,8.614A2.218,2.218,0,0,0,87.385,6.4V2.215a2.215,2.215,0,1,0-4.431,0V6.4A2.218,2.218,0,0,0,85.169,8.614Zm-1.639-6.4a1.639,1.639,0,0,1,3.279,0V6.4a1.639,1.639,0,0,1-3.279,0Z" transform="translate(-81.39)" fill="#fff"/></g></g></svg>