<svg xmlns="http://www.w3.org/2000/svg" width="16.521" height="5.737" viewBox="0 0 16.521 5.737"><g transform="translate(0 60)"><g transform="translate(0 -60)"><path d="M.367,121.169H16.154a.367.367,0,0,0,0-.734H.367a.367.367,0,0,0,0,.734Z" transform="translate(0 -117.933)"/><path d="M205.572,88.009a.367.367,0,0,0,.26-.627l-2.242-2.242,2.242-2.242a.367.367,0,0,0-.519-.519l-2.5,2.5a.367.367,0,0,0,0,.519l2.5,2.5A.366.366,0,0,0,205.572,88.009Z" transform="translate(-202.703 -82.271)"/></g></g></svg>