<svg xmlns="http://www.w3.org/2000/svg" width="11.606" height="4.03" viewBox="0 0 11.606 4.03"><g transform="translate(126.036 43.765)"><g transform="translate(-126.036 -43.765)"><path d="M11.348,120.95H.258a.258.258,0,0,1,0-.516h11.09a.258.258,0,0,1,0,.516Z" transform="translate(0 -118.677)" fill="#fff"/><path d="M202.961,86.3a.258.258,0,0,1-.182-.44l1.575-1.575-1.575-1.575a.258.258,0,0,1,.365-.365L204.9,84.1a.258.258,0,0,1,0,.365l-1.757,1.757A.257.257,0,0,1,202.961,86.3Z" transform="translate(-193.37 -82.271)" fill="#fff"/></g></g></svg>