<svg xmlns="http://www.w3.org/2000/svg" width="8.794" height="5.085" viewBox="0 0 8.794 5.085"><g transform="translate(-31.07 -44.85)"><path d="M63.035,49.931a.266.266,0,0,1-.174-.065l-.238-.2a.266.266,0,1,1,.345-.4l.035.029,3.624-4.334a.266.266,0,1,1,.408.341L63.24,49.84a.266.266,0,0,1-.184.095Z" transform="translate(-27.245)" fill="#878787"/><path d="M33.983,50.014a.266.266,0,0,1-.189-.079l-2.654-2.649a.266.266,0,0,1,.376-.377l2.449,2.449,3.608-4.315a.268.268,0,0,1,.414.341l-3.8,4.539a.266.266,0,0,1-.2.091Z" transform="translate(0 -0.083)" fill="#878787"/></g></svg>