<svg xmlns="http://www.w3.org/2000/svg" width="11.741" height="11.741" viewBox="0 0 11.741 11.741"><g transform="translate(126.039 126.036)"><g transform="translate(-126.039 -126.036)"><path d="M11.737.122a.129.129,0,0,0-.007-.034l0-.012A.13.13,0,0,0,11.7.037a.13.13,0,0,0-.038-.026l-.013,0A.123.123,0,0,0,11.617,0H11.6a.13.13,0,0,0-.042.008L.082,4.315a.13.13,0,0,0-.011.24l4.8,2.315,2.315,4.8a.131.131,0,0,0,.118.074h.006a.131.131,0,0,0,.116-.084L11.73.175a.128.128,0,0,0,.008-.042A.108.108,0,0,0,11.737.122ZM11.09.463,4.939,6.614.459,4.453Zm-3.8,10.815L5.123,6.8,11.274.648Z" transform="translate(0.003 0)" fill="#878787"/></g></g></svg>