<svg xmlns="http://www.w3.org/2000/svg" width="11.992" height="11.991" viewBox="0 0 11.992 11.991"><g transform="translate(0 0)"><path d="M4.566,11.994a.689.689,0,0,1-.263-.053L2.991,11.4a.688.688,0,0,1-.372-.9A.86.86,0,0,0,1.5,9.376.688.688,0,0,1,.6,9L.053,7.692a.689.689,0,0,1,.372-.9.86.86,0,0,0,0-1.589.688.688,0,0,1-.372-.9L.6,2.993a.689.689,0,0,1,.9-.372A.86.86,0,0,0,2.619,1.5.689.689,0,0,1,2.991.6L4.3.056a.688.688,0,0,1,.9.373.86.86,0,0,0,1.589,0,.689.689,0,0,1,.9-.372L9,.6a.688.688,0,0,1,.372.9A.86.86,0,0,0,10.5,2.621a.688.688,0,0,1,.9.373l.543,1.311a.689.689,0,0,1-.372.9.86.86,0,0,0,0,1.589h0a.689.689,0,0,1,.372.9L11.4,9a.688.688,0,0,1-.9.372A.86.86,0,0,0,9.373,10.5.688.688,0,0,1,9,11.4l-1.312.543a.689.689,0,0,1-.9-.372.86.86,0,0,0-1.589,0,.684.684,0,0,1-.372.372A.692.692,0,0,1,4.566,11.994ZM3.4,10.7l1.112.461A1.631,1.631,0,0,1,6,10.239H6a1.631,1.631,0,0,1,1.487.923L8.6,10.7a1.66,1.66,0,0,1,2.1-2.1l.461-1.112a1.66,1.66,0,0,1,0-2.974L10.7,3.4a1.631,1.631,0,0,1-1.7-.4,1.631,1.631,0,0,1-.4-1.7L7.483.835a1.66,1.66,0,0,1-2.974,0L3.4,1.3A1.631,1.631,0,0,1,3,3a1.63,1.63,0,0,1-1.7.4L.832,4.511a1.66,1.66,0,0,1,0,2.974L1.293,8.6A1.631,1.631,0,0,1,3,9,1.63,1.63,0,0,1,3.4,10.7Zm7.864-3.17h0ZM6,8.767A2.769,2.769,0,1,1,8.765,6,2.772,2.772,0,0,1,6,8.767ZM6,4.029A1.97,1.97,0,1,0,7.965,6,1.972,1.972,0,0,0,6,4.029Z" transform="translate(0 -0.003)"/></g></svg>