<svg xmlns="http://www.w3.org/2000/svg" width="9.791" height="9.92" viewBox="0 0 9.791 9.92"><g transform="translate(124.392 126.036)"><g transform="translate(-124.392 -126.036)"><path d="M9.777,6.6a1.655,1.655,0,0,0-1.3.626L4.9,5.4a1.617,1.617,0,0,0,0-.886L8.481,2.69a1.672,1.672,0,1,0-.3-.589L4.6,3.928a1.658,1.658,0,1,0,0,2.064L8.18,7.819A1.657,1.657,0,1,0,9.777,6.6Zm0-5.943a1,1,0,1,1-1,1A1,1,0,0,1,9.777.661ZM3.3,5.957a1,1,0,1,1,1-1A1,1,0,0,1,3.3,5.957Zm6.474,3.3a1,1,0,1,1,1-1A1,1,0,0,1,9.777,9.259Z" transform="translate(-1.644)"/></g></g></svg>