<svg xmlns="http://www.w3.org/2000/svg" width="9.495" height="9.621" viewBox="0 0 9.495 9.621"><g transform="translate(123.392 126.036)"><g transform="translate(-123.392 -126.036)"><path d="M9.531,6.4a1.6,1.6,0,0,0-1.256.607L4.8,5.24a1.568,1.568,0,0,0,0-.859L8.275,2.609a1.621,1.621,0,1,0-.292-.571L4.509,3.81a1.608,1.608,0,1,0,0,2L7.983,7.583A1.607,1.607,0,1,0,9.531,6.4Zm0-5.763a.967.967,0,1,1-.967.967A.968.968,0,0,1,9.531.641ZM3.252,5.777a.967.967,0,1,1,.967-.967A.968.968,0,0,1,3.252,5.777Zm6.279,3.2a.967.967,0,1,1,.967-.967A.968.968,0,0,1,9.531,8.979Z" transform="translate(-1.644)" fill="#fff"/></g></g></svg>