<svg xmlns="http://www.w3.org/2000/svg" width="13.891" height="12.129" viewBox="0 0 13.891 12.129"><g transform="translate(0 -31.05)"><g transform="translate(0 31.05)"><path d="M251.024,263.75h-1.888a.938.938,0,0,0-.937.937v1.448a.938.938,0,0,0,.937.937h1.888a.938.938,0,0,0,.937-.937v-1.448A.938.938,0,0,0,251.024,263.75Zm.255,2.384a.256.256,0,0,1-.255.255h-1.888a.256.256,0,0,1-.255-.255v-1.448a.256.256,0,0,1,.255-.255h1.888a.256.256,0,0,1,.255.255Z" transform="translate(-241.155 -257.145)" fill="#878787"/><path d="M13.891,35.024a.316.316,0,0,0-.045-.167L11.78,31.223a.342.342,0,0,0-.3-.173H2.4a.337.337,0,0,0-.3.173L.045,34.856A.344.344,0,0,0,0,35.024a1.993,1.993,0,0,0,1.192,1.822v5.992a.342.342,0,0,0,.341.341H12.356a.342.342,0,0,0,.341-.341V36.889a.15.15,0,0,0,0-.037A2,2,0,0,0,13.891,35.024ZM2.6,31.734h8.683L12.9,34.575H.991Zm7.283,3.52a1.309,1.309,0,0,1-2.577,0Zm-3.3,0a1.311,1.311,0,0,1-2.58,0Zm-5.881,0h2.58a1.311,1.311,0,0,1-2.58,0ZM5.722,42.5H3.764V38.822a.485.485,0,0,1,.485-.485H5.24a.485.485,0,0,1,.485.485V42.5Zm6.293,0H6.4V38.822a1.168,1.168,0,0,0-1.167-1.167H4.246A1.168,1.168,0,0,0,3.08,38.822V42.5H1.873V37.014c.04,0,.079,0,.119,0a1.99,1.99,0,0,0,1.652-.88,1.991,1.991,0,0,0,3.3,0,1.985,1.985,0,0,0,3.3,0,1.99,1.99,0,0,0,1.652.88l.116,0V42.5ZM11.9,36.335a1.308,1.308,0,0,1-1.289-1.079h2.58A1.316,1.316,0,0,1,11.9,36.335Z" transform="translate(0 -31.05)" fill="#878787"/></g></g></svg>