<svg xmlns="http://www.w3.org/2000/svg" width="12.766" height="12.766" viewBox="0 0 12.766 12.766"><g transform="translate(126.036 126.036)"><g transform="translate(-126.036 -126.036)"><path d="M6.383,12.766a6.383,6.383,0,1,1,6.383-6.383A6.39,6.39,0,0,1,6.383,12.766Zm0-12.2A5.816,5.816,0,1,0,12.2,6.383,5.823,5.823,0,0,0,6.383.567Z" fill="#878787"/><circle cx="0.709" cy="0.709" r="0.709" transform="translate(3.688 4.334)" fill="#878787"/><circle cx="0.709" cy="0.709" r="0.709" transform="translate(7.66 4.334)" fill="#878787"/><path d="M72.631,157.73a3.357,3.357,0,0,1-2.8-1.506.284.284,0,1,1,.473-.314,2.792,2.792,0,0,0,4.658,0,.284.284,0,0,1,.473.314A3.357,3.357,0,0,1,72.631,157.73Z" transform="translate(-66.248 -147.893)" fill="#878787"/></g></g></svg>