<svg xmlns="http://www.w3.org/2000/svg" width="11.209" height="6.955" viewBox="0 0 11.209 6.955"><g transform="translate(126.035 78.204)"><g transform="translate(-126.035 -78.204)"><path d="M94.133,48.33h-6.84a.249.249,0,0,1,0-.5h6.84a.249.249,0,0,1,0,.5Z" transform="translate(-83.173 -47.832)" fill="#878787"/><path d="M92.477,96.731H87.292a.249.249,0,0,1,0-.5h5.185a.249.249,0,1,1,0,.5Z" transform="translate(-83.173 -94.08)" fill="#878787"/><path d="M90.821,145.134H87.292a.249.249,0,1,1,0-.5h3.529a.249.249,0,0,1,0,.5Z" transform="translate(-83.173 -140.331)" fill="#878787"/><path d="M89.166,193.535H87.292a.249.249,0,1,1,0-.5h1.873a.249.249,0,1,1,0,.5Z" transform="translate(-83.173 -186.58)" fill="#878787"/><path d="M24.994,54.787a.249.249,0,0,1-.249-.249V48.081a.249.249,0,1,1,.5,0v6.457A.249.249,0,0,1,24.994,54.787Z" transform="translate(-23.645 -47.832)" fill="#878787"/><path d="M1.35,169.891a.248.248,0,0,1-.176-.073l-1.1-1.1a.249.249,0,0,1,.352-.352l.924.924.924-.924a.249.249,0,0,1,.352.352l-1.1,1.1A.248.248,0,0,1,1.35,169.891Z" transform="translate(-0.001 -162.936)" fill="#878787"/></g></g></svg>