<svg xmlns="http://www.w3.org/2000/svg" width="9.5" height="5.895" viewBox="0 0 9.5 5.895"><g transform="translate(126.035 78.204)"><g transform="translate(-126.035 -78.204)"><path d="M93.052,48.254h-5.8a.211.211,0,1,1,0-.422h5.8a.211.211,0,1,1,0,.422Z" transform="translate(-83.763 -47.832)" fill="#707070"/><path d="M91.649,96.655H87.254a.211.211,0,1,1,0-.422h4.394a.211.211,0,0,1,0,.422Z" transform="translate(-83.763 -94.409)" fill="#707070"/><path d="M90.245,145.058H87.254a.211.211,0,1,1,0-.422h2.991a.211.211,0,1,1,0,.422Z" transform="translate(-83.763 -140.988)" fill="#707070"/><path d="M88.842,193.459H87.254a.211.211,0,1,1,0-.422h1.588a.211.211,0,0,1,0,.422Z" transform="translate(-83.763 -187.564)" fill="#707070"/><path d="M24.956,53.727a.211.211,0,0,1-.211-.211V48.043a.211.211,0,0,1,.422,0v5.472A.211.211,0,0,1,24.956,53.727Z" transform="translate(-23.813 -47.832)" fill="#707070"/><path d="M1.144,169.647A.21.21,0,0,1,1,169.585l-.933-.933a.211.211,0,0,1,.3-.3l.783.783.783-.783a.211.211,0,0,1,.3.3l-.933.933A.21.21,0,0,1,1.144,169.647Z" transform="translate(-0.001 -163.753)" fill="#707070"/></g></g></svg>