<svg xmlns="http://www.w3.org/2000/svg" width="5.737" height="4.886" viewBox="0 0 5.737 4.886"><g transform="translate(126.036 107.332)"><g transform="translate(-126.036 -107.332)"><path d="M4.586,23.589a.229.229,0,0,1-.138-.046l-1.085-.814a4.076,4.076,0,0,1-.494.03C1.287,22.76,0,21.85,0,20.732S1.287,18.7,2.869,18.7s2.869.91,2.869,2.028a1.823,1.823,0,0,1-.92,1.49v1.137a.229.229,0,0,1-.127.206A.232.232,0,0,1,4.586,23.589ZM3.415,22.532l1.147.86a.041.041,0,0,0,.066-.033V22.117l.044-.028a1.658,1.658,0,0,0,.876-1.358c0-1.014-1.2-1.839-2.679-1.839S.189,19.718.189,20.732s1.2,1.839,2.679,1.839a3.9,3.9,0,0,0,.508-.034Z" transform="translate(0 -18.704)"/></g></g></svg>