<svg xmlns="http://www.w3.org/2000/svg" width="14.156" height="13.484" viewBox="0 0 14.156 13.484"><g transform="translate(126.036 120.042)"><g transform="translate(-126.036 -120.042)"><path d="M13.012,5.994H3.785A1.146,1.146,0,0,0,2.641,7.138v1.5h-1.5A1.146,1.146,0,0,0,0,9.779V16.07a1.146,1.146,0,0,0,1.144,1.144H6.666l1.552,1.912a.937.937,0,0,0,.73.352.962.962,0,0,0,.322-.056.937.937,0,0,0,.631-.893V17.214h.47a1.146,1.146,0,0,0,1.144-1.144v-1.5h1.5a1.146,1.146,0,0,0,1.144-1.144V7.138A1.146,1.146,0,0,0,13.012,5.994Zm-2.6,10.076a.043.043,0,0,1-.043.043H9.351a.551.551,0,0,0-.551.551V18.1L7.356,16.316a.551.551,0,0,0-.428-.2H1.144A.043.043,0,0,1,1.1,16.07V9.779a.043.043,0,0,1,.043-.043h9.227a.043.043,0,0,1,.043.043Zm2.641-2.641a.043.043,0,0,1-.043.043h-1.5V9.779a1.146,1.146,0,0,0-1.144-1.144H3.742v-1.5a.043.043,0,0,1,.043-.043h9.227a.043.043,0,0,1,.043.043Z" transform="translate(0 -5.994)" fill="#fff"/></g></g></svg>