<svg xmlns="http://www.w3.org/2000/svg" width="10.369" height="8.83" viewBox="0 0 10.369 8.83"><g transform="translate(126.036 107.332)"><g transform="translate(-126.036 -107.332)"><path d="M8.289,27.534a.414.414,0,0,1-.249-.084L6.078,25.979a7.366,7.366,0,0,1-.893.055C2.326,26.034,0,24.39,0,22.369S2.326,18.7,5.184,18.7s5.184,1.644,5.184,3.665a3.3,3.3,0,0,1-1.663,2.693v2.055a.415.415,0,0,1-.23.373A.419.419,0,0,1,8.289,27.534ZM6.172,25.622l2.073,1.554a.075.075,0,0,0,.119-.06V24.873l.08-.05a3,3,0,0,0,1.583-2.454c0-1.832-2.172-3.323-4.843-3.323S.342,20.536.342,22.369s2.172,3.323,4.843,3.323a7.048,7.048,0,0,0,.918-.061Z" transform="translate(0 -18.704)"/></g></g></svg>