<svg xmlns="http://www.w3.org/2000/svg" width="7.442" height="6.397" viewBox="0 0 7.442 6.397"><g transform="translate(126.236 107.532)"><g transform="translate(-126.036 -107.332)"><path d="M5.629,24.7a.281.281,0,0,1-.169-.057l-1.332-1a5,5,0,0,1-.607.037C1.579,23.682,0,22.565,0,21.193S1.579,18.7,3.521,18.7s3.521,1.117,3.521,2.489a2.238,2.238,0,0,1-1.13,1.829v1.4a.282.282,0,0,1-.156.253A.284.284,0,0,1,5.629,24.7ZM4.191,23.4,5.6,24.458a.051.051,0,0,0,.081-.041V22.894l.054-.034A2.035,2.035,0,0,0,6.81,21.193c0-1.245-1.475-2.257-3.289-2.257S.232,19.948.232,21.193,1.707,23.45,3.521,23.45a4.787,4.787,0,0,0,.624-.041Z" transform="translate(0 -18.704)" fill="none" stroke="#03b67b" stroke-width="0.4"/></g></g></svg>