<svg xmlns="http://www.w3.org/2000/svg" width="15.259" height="14.442" viewBox="0 0 15.259 14.442"><g transform="translate(0 -12)"><g transform="translate(0 12)"><g transform="translate(0 0)"><path d="M13.079,17.463a5.45,5.45,0,1,0-10.9-.014v.014A2.313,2.313,0,0,0,0,19.766v.272a2.314,2.314,0,0,0,2.316,2.316h.123l.967,1.54a3.644,3.644,0,0,0,3.12,1.73h.191a1.09,1.09,0,1,0,0-.545H6.526a3.108,3.108,0,0,1-2.657-1.485l-.79-1.24H3.27a.547.547,0,0,0,.545-.545V17.995a.547.547,0,0,0-.545-.545H2.725a4.9,4.9,0,1,1,9.809,0h-.545a.547.547,0,0,0-.545.545v3.815a.547.547,0,0,0,.545.545h.954a2.314,2.314,0,0,0,2.316-2.316v-.272A2.313,2.313,0,0,0,13.079,17.463ZM7.766,24.807a.545.545,0,1,1-.545.545A.547.547,0,0,1,7.766,24.807Zm-4.5-6.812v3.815H2.316A1.768,1.768,0,0,1,.545,20.038v-.272a1.768,1.768,0,0,1,1.771-1.771Zm11.444,2.044a1.768,1.768,0,0,1-1.771,1.771h-.954V17.995h.954a1.768,1.768,0,0,1,1.771,1.771Z" transform="translate(0 -12)"/><path d="M272.768,67.347a1.253,1.253,0,0,1-.109-.068,1.248,1.248,0,0,0-.109-.068.256.256,0,0,0-.368.1.267.267,0,0,0,.1.368,1.25,1.25,0,0,1,.109.068.552.552,0,0,0,.123.068.263.263,0,0,0,.136.041.253.253,0,0,0,.232-.136A.275.275,0,0,0,272.768,67.347Z" transform="translate(-262.877 -65.29)"/><path d="M137.189,52a3.946,3.946,0,0,0-3,1.376.276.276,0,0,0,.027.381.287.287,0,0,0,.177.068.245.245,0,0,0,.2-.1,3.437,3.437,0,0,1,2.589-1.185,3.382,3.382,0,0,1,.736.082.289.289,0,0,0,.327-.2.284.284,0,0,0-.2-.327A3.684,3.684,0,0,0,137.189,52Z" transform="translate(-129.559 -50.638)"/></g></g></g></svg>