<svg xmlns="http://www.w3.org/2000/svg" width="11.398" height="10.787" viewBox="0 0 11.398 10.787"><g transform="translate(0 -12)"><g transform="translate(0 12)"><g transform="translate(0 0)"><path d="M9.769,16.081a4.071,4.071,0,1,0-8.141-.01v.01A1.728,1.728,0,0,0,0,17.8V18a1.729,1.729,0,0,0,1.73,1.73h.092l.723,1.15a2.722,2.722,0,0,0,2.33,1.292h.142a.814.814,0,1,0,0-.407H4.875A2.322,2.322,0,0,1,2.89,20.66l-.59-.926h.142a.408.408,0,0,0,.407-.407V16.478a.408.408,0,0,0-.407-.407H2.035a3.664,3.664,0,1,1,7.327,0H8.955a.408.408,0,0,0-.407.407v2.849a.408.408,0,0,0,.407.407h.712A1.729,1.729,0,0,0,11.4,18v-.2A1.728,1.728,0,0,0,9.769,16.081ZM5.8,21.566a.407.407,0,1,1-.407.407A.408.408,0,0,1,5.8,21.566ZM2.442,16.478v2.849H1.73A1.32,1.32,0,0,1,.407,18v-.2A1.32,1.32,0,0,1,1.73,16.478ZM10.991,18a1.32,1.32,0,0,1-1.323,1.323H8.955V16.478h.712A1.32,1.32,0,0,1,10.991,17.8Z" transform="translate(0 -12)" fill="#fff"/><path d="M272.611,67.3a.932.932,0,0,1-.081-.051.934.934,0,0,0-.081-.051.191.191,0,0,0-.275.071.2.2,0,0,0,.071.275.932.932,0,0,1,.081.051.413.413,0,0,0,.092.051.2.2,0,0,0,.1.031.189.189,0,0,0,.173-.1A.206.206,0,0,0,272.611,67.3Z" transform="translate(-265.222 -65.765)" fill="#fff"/><path d="M136.414,52a2.947,2.947,0,0,0-2.239,1.028.206.206,0,0,0,.02.285.214.214,0,0,0,.132.051.183.183,0,0,0,.153-.071,2.567,2.567,0,0,1,1.934-.885,2.526,2.526,0,0,1,.55.061.216.216,0,0,0,.244-.153.212.212,0,0,0-.153-.244A2.752,2.752,0,0,0,136.414,52Z" transform="translate(-130.715 -50.982)" fill="#fff"/></g></g></g></svg>