<svg xmlns="http://www.w3.org/2000/svg" width="5.745" height="6.707" viewBox="0 0 5.745 6.707"><g transform="translate(107.96 126.036)"><g transform="translate(-107.96 -126.036)"><path d="M39.745,38.474H36.737a.6.6,0,0,1-.6-.562l-.3-5.119a.149.149,0,0,1,.149-.158h4.5a.149.149,0,0,1,.149.158l-.3,5.119A.6.6,0,0,1,39.745,38.474Zm-3.6-5.541.29,4.961a.3.3,0,0,0,.3.282h3.008a.3.3,0,0,0,.3-.282l.29-4.961H36.148Z" transform="translate(-35.368 -31.767)"/><path d="M23.673,32.933H18.225a.149.149,0,0,1,0-.3h5.447a.149.149,0,1,1,0,.3Z" transform="translate(-18.076 -31.767)"/><path d="M83.31,1.166h-2.1a.149.149,0,0,1-.149-.149V.591A.591.591,0,0,1,81.657,0h1.211a.591.591,0,0,1,.591.591v.427A.149.149,0,0,1,83.31,1.166Zm-1.946-.3h1.8V.591A.293.293,0,0,0,82.869.3H81.657a.293.293,0,0,0-.293.293V.868Z" transform="translate(-79.39)"/><path d="M158.8,80.217h-.009a.149.149,0,0,1-.14-.157l.189-3.223a.149.149,0,1,1,.3.017l-.189,3.223A.149.149,0,0,1,158.8,80.217Z" transform="translate(-154.907 -74.655)"/><path d="M75.465,80.216a.149.149,0,0,1-.149-.14l-.189-3.223a.149.149,0,0,1,.3-.017l.189,3.223a.149.149,0,0,1-.14.157Z" transform="translate(-73.609 -74.653)"/><path d="M120.583,80.218a.149.149,0,0,1-.149-.149V76.846a.149.149,0,0,1,.3,0v3.223A.149.149,0,0,1,120.583,80.218Z" transform="translate(-117.711 -74.656)"/></g></g></svg>