<svg xmlns="http://www.w3.org/2000/svg" width="5.843" height="6.821" viewBox="0 0 5.843 6.821"><g transform="translate(0 0)"><path d="M39.811,38.573H36.752A.608.608,0,0,1,36.146,38l-.3-5.206a.152.152,0,0,1,.151-.16h4.578a.152.152,0,0,1,.151.16L40.417,38A.608.608,0,0,1,39.811,38.573Zm-3.658-5.635.3,5.045a.3.3,0,0,0,.3.286h3.059a.3.3,0,0,0,.3-.286l.3-5.045H36.153Z" transform="translate(-35.36 -31.752)"/><path d="M23.768,32.938h-5.54a.152.152,0,0,1,0-.3h5.54a.152.152,0,1,1,0,.3Z" transform="translate(-18.076 -31.752)"/><path d="M83.349,1.186H81.218a.152.152,0,0,1-.152-.152V.6a.6.6,0,0,1,.6-.6H82.9a.6.6,0,0,1,.6.6v.434A.152.152,0,0,1,83.349,1.186ZM81.37.883H83.2V.6a.3.3,0,0,0-.3-.3H81.667a.3.3,0,0,0-.3.3V.883Z" transform="translate(-79.362)"/><path d="M158.8,80.276h-.009a.152.152,0,0,1-.143-.16l.192-3.278a.152.152,0,1,1,.3.018l-.192,3.278A.152.152,0,0,1,158.8,80.276Z" transform="translate(-154.844 -74.62)"/><path d="M75.471,80.275a.152.152,0,0,1-.151-.143l-.192-3.278a.152.152,0,0,1,.3-.018l.192,3.278a.152.152,0,0,1-.142.16Z" transform="translate(-73.584 -74.619)"/><path d="M120.586,80.278a.152.152,0,0,1-.152-.152V76.849a.152.152,0,0,1,.3,0v3.278A.152.152,0,0,1,120.586,80.278Z" transform="translate(-117.665 -74.622)"/></g></svg>