<svg xmlns="http://www.w3.org/2000/svg" width="9.764" height="11.08" viewBox="0 0 9.764 11.08"><g transform="translate(111.071 126.036)"><g transform="translate(-111.071 -126.036)"><path d="M24.729,140.527H14.965v-.246a4.882,4.882,0,1,1,9.764,0Zm-9.265-.492H24.23a4.39,4.39,0,0,0-8.766,0Z" transform="translate(-14.965 -129.448)"/><path d="M67.167,5.413a2.707,2.707,0,1,1,2.707-2.707A2.71,2.71,0,0,1,67.167,5.413Zm0-4.921a2.214,2.214,0,1,0,2.214,2.214A2.217,2.217,0,0,0,67.167.492Z" transform="translate(-62.285)"/></g></g></svg>