<svg xmlns="http://www.w3.org/2000/svg" width="7.605" height="8.63" viewBox="0 0 7.605 8.63"><g transform="translate(111.071 126.036)"><g transform="translate(-111.071 -126.036)"><path d="M22.57,139.393h-7.6V139.2a3.8,3.8,0,0,1,7.6,0Zm-7.216-.384h6.827a3.419,3.419,0,0,0-6.827,0Z" transform="translate(-14.965 -130.764)" fill="#005ffb"/><path d="M66.568,4.216a2.108,2.108,0,1,1,2.108-2.108A2.11,2.11,0,0,1,66.568,4.216Zm0-3.833a1.725,1.725,0,1,0,1.724,1.724A1.726,1.726,0,0,0,66.568.384Z" transform="translate(-62.766)" fill="#005ffb"/></g></g></svg>