<svg xmlns="http://www.w3.org/2000/svg" width="10.52" height="11.938" viewBox="0 0 10.52 11.938"><g transform="translate(111.071 126.036)"><g transform="translate(-111.071 -126.036)"><path d="M25.485,140.924H14.965v-.265a5.26,5.26,0,0,1,10.52,0Zm-9.982-.531h9.444a4.73,4.73,0,0,0-9.444,0Z" transform="translate(-14.965 -128.987)" fill="#878787"/><path d="M67.376,5.832a2.916,2.916,0,1,1,2.916-2.916A2.919,2.919,0,0,1,67.376,5.832Zm0-5.3a2.386,2.386,0,1,0,2.386,2.386A2.388,2.388,0,0,0,67.376.531Z" transform="translate(-62.116)" fill="#878787"/></g></g></svg>