<svg xmlns="http://www.w3.org/2000/svg" width="27.365" height="32.589" viewBox="0 0 27.365 32.589"><g transform="translate(105.837 126.036)"><g transform="translate(-105.837 -126.036)"><path d="M33.883,145.839a15.249,15.249,0,0,1-13.5-8.137l-.18-.339.18-.339a15.427,15.427,0,0,1,6.85-6.615,3.524,3.524,0,0,1,3.078.02,8.279,8.279,0,0,0,7.149,0,3.524,3.524,0,0,1,3.079-.02,15.424,15.424,0,0,1,6.85,6.615l.179.339-.179.339A15.247,15.247,0,0,1,33.883,145.839Z" transform="translate(-20.199 -113.25)"/><path d="M74.036,15.442a7.721,7.721,0,1,1,7.721-7.721A7.73,7.73,0,0,1,74.036,15.442Z" transform="translate(-60.352)"/></g></g></svg>