<svg xmlns="http://www.w3.org/2000/svg" width="8.749" height="9.928" viewBox="0 0 8.749 9.928"><g transform="translate(111.071 126.036)"><g transform="translate(-111.071 -126.036)"><path d="M23.714,139.994H14.965v-.221a4.375,4.375,0,1,1,8.749,0Zm-8.3-.441h7.854a3.933,3.933,0,0,0-7.854,0Z" transform="translate(-14.965 -130.066)" fill="#fff"/><path d="M66.886,4.85a2.425,2.425,0,1,1,2.425-2.425A2.428,2.428,0,0,1,66.886,4.85Zm0-4.409A1.984,1.984,0,1,0,68.87,2.425,1.986,1.986,0,0,0,66.886.441Z" transform="translate(-62.511)" fill="#fff"/></g></g></svg>