<svg xmlns="http://www.w3.org/2000/svg" width="10.597" height="12.025" viewBox="0 0 10.597 12.025"><g transform="translate(111.071 126.036)"><g transform="translate(-111.071 -126.036)"><path d="M25.562,140.965h-10.6V140.7a5.3,5.3,0,1,1,10.6,0Zm-10.056-.534H25.02a4.764,4.764,0,0,0-9.514,0Z" transform="translate(-14.965 -128.94)" fill="#fff"/><path d="M67.4,5.875a2.938,2.938,0,1,1,2.937-2.938A2.941,2.941,0,0,1,67.4,5.875Zm0-5.341a2.4,2.4,0,1,0,2.4,2.4A2.406,2.406,0,0,0,67.4.534Z" transform="translate(-62.099)" fill="#fff"/></g></g></svg>