<svg xmlns="http://www.w3.org/2000/svg" width="12.453" height="7.219" viewBox="0 0 12.453 7.219"><g transform="translate(126.036 73.067)"><g transform="translate(-126.036 -73.067)"><path d="M8.075,60.188H1.046A1.047,1.047,0,0,1,0,59.142V54.015a1.048,1.048,0,0,1,1.046-1.046H8.076a1.048,1.048,0,0,1,1.046,1.046v5.126A1.048,1.048,0,0,1,8.075,60.188ZM1.046,53.246a.77.77,0,0,0-.77.769v5.126a.771.771,0,0,0,.77.77H8.076a.771.771,0,0,0,.77-.77V54.015a.771.771,0,0,0-.77-.77H1.046Z" transform="translate(0 -52.969)" fill="#fff"/><path d="M182.072,75.192a.578.578,0,0,1-.233-.049l-2.715-1.2a.138.138,0,1,1,.112-.253l2.715,1.2a.3.3,0,0,0,.422-.276V70.195a.3.3,0,0,0-.422-.275l-2.715,1.195a.138.138,0,1,1-.112-.253l2.715-1.195a.577.577,0,0,1,.81.529v4.419a.578.578,0,0,1-.577.578Z" transform="translate(-170.197 -68.795)" fill="#fff"/><path d="M60.251,85.646a.492.492,0,0,1-.241-.064.487.487,0,0,1-.252-.43V81.711a.492.492,0,0,1,.75-.42l2.8,1.721a.492.492,0,0,1,0,.839l-2.8,1.721h0A.493.493,0,0,1,60.251,85.646Zm.185-.192h0Zm-.185-3.96a.217.217,0,0,0-.216.216v3.442a.216.216,0,0,0,.328.184l2.8-1.721a.216.216,0,0,0,0-.368l-2.8-1.721A.215.215,0,0,0,60.25,81.495Z" transform="translate(-56.806 -79.822)" fill="#fff"/></g></g></svg>