<svg xmlns="http://www.w3.org/2000/svg" width="7.361" height="12.319" viewBox="0 0 7.361 12.319"><g transform="translate(75.316 125.966)"><g transform="translate(-75.316 -125.966)"><rect width="0.274" height="0.501" transform="translate(3.544 3.338)"/><path d="M124.53,92.516l-1.295-1.293V89.374h.274v1.736l1.214,1.214Z" transform="translate(-119.691 -85.009)"/><rect width="0.274" height="0.501" transform="translate(3.544 8.481)"/><rect width="0.501" height="0.274" transform="translate(0.858 6.022)"/><rect width="0.501" height="0.274" transform="translate(6.002 6.022)"/><rect width="0.501" height="0.274" transform="translate(5.226 4.421) rotate(-45)"/><rect width="0.501" height="0.274" transform="translate(1.589 8.057) rotate(-45)"/><rect width="0.274" height="0.501" transform="translate(1.588 4.261) rotate(-45)"/><rect width="0.274" height="0.501" transform="translate(5.225 7.897) rotate(-45)"/><path d="M58.081,6.226a3.675,3.675,0,0,0-1.423-2.9V.07h-4.39V3.229a3.676,3.676,0,0,0-.063,5.95v3.21H56.6V9.179A3.677,3.677,0,0,0,58.081,6.226ZM52.542.344h3.843V1.48H54.463v.274h1.922V3.129a3.668,3.668,0,0,0-3.843-.078Zm3.78,11.771H52.479V10.979H54.4v-.274H52.479V9.364a3.672,3.672,0,0,0,3.843,0ZM54.4,9.633a3.406,3.406,0,0,1-1.911-6.226h.052V3.373A3.406,3.406,0,1,1,54.4,9.633Z" transform="translate(-50.72 -0.07)"/></g></g></svg>