<svg xmlns="http://www.w3.org/2000/svg" width="6.765" height="11.321" viewBox="0 0 6.765 11.321"><g transform="translate(75.316 125.966)"><g transform="translate(-75.316 -125.966)"><rect width="0.252" height="0.46" transform="translate(3.257 3.067)" fill="#fff"/><path d="M124.425,92.262l-1.19-1.189v-1.7h.252v1.595l1.116,1.116Z" transform="translate(-119.978 -85.363)" fill="#fff"/><rect width="0.252" height="0.46" transform="translate(3.257 7.794)" fill="#fff"/><rect width="0.46" height="0.252" transform="translate(0.789 5.534)" fill="#fff"/><rect width="0.46" height="0.252" transform="translate(5.516 5.534)" fill="#fff"/><rect width="0.46" height="0.252" transform="translate(4.802 4.063) rotate(-45)" fill="#fff"/><rect width="0.46" height="0.252" transform="translate(1.46 7.405) rotate(-45)" fill="#fff"/><rect width="0.252" height="0.46" transform="translate(1.459 3.916) rotate(-45)" fill="#fff"/><rect width="0.252" height="0.46" transform="translate(4.802 7.257) rotate(-45)" fill="#fff"/><path d="M57.485,5.728a3.378,3.378,0,0,0-1.307-2.668V.07H52.143v2.9a3.378,3.378,0,0,0-.058,5.468v2.95H56.12V8.441A3.38,3.38,0,0,0,57.485,5.728ZM52.394.322h3.532V1.365H54.16v.252h1.766V2.881a3.371,3.371,0,0,0-3.532-.071Zm3.474,10.818H52.336V10.1H54.1V9.844H52.336V8.611a3.375,3.375,0,0,0,3.532,0ZM54.1,8.859a3.13,3.13,0,0,1-1.756-5.722h.048V3.106A3.13,3.13,0,1,1,54.1,8.859Z" transform="translate(-50.72 -0.07)" fill="#fff"/></g></g></svg>