<svg xmlns="http://www.w3.org/2000/svg" width="8.989" height="15.043" viewBox="0 0 8.989 15.043"><g transform="translate(75.316 125.966)"><g transform="translate(-75.316 -125.966)"><rect width="0.334" height="0.612" transform="translate(4.328 4.076)"/><path d="M124.816,93.211l-1.581-1.58V89.374h.334v2.119l1.483,1.483Z" transform="translate(-118.908 -84.044)"/><rect width="0.334" height="0.612" transform="translate(4.328 10.357)"/><rect width="0.612" height="0.334" transform="translate(1.048 7.354)"/><rect width="0.612" height="0.334" transform="translate(7.33 7.354)"/><rect width="0.612" height="0.334" transform="translate(6.381 5.399) rotate(-45)"/><rect width="0.612" height="0.334" transform="translate(1.94 9.84) rotate(-45)"/><rect width="0.334" height="0.612" transform="translate(1.939 5.203) rotate(-45)"/><rect width="0.334" height="0.612" transform="translate(6.381 9.644) rotate(-45)"/><path d="M59.709,7.588a4.488,4.488,0,0,0-1.737-3.546V.07H52.611V3.928a4.489,4.489,0,0,0-.077,7.266v3.92H57.9v-3.92A4.491,4.491,0,0,0,59.709,7.588ZM52.945.4h4.693V1.791H55.291v.334h2.347v1.68a4.479,4.479,0,0,0-4.693-.095Zm4.616,14.375H52.868V13.392h2.346v-.334H52.868V11.42a4.484,4.484,0,0,0,4.693,0Zm-2.346-3.03a4.159,4.159,0,0,1-2.334-7.6h.064V4.1a4.159,4.159,0,1,1,2.27,7.645Z" transform="translate(-50.72 -0.07)"/></g></g></svg>