<svg xmlns="http://www.w3.org/2000/svg" width="7.853" height="13.141" viewBox="0 0 7.853 13.141"><g transform="translate(75.316 125.966)"><g transform="translate(-75.316 -125.966)"><rect width="0.292" height="0.534" transform="translate(3.78 3.56)"/><path d="M124.616,92.726l-1.381-1.38V89.374h.292v1.851l1.3,1.3Z" transform="translate(-119.455 -84.718)"/><rect width="0.292" height="0.534" transform="translate(3.78 9.047)"/><rect width="0.534" height="0.292" transform="translate(0.916 6.424)"/><rect width="0.534" height="0.292" transform="translate(6.403 6.424)"/><rect width="0.534" height="0.292" transform="translate(5.574 4.716) rotate(-45)"/><rect width="0.534" height="0.292" transform="translate(1.695 8.595) rotate(-45)"/><rect width="0.292" height="0.534" transform="translate(1.694 4.545) rotate(-45)"/><rect width="0.292" height="0.534" transform="translate(5.574 8.424) rotate(-45)"/><path d="M58.572,6.637a3.921,3.921,0,0,0-1.517-3.1V.07H52.371V3.44A3.921,3.921,0,0,0,52.3,9.787v3.424h4.683V9.787A3.923,3.923,0,0,0,58.572,6.637ZM52.663.362h4.1V1.574h-2.05v.292h2.05V3.333a3.913,3.913,0,0,0-4.1-.083ZM56.7,12.919H52.6V11.707h2.05v-.292H52.6V9.984a3.917,3.917,0,0,0,4.1,0Zm-2.05-2.647A3.633,3.633,0,0,1,52.608,3.63h.056V3.594a3.633,3.633,0,1,1,1.982,6.678Z" transform="translate(-50.72 -0.07)"/></g></g></svg>