<svg xmlns="http://www.w3.org/2000/svg" width="12.561" height="13.374" viewBox="0 0 12.561 13.374"><g transform="translate(-0.571 0)"><path d="M6.847,0a3.907,3.907,0,0,1,.636.048,3.432,3.432,0,0,1,.583.129A3.834,3.834,0,0,1,8.631.4,5.958,5.958,0,0,1,9.186.7a5.954,5.954,0,0,0,.943.493,6.309,6.309,0,0,0,1.951.439c.34.024.689.039,1.052.039V5.022a6.623,6.623,0,0,1-.244,1.813,7.53,7.53,0,0,1-.66,1.626,8.632,8.632,0,0,1-.994,1.444,12.632,12.632,0,0,1-1.249,1.282A14.707,14.707,0,0,1,8.559,12.3c-.5.345-1,.665-1.5.957l-.2.12-.2-.12q-.774-.448-1.512-.957a13.041,13.041,0,0,1-1.425-1.109A12.624,12.624,0,0,1,2.47,9.905a9.163,9.163,0,0,1-1-1.444A8.164,8.164,0,0,1,.81,6.835,6.61,6.61,0,0,1,.571,5.022V1.674c.364,0,.713-.014,1.053-.039a6.83,6.83,0,0,0,.994-.143,6,6,0,0,0,.957-.3A5.494,5.494,0,0,0,4.513.708,4.569,4.569,0,0,1,5.623.176,4.009,4.009,0,0,1,6.847,0ZM12.29,2.5a8.007,8.007,0,0,1-1.87-.316,6.663,6.663,0,0,1-1.713-.789A3.568,3.568,0,0,0,7.819.971,3.252,3.252,0,0,0,6.851.832a3.34,3.34,0,0,0-.975.139,3.3,3.3,0,0,0-.886.421,6.634,6.634,0,0,1-1.717.793A8.449,8.449,0,0,1,1.408,2.5V5.026a5.857,5.857,0,0,0,.216,1.6,7.182,7.182,0,0,0,.6,1.459,8.039,8.039,0,0,0,.9,1.316,12.208,12.208,0,0,0,1.123,1.157,13.239,13.239,0,0,0,1.263,1.009c.444.311.89.593,1.334.851q.683-.4,1.33-.851a12.881,12.881,0,0,0,1.267-1.009A12.217,12.217,0,0,0,10.573,9.4a8.032,8.032,0,0,0,.9-1.316,6.912,6.912,0,0,0,.593-1.459,5.7,5.7,0,0,0,.219-1.6V2.5Z" fill="#878787"/><path d="M10.555,4.647l-.368-.316-.34.029L6.2,8.669,4.954,6.895l-.335-.057-.388.277-.058.335,1.6,2.282.182.1.383.023.2-.085,4.047-4.784-.024-.339Z" transform="translate(-0.587 -0.706)" fill="#878787" fill-rule="evenodd"/></g></svg>