<svg xmlns="http://www.w3.org/2000/svg" width="4.73" height="4.73" viewBox="0 0 4.73 4.73"><g transform="translate(126.037 126.037)"><g transform="translate(-126.037 -126.037)"><path d="M.315,4.732a.315.315,0,0,1-.223-.538l4.1-4.1A.315.315,0,0,1,4.637.54l-4.1,4.1A.314.314,0,0,1,.315,4.732Z" transform="translate(0.001 -0.002)" fill="#878787"/><path d="M4.417,4.73a.314.314,0,0,1-.223-.092L.094.538A.315.315,0,0,1,.54.092l4.1,4.1a.315.315,0,0,1-.223.538Z" transform="translate(-0.002 0.001)" fill="#878787"/></g></g></svg>