<svg xmlns="http://www.w3.org/2000/svg" width="3.797" height="3.797" viewBox="0 0 3.797 3.797"><g transform="translate(126.037 126.037)"><g transform="translate(-126.037 -126.037)"><path d="M.252,3.8a.253.253,0,0,1-.179-.432L3.364.076a.253.253,0,1,1,.358.358L.431,3.724A.252.252,0,0,1,.252,3.8Z" transform="translate(0.001 -0.002)" fill="#878787"/><path d="M3.546,3.8a.252.252,0,0,1-.179-.074L.076.431A.253.253,0,0,1,.434.073l3.29,3.29a.253.253,0,0,1-.179.432Z" transform="translate(-0.002 0.001)" fill="#878787"/></g></g></svg>