<svg xmlns="http://www.w3.org/2000/svg" width="10.799" height="9.952" viewBox="0 0 10.799 9.952"><g transform="translate(0 -17.969)"><g transform="translate(0 17.969)"><g transform="translate(0 0)"><path d="M7.929,107.2h0a.94.94,0,0,1-.938-.938V104.7a.94.94,0,0,1,.938-.938h2.489v-1.553a.724.724,0,0,0-.724-.724H.724a.724.724,0,0,0-.724.724v6.538a.724.724,0,0,0,.724.724H9.7a.724.724,0,0,0,.724-.724V107.2H7.929Z" transform="translate(0 -99.524)" fill="#fff"/><path d="M321.544,219.925H319.1a.424.424,0,0,0-.424.424v1.559a.424.424,0,0,0,.424.424h2.445a.424.424,0,0,0,.424-.424v-1.559A.424.424,0,0,0,321.544,219.925Zm-1.6,1.816a.612.612,0,1,1,.612-.612A.612.612,0,0,1,319.942,221.741Z" transform="translate(-311.17 -215.169)" fill="#fff"/><path d="M156.814,18.611a.934.934,0,0,0-1.18-.594l-3.676,1.214h5.061Z" transform="translate(-148.379 -17.969)" fill="#fff"/></g></g></g></svg>